<svg width="336" height="195" viewBox="0 0 336 195" fill="none" xmlns="http://www.w3.org/2000/svg">
<path d="M208.116 172.838C207.728 172.863 207.341 172.911 206.954 172.911C196.013 172.915 185.072 172.915 174.129 172.911C173.871 172.911 173.613 172.881 173.355 172.865C173.603 172.631 173.843 172.385 174.103 172.165C177.298 169.433 179.389 165.632 179.988 161.472C180.587 157.311 179.652 153.075 177.357 149.553C175.948 147.48 174.151 145.698 172.066 144.307C172.078 143.746 172.101 143.184 172.101 142.622C172.101 120.185 172.098 97.749 172.093 75.313C172.857 75.234 173.269 74.623 173.759 74.164C179.451 68.8233 185.137 63.4746 190.814 58.118C192.856 56.201 194.834 54.218 196.976 52.406C197.505 52.6025 197.971 52.9379 198.325 53.377C203.54 58.4876 208.755 63.5976 213.972 68.707C215.392 70.096 216.821 71.477 218.272 72.833C218.721 73.2364 219.074 73.7342 219.308 74.2906C219.542 74.847 219.649 75.4481 219.623 76.051C219.588 84.996 219.602 93.941 219.611 102.886C219.517 103.397 219.573 103.925 219.772 104.405C219.736 104.481 219.693 104.553 219.641 104.62C216.108 108.238 212.574 111.857 209.041 115.476C208.825 115.698 208.426 115.851 208.583 116.376H210.113C223.561 116.376 237.009 116.378 250.456 116.382C250.924 116.307 251.403 116.342 251.856 116.482C251.34 116.506 250.824 116.552 250.308 116.552C236.781 116.557 223.253 116.559 209.724 116.558C207.962 116.558 208.114 116.358 208.113 118.137C208.113 136.369 208.114 154.603 208.116 172.838Z" fill="#840094"/>
<path d="M277.333 92.925C277.917 92.8868 278.501 92.9859 279.039 93.2142C279.578 93.4426 280.055 93.7939 280.433 94.24C284.199 97.9973 287.979 101.741 291.771 105.472C294.633 108.298 297.488 111.131 300.387 113.919C300.802 114.293 301.131 114.752 301.35 115.266C301.57 115.78 301.674 116.336 301.657 116.894C301.636 139.299 301.63 161.705 301.641 184.111C301.641 184.371 301.641 184.63 301.63 184.89C301.636 184.955 301.626 185.02 301.604 185.081C301.581 185.142 301.545 185.198 301.499 185.243C301.452 185.289 301.396 185.324 301.335 185.345C301.273 185.366 301.207 185.374 301.143 185.367C300.883 185.375 300.624 185.378 300.364 185.378C285.438 185.378 270.513 185.378 255.588 185.378C255.288 185.378 254.988 185.348 254.682 185.331C254.915 184.77 254.995 184.157 254.914 183.555C254.914 169.506 254.914 155.456 254.914 141.406C254.914 133.279 254.914 125.152 254.914 117.025C254.877 116.708 254.91 116.387 255.01 116.084C255.11 115.781 255.275 115.504 255.493 115.271C260.538 110.17 265.563 105.049 270.568 99.908C272.834 97.59 275.079 95.253 277.333 92.925Z" fill="#ECAA27"/>
<path d="M126.751 173.119C126.651 173.933 126.626 174.755 126.678 175.574C126.666 178.554 126.678 181.534 126.67 184.513C126.67 185.528 126.645 185.53 125.679 185.559C125.379 185.568 125.079 185.559 124.772 185.559H81.7508C81.2768 185.559 80.8008 185.573 80.3258 185.58C80.3258 184.759 80.3258 183.939 80.3258 183.119C80.3258 161.586 80.3258 140.055 80.3258 118.528C80.3576 117.88 80.3157 117.23 80.2008 116.591C80.5828 116.389 80.9175 116.108 81.182 115.766C87.0533 109.928 92.9232 104.089 98.7918 98.248C100.534 96.518 102.313 94.8259 104.075 93.1169C104.9 93.3871 105.64 93.87 106.219 94.517C108.656 97.0283 111.103 99.5283 113.562 102.017C116.722 105.213 119.891 108.399 123.07 111.575C123.229 111.72 123.396 111.856 123.57 111.983L126.333 114.821C126.609 115.73 126.729 116.679 126.688 117.628C126.679 135.565 126.679 153.501 126.688 171.438C126.681 171.999 126.725 172.559 126.751 173.119Z" fill="#19C9EA"/>
<path d="M126.751 173.118C126.727 172.558 126.681 171.998 126.681 171.439C126.681 153.502 126.681 135.566 126.681 117.629C126.722 116.68 126.602 115.731 126.326 114.822C126.343 114.39 126.373 113.96 126.374 113.529C126.374 101.215 126.374 88.901 126.374 76.587C126.374 75.264 126.374 75.2629 127.754 75.2629C142.101 75.2629 156.448 75.2629 170.796 75.2629C171.227 75.2629 171.657 75.295 172.088 75.312C172.091 97.7486 172.094 120.185 172.096 142.621C172.096 143.183 172.073 143.744 172.061 144.306C171.755 144.153 171.447 144.006 171.145 143.847C167.632 141.917 163.552 141.285 159.619 142.06C156.984 142.573 154.506 143.692 152.379 145.329C150.253 146.967 148.536 149.077 147.367 151.493C146.198 153.909 145.607 156.564 145.642 159.247C145.678 161.931 146.338 164.57 147.57 166.954C148.716 169.083 150.249 170.981 152.09 172.548C152.047 172.694 151.962 172.824 151.846 172.922C151.73 173.02 151.588 173.082 151.437 173.1C151.18 173.124 150.921 173.134 150.663 173.129C142.694 173.126 134.723 173.123 126.751 173.118ZM147.151 101.118V94.118C147.151 92.001 147.164 89.883 147.144 87.765C147.136 86.826 147.008 86.691 146.1 86.686C142.944 86.6693 139.788 86.6693 136.633 86.686C135.703 86.686 135.639 86.7859 135.599 87.7499C135.586 88.0499 135.599 88.355 135.599 88.658V111.218C135.599 112.212 135.591 113.206 135.599 114.201C135.612 115.447 135.651 115.486 136.945 115.491C138.761 115.499 140.576 115.491 142.392 115.491C143.645 115.491 144.899 115.512 146.152 115.482C146.967 115.463 147.105 115.293 147.152 114.474C147.166 114.215 147.152 113.955 147.152 113.696L147.151 101.118Z" fill="white"/>
<path d="M80.1978 116.594C80.3126 117.233 80.3546 117.883 80.3228 118.531C80.3228 140.064 80.3228 161.595 80.3228 183.122C80.3228 183.943 80.3228 184.763 80.3228 185.583C65.7068 185.587 51.0909 185.589 36.4749 185.59C36.0579 185.59 35.5978 185.717 35.2598 185.324C35.5052 184.723 35.5938 184.069 35.5169 183.424C35.5169 164.369 35.5169 145.313 35.5169 126.257C35.5169 123.362 35.5169 120.467 35.5169 117.572C35.5169 116.59 35.5318 116.589 36.4988 116.572C36.7578 116.572 37.0179 116.572 37.2769 116.572C50.2422 116.572 63.2088 116.572 76.1768 116.572C77.5188 116.573 78.8588 116.586 80.1978 116.594ZM42.6558 141.728V145.877C42.6558 148.946 42.6498 152.015 42.6558 155.083C42.6558 156.136 42.745 156.268 43.556 156.273C46.798 156.291 50.0398 156.273 53.2828 156.284C53.9528 156.284 54.2179 155.953 54.2059 155.324C54.2059 155.065 54.2059 154.806 54.2059 154.546V129.263C54.2059 129.004 54.2179 128.744 54.2059 128.486C54.1559 127.664 54.0159 127.506 53.2059 127.478C52.4289 127.451 51.6499 127.471 50.8719 127.471C48.4949 127.471 46.1168 127.462 43.7388 127.476C42.7948 127.481 42.6998 127.593 42.6558 128.502C42.6438 128.761 42.6558 129.021 42.6558 129.28V141.728Z" fill="white"/>
<path d="M208.116 172.839C208.116 154.604 208.116 136.368 208.116 118.132C208.116 116.35 207.965 116.554 209.727 116.553C223.255 116.548 236.783 116.546 250.311 116.547C250.827 116.547 251.344 116.502 251.861 116.477C252.599 116.818 252.219 117.477 252.219 117.963C252.239 139.725 252.246 161.487 252.24 183.249C252.24 183.849 252.273 184.456 252.29 185.06C252.222 185.326 252.107 185.552 251.79 185.567C251.445 185.583 251.099 185.589 250.753 185.589H209.527C208.155 185.578 208.146 185.578 208.144 184.243C208.139 180.873 208.139 177.503 208.144 174.133C208.146 173.702 208.126 173.27 208.116 172.839ZM219.616 142.259C219.616 146.582 219.616 150.904 219.616 155.227C219.616 156.685 219.622 156.693 221.037 156.695C223.934 156.7 226.83 156.7 229.728 156.695C231.139 156.695 231.208 156.632 231.208 155.241C231.212 146.595 231.212 137.949 231.208 129.303C231.208 128.003 231.108 127.893 229.808 127.887C226.869 127.874 223.929 127.874 220.988 127.887C219.659 127.887 219.617 127.941 219.616 129.287C219.614 133.612 219.614 137.936 219.616 142.259Z" fill="white"/>
<path d="M62.1598 54.584C62.6975 51.2415 63.5819 47.9642 64.7987 44.805C70.5397 30.413 80.4989 20.156 94.9349 14.426C101.696 11.8049 108.989 10.8517 116.196 11.647C127.746 12.6722 138.634 17.4813 147.172 25.328C149.296 27.2384 151.23 29.3503 152.947 31.634C153.204 31.977 153.471 32.312 153.721 32.634C154.08 32.52 154.077 32.241 154.15 32.005C155.704 26.8324 158.284 22.0263 161.738 17.8739C165.191 13.7215 169.447 10.3082 174.25 7.83797C180.698 4.37461 187.737 2.14703 195.003 1.26997C207.9 -0.47737 221.025 1.67788 232.686 7.45796C244.959 13.496 254.1 22.804 260.56 34.784C264.239 41.5584 266.646 48.9499 267.66 56.592C267.716 57.019 267.807 57.441 267.883 57.868C268.366 57.968 268.456 57.537 268.65 57.299C279.714 43.6346 294.534 33.5064 311.285 28.163C313.954 27.2961 316.665 26.5638 319.407 25.969C320.321 25.769 320.32 25.752 320.22 24.869C319.915 22.1636 319.61 19.4586 319.305 16.754C319.271 16.454 319.258 16.154 319.234 15.849C319.161 15.4171 319.233 14.9732 319.438 14.5863C319.643 14.1993 319.97 13.8909 320.369 13.709C320.754 13.5047 321.192 13.4224 321.625 13.4729C322.057 13.5235 322.464 13.7045 322.792 13.992C325.284 15.9993 327.78 18.0023 330.28 20.001C331.831 21.246 333.39 22.481 334.926 23.745C335.217 23.9192 335.464 24.158 335.648 24.443C335.831 24.7279 335.947 25.0514 335.985 25.3883C336.024 25.7251 335.985 26.0664 335.871 26.3856C335.756 26.7048 335.57 26.9934 335.326 27.229C332.138 31.213 328.926 35.179 325.74 39.164C325.493 39.5903 325.111 39.922 324.654 40.1065C324.197 40.2909 323.692 40.3176 323.218 40.1822C322.744 40.0468 322.329 39.7571 322.039 39.3591C321.748 38.961 321.599 38.4774 321.615 37.985C321.359 35.318 321.062 32.656 320.774 29.993C320.728 29.568 320.64 29.147 320.55 28.593C319.638 28.793 318.768 28.945 317.913 29.164C303.586 32.729 290.38 39.8267 279.502 49.809C275.389 53.5837 271.664 57.7594 268.381 62.274C268.253 62.449 268.131 62.627 268.002 62.8C267.847 63.0625 267.61 63.2665 267.327 63.3803C267.044 63.494 266.731 63.5112 266.438 63.429C266.14 63.3585 265.876 63.1895 265.687 62.9495C265.498 62.7094 265.395 62.4125 265.397 62.107C265.252 60.819 265.213 59.524 265.067 58.234C264.298 51.4806 262.398 44.9047 259.449 38.781C254.799 28.8092 247.556 20.2686 238.479 14.051C231.305 9.18316 223.171 5.90962 214.625 4.45097C210.583 3.70543 206.475 3.37938 202.367 3.47798C191.393 3.78898 181.076 6.41999 171.862 12.578C167.799 15.2416 164.305 18.6853 161.583 22.7095C158.861 26.7338 156.965 31.2584 156.006 36.021C155.965 36.3199 155.898 36.6146 155.806 36.902C155.722 37.1255 155.581 37.3233 155.397 37.4758C155.213 37.6284 154.993 37.7304 154.758 37.7717C154.522 37.8131 154.281 37.7925 154.056 37.7119C153.831 37.6312 153.631 37.4934 153.476 37.312C153.314 37.1096 153.17 36.8939 153.046 36.667C146.111 25.998 136.346 19.246 124.164 15.874C118.733 14.3722 113.075 13.8657 107.464 14.379C99.6677 15.054 92.1964 17.8115 85.8309 22.363C75.2713 29.5575 67.911 40.5647 65.2968 53.072C64.9195 54.7595 64.6733 56.4736 64.5599 58.199C64.543 58.5006 64.5095 58.801 64.4598 59.099C64.4255 59.3821 64.2994 59.6461 64.1007 59.8508C63.9021 60.0554 63.6417 60.1893 63.3597 60.232C63.0814 60.2887 62.7924 60.2571 62.5328 60.1416C62.2733 60.0262 62.0561 59.8326 61.9117 59.588C61.8851 59.5536 61.8607 59.5175 61.8387 59.48C59.5327 55.137 55.6558 52.612 51.4528 50.437C46.135 47.8254 40.4741 45.9805 34.6388 44.957C31.0071 44.168 27.3322 43.5937 23.6329 43.237C19.5837 42.7603 15.4792 43.1565 11.5958 44.399C9.79723 45.0298 8.1279 45.9816 6.66882 47.208C6.51161 47.3561 6.34457 47.4934 6.16882 47.619C5.88979 47.8297 5.54095 47.9264 5.19324 47.8892C4.84553 47.8521 4.52496 47.6839 4.29675 47.419C4.07455 47.1496 3.95949 46.8079 3.97351 46.459C3.98753 46.1101 4.12982 45.7786 4.37293 45.528C4.7097 45.1919 5.07084 44.8814 5.45374 44.599C8.58312 42.2482 12.3138 40.8309 16.2147 40.511C20.9153 40.0998 25.6507 40.3655 30.2758 41.3C35.4864 42.1006 40.6252 43.3151 45.6429 44.932C49.6564 46.29 53.488 48.1355 57.0519 50.427C58.6943 51.4757 60.1895 52.7388 61.4979 54.183C61.5741 54.2924 61.6722 54.3846 61.7863 54.4536C61.9003 54.5227 62.0276 54.5671 62.1598 54.584V54.584Z" fill="#2B1149"/>
<path d="M80.1989 116.593C78.8589 116.585 77.5199 116.572 76.1799 116.571C63.2145 116.571 50.248 116.571 37.28 116.571C37.021 116.571 36.7619 116.571 36.5029 116.571C35.5359 116.588 35.5229 116.589 35.5209 117.571C35.5139 120.466 35.5209 123.361 35.5209 126.256C35.5209 145.311 35.5209 164.367 35.5209 183.423C35.5978 184.068 35.5093 184.722 35.2638 185.323C34.7258 185.723 34.1829 186.045 33.4889 185.656C33.208 185.491 32.9831 185.245 32.8437 184.95C32.7042 184.656 32.6566 184.326 32.707 184.004C32.715 183.745 32.707 183.485 32.707 183.225V117.873C32.707 117.484 32.6939 117.094 32.7209 116.707C32.7182 116.467 32.7821 116.23 32.9057 116.024C33.0293 115.818 33.2076 115.65 33.4208 115.539C34.0177 115.188 34.5497 114.736 34.9938 114.205C41.0292 108.199 47.0626 102.191 53.0939 96.1799C54.0129 95.2659 54.985 94.4019 55.863 93.4509C56.0911 93.1987 56.3738 93.002 56.6896 92.8758C57.0054 92.7496 57.3459 92.6973 57.685 92.7229C66.7623 92.7422 75.8405 92.7462 84.9198 92.7349C90.9718 92.7349 97.0198 92.7279 103.077 92.7529C103.405 92.7529 103.968 92.3989 104.072 93.1179C102.31 94.8269 100.53 96.5179 98.789 98.2489C92.9123 104.082 87.0422 109.921 81.1789 115.767C80.9147 116.109 80.5806 116.39 80.1989 116.593V116.593Z" fill="#2B1149"/>
<path d="M252.293 185.059C252.275 184.459 252.243 183.851 252.243 183.248C252.243 161.486 252.236 139.724 252.222 117.962C252.222 117.472 252.602 116.817 251.864 116.476C251.411 116.336 250.932 116.302 250.464 116.376C237.016 116.368 223.568 116.366 210.12 116.369H208.59C208.434 115.847 208.833 115.694 209.048 115.469C212.575 111.845 216.108 108.226 219.648 104.613C219.7 104.546 219.744 104.474 219.779 104.398C222.205 101.941 224.631 99.4827 227.058 97.024C228.239 95.824 229.424 94.624 230.575 93.396C230.77 93.1706 231.014 92.9923 231.288 92.8744C231.562 92.7565 231.859 92.702 232.157 92.715C246.89 92.733 261.626 92.7394 276.364 92.734C276.694 92.734 277.064 92.611 277.342 92.917C275.088 95.245 272.842 97.581 270.577 99.899C265.562 105.032 260.537 110.153 255.502 115.262C255.284 115.495 255.119 115.772 255.019 116.075C254.919 116.378 254.886 116.699 254.922 117.016C254.93 125.143 254.93 133.27 254.922 141.397C254.922 155.447 254.922 169.497 254.922 183.546C255.003 184.148 254.923 184.761 254.689 185.322C253.466 185.989 253.328 185.978 252.293 185.059Z" fill="#2B1149"/>
<path d="M172.093 75.314C171.663 75.297 171.232 75.265 170.801 75.265C156.453 75.265 142.106 75.265 127.759 75.265C126.377 75.265 126.379 75.265 126.379 76.589C126.379 88.903 126.379 101.217 126.379 113.531C126.379 113.962 126.348 114.393 126.331 114.825L123.568 111.988C123.666 111.478 123.692 110.957 123.646 110.44C123.651 99.2827 123.646 88.1253 123.631 76.968C123.597 76.4175 123.69 75.8664 123.902 75.3573C124.114 74.8481 124.44 74.3945 124.855 74.0311C132.382 67.0204 139.876 59.9737 147.337 52.891C147.557 52.6618 147.822 52.4807 148.115 52.359C148.409 52.2373 148.724 52.1777 149.042 52.184C164.657 52.2067 180.271 52.215 195.886 52.209C196.251 52.209 196.67 52.04 196.976 52.409C194.834 54.218 192.857 56.204 190.815 58.12C185.124 63.462 179.438 68.8107 173.759 74.166C173.27 74.624 172.857 75.235 172.093 75.314Z" fill="#2B1149"/>
<path d="M152.098 172.55C150.257 170.983 148.724 169.086 147.578 166.956C146.346 164.572 145.685 161.933 145.65 159.249C145.615 156.566 146.205 153.91 147.374 151.495C148.544 149.079 150.26 146.968 152.387 145.331C154.513 143.694 156.992 142.575 159.627 142.062C163.56 141.287 167.64 141.919 171.154 143.849C171.454 144.009 171.764 144.156 172.07 144.308C174.155 145.699 175.952 147.481 177.361 149.554C179.655 153.076 180.591 157.312 179.992 161.473C179.393 165.634 177.301 169.434 174.106 172.166C173.847 172.387 173.606 172.633 173.358 172.866C171.642 174.03 169.767 174.94 167.79 175.566C166.999 175.779 166.198 175.952 165.39 176.084C164.439 176.235 164.426 176.254 164.423 177.224C164.415 180.124 164.423 183.018 164.423 185.915C164.423 188.12 164.423 190.325 164.423 192.53C164.453 193.006 164.404 193.483 164.277 193.943C164.179 194.234 163.983 194.481 163.721 194.64C163.459 194.8 163.149 194.862 162.846 194.815C162.562 194.796 162.293 194.681 162.083 194.489C161.873 194.298 161.734 194.041 161.688 193.76C161.644 193.373 161.63 192.984 161.648 192.595C161.648 187.493 161.648 182.391 161.648 177.289C161.648 176.698 161.688 176.229 160.855 176.142C157.667 175.752 154.642 174.511 152.098 172.55V172.55Z" fill="#2B1149"/>
<path d="M320.514 162.723C320.514 159.135 320.503 155.547 320.525 151.959C320.525 151.314 320.393 150.991 319.682 150.788C317.774 150.313 316.091 149.191 314.917 147.614C313.744 146.037 313.154 144.101 313.247 142.138C313.247 138.338 313.529 134.538 313.884 130.759C314.364 125.642 314.997 120.542 315.894 115.479C316.517 111.468 317.468 107.515 318.738 103.659C319.112 102.462 319.669 101.329 320.389 100.302C321.358 99.0159 322.337 98.9859 323.347 100.219C324.069 101.192 324.622 102.28 324.982 103.437C326.215 107.033 327.134 110.729 327.731 114.483C329.063 121.967 329.951 129.524 330.391 137.113C330.499 138.923 330.564 140.739 330.542 142.552C330.539 144.426 329.921 146.247 328.783 147.736C327.645 149.225 326.05 150.299 324.243 150.795C323.303 151.071 323.291 151.071 323.291 152.115C323.287 157.821 323.287 163.527 323.291 169.233C323.291 170.616 323.291 172 323.291 173.383C323.304 173.728 323.278 174.073 323.215 174.412C323.149 174.71 322.981 174.976 322.74 175.164C322.498 175.352 322.199 175.449 321.894 175.439C321.588 175.44 321.292 175.336 321.053 175.145C320.815 174.953 320.649 174.686 320.584 174.388C320.524 174.004 320.503 173.615 320.521 173.227C320.513 169.726 320.511 166.224 320.514 162.723Z" fill="#2B1149"/>
<path d="M8.30579 162.113C8.30579 158.741 8.28466 155.369 8.32166 151.997C8.32866 151.263 8.12181 150.985 7.37781 150.778C5.51907 150.299 3.87694 149.206 2.71887 147.675C1.56081 146.144 0.955048 144.267 0.99988 142.348C1.06205 137.511 1.37638 132.681 1.94177 127.877C2.41877 123.322 3.03189 118.788 3.86389 114.285C4.46981 110.49 5.4149 106.756 6.68787 103.13C7.02641 102.149 7.49733 101.218 8.08777 100.364C9.10277 98.982 10.2107 98.975 11.2147 100.359C12.0978 101.695 12.7596 103.164 13.1747 104.711C14.4492 108.972 15.405 113.321 16.0338 117.724C16.9571 123.483 17.6162 129.274 18.0109 135.096C18.1589 137.296 18.2609 139.496 18.3429 141.696C18.5121 143.744 17.9482 145.786 16.7521 147.457C15.5559 149.128 13.8052 150.32 11.8119 150.82C11.1869 150.969 11.1117 151.31 11.1117 151.839C11.1297 153.611 11.1188 155.384 11.1188 157.156V171.811C11.1332 172.157 11.1293 172.503 11.1068 172.848C11.0908 173.185 10.9503 173.505 10.7125 173.745C10.4747 173.985 10.1565 174.128 9.81922 174.147C9.48196 174.166 9.14961 174.059 8.88635 173.848C8.6231 173.636 8.44752 173.334 8.39368 173.001C8.32292 172.62 8.29445 172.232 8.30872 171.845C8.30272 168.596 8.30179 165.352 8.30579 162.113Z" fill="#2B1149"/>
<path d="M147.147 101.121V113.698C147.147 113.957 147.159 114.217 147.147 114.476C147.103 115.295 146.965 115.466 146.147 115.484C144.894 115.514 143.64 115.493 142.386 115.493C140.571 115.493 138.755 115.498 136.939 115.493C135.645 115.488 135.606 115.449 135.593 114.203C135.582 113.209 135.593 112.215 135.593 111.22V88.6601C135.593 88.3601 135.583 88.055 135.593 87.752C135.634 86.787 135.693 86.693 136.627 86.688C139.783 86.6727 142.938 86.6727 146.093 86.688C147.002 86.688 147.13 86.8281 147.138 87.7671C147.159 89.8841 147.145 92.002 147.145 94.12L147.147 101.121Z" fill="#2B1149"/>
<path d="M42.6559 141.728V129.28C42.6559 129.021 42.6459 128.761 42.6559 128.502C42.6999 127.593 42.7939 127.481 43.7389 127.476C46.1159 127.461 48.494 127.471 50.872 127.471C51.65 127.471 52.429 127.45 53.206 127.477C54.016 127.505 54.156 127.663 54.206 128.485C54.222 128.743 54.206 129.003 54.206 129.262V154.546C54.206 154.806 54.201 155.065 54.206 155.324C54.218 155.954 53.9529 156.286 53.2819 156.284C50.0399 156.275 46.7968 156.291 43.5548 156.273C42.7428 156.273 42.6549 156.136 42.6549 155.083C42.6449 152.014 42.6549 148.945 42.6549 145.877L42.6559 141.728Z" fill="#2B1149"/>
<path d="M219.617 142.258C219.617 137.935 219.617 133.612 219.617 129.289C219.617 127.94 219.66 127.889 220.989 127.889C223.93 127.879 226.87 127.879 229.809 127.889C231.109 127.895 231.209 128.005 231.209 129.305C231.213 137.951 231.213 146.597 231.209 155.243C231.209 156.634 231.139 156.695 229.728 156.697C226.831 156.702 223.935 156.702 221.038 156.697C219.622 156.697 219.618 156.687 219.617 155.229C219.615 150.908 219.615 146.584 219.617 142.258Z" fill="#2B1149"/>
</svg>
