<svg width="416" height="622" viewBox="0 0 416 622" fill="none" xmlns="http://www.w3.org/2000/svg">
<path d="M257.402 616.647C260.494 615.647 263.702 615.008 266.723 613.783C267.887 613.312 268.053 614.393 268.523 614.991C264.847 615.737 261.135 616.29 257.402 616.647V616.647Z" fill="#FEFDFE"/>
<path d="M104.425 363.871C112.99 354.946 122.703 347.199 133.309 340.834C150.258 330.477 169.1 323.6 188.736 320.605C201.063 318.708 213.576 318.315 225.998 319.435C245.896 321.125 265.26 326.748 282.97 335.976C295.347 342.382 306.732 350.546 316.77 360.214C317.159 360.589 317.71 360.857 317.691 361.523C316.56 360.926 315.341 360.512 314.081 360.297C309.373 359.837 304.675 359.291 299.938 359.184C292.765 359.022 285.698 359.531 278.951 362.255C275.93 363.413 273.128 365.078 270.665 367.176C268.322 369.237 268.702 371.838 271.483 373.218C272.884 373.934 274.482 374.165 276.029 373.875C277.451 373.616 278.87 373.33 280.302 373.13C284.221 372.581 287.053 374.984 287.202 378.948C287.345 382.619 284.884 385.642 280.887 386.7C277.936 387.362 274.862 387.217 271.987 386.281C271.081 385.995 270.118 385.939 269.185 386.118C268.252 386.298 267.379 386.708 266.644 387.31C266.206 387.654 265.744 387.965 265.26 388.24C263.289 389.354 261.728 388.872 260.705 386.849C260.16 385.57 259.745 384.24 259.464 382.878C258.795 380.648 257.392 378.709 255.483 377.377C253.574 376.045 251.271 375.397 248.947 375.539C247.592 375.634 247.262 376.155 247.433 377.404C247.62 379.177 248.057 380.914 248.733 382.564C249.243 383.712 248.89 383.953 247.768 384.046C245.86 384.109 244.022 384.779 242.521 385.958C241.766 386.584 241.228 387.433 240.986 388.383C240.744 389.333 240.809 390.336 241.173 391.247C241.885 392.679 243.46 393.247 245.683 392.865C247.201 392.524 248.737 392.265 250.283 392.088C252.974 391.919 254.526 393.947 253.851 396.548C253.641 397.418 253.248 398.234 252.699 398.94C252.15 399.647 251.457 400.229 250.666 400.648C249.056 401.526 247.366 402.261 245.742 403.106C244.18 403.819 242.886 405.012 242.048 406.511C241.21 408.01 240.872 409.737 241.084 411.441C241.14 412.903 241.636 414.314 242.507 415.49C243.379 416.665 244.584 417.551 245.967 418.03C247.509 418.714 249.227 418.899 250.88 418.559C252.532 418.218 254.037 417.369 255.183 416.13C256.638 414.593 257.947 412.924 259.093 411.144C260.254 409.368 261.754 407.839 263.508 406.644C264.784 405.707 266.373 405.301 267.942 405.511C269.511 405.722 270.937 406.533 271.921 407.774C272.933 408.891 273.716 410.196 274.226 411.615C274.606 412.66 274.988 413.704 275.411 414.731C276.156 416.537 277.319 418.031 279.417 418.003C280.46 417.979 281.472 417.636 282.315 417.021C283.159 416.406 283.794 415.547 284.136 414.561C284.754 412.943 284.997 411.206 284.848 409.481C284.765 407.311 285.436 406.89 287.483 407.821C289.074 408.648 290.451 409.832 291.508 411.281C294.518 414.954 298.373 415.681 302.789 414.957C304.377 414.667 305.988 414.522 307.603 414.521C312.752 414.613 315.411 418.262 314.018 423.209C313.313 425.812 311.766 428.108 309.618 429.739C302.278 435.37 292.289 434.91 284.518 428.573C282.318 426.779 280.195 424.89 277.98 423.115C275.901 421.319 273.378 420.115 270.675 419.628C267.971 419.141 265.187 419.389 262.612 420.346C255.504 422.672 248.926 426.379 243.256 431.255C240.734 433.462 238.639 436.114 237.076 439.078C232.376 447.921 233.895 456.867 241.252 463.631C243.075 465.271 245.081 466.696 247.23 467.878C251.726 470.33 256.491 472.253 261.43 473.609C264.399 474.477 266.485 476.216 267.072 479.338C267.972 484.089 268.753 488.862 269.585 493.627C267.307 493.518 265.028 493.8 262.845 494.46C251.24 497.537 239.414 499.71 227.473 500.96C226.713 501.043 225.944 501.055 224.859 501.117C225.753 499.794 226.496 498.717 227.213 497.627C228.418 495.825 229.47 493.924 230.357 491.946C230.996 490.653 231.226 489.197 231.017 487.77C230.807 486.343 230.169 485.014 229.185 483.959C228.202 482.904 226.921 482.174 225.513 481.865C224.104 481.556 222.635 481.683 221.301 482.23C208.495 486.553 195.877 491.292 184.273 498.369C184.076 498.471 183.873 498.559 183.664 498.632C179.653 490.569 175.024 482.925 168.459 476.632C161.459 469.926 153.319 465.594 143.479 464.868C138.379 464.491 133.559 465.91 128.701 467.099C123.79 468.299 118.947 468.125 114.748 465.163C106.425 459.241 100.288 450.739 97.2878 440.975C95.8348 436.526 97.7458 432.468 101.688 429.875C104.268 428.321 107.126 427.281 110.102 426.814C113.64 426.099 117.236 425.614 120.529 423.977C125.4 421.556 128.974 417.622 132.336 413.553C137.904 406.816 144.718 402.365 153.366 400.683C157.541 399.971 161.598 398.69 165.425 396.876C170.125 394.521 171.652 391.288 170.361 386.176C169.723 383.645 168.903 381.16 168.127 378.666C167.033 375.416 167.19 371.875 168.568 368.735C169.197 367.312 169.71 365.84 170.103 364.335C170.598 362.772 170.495 361.08 169.814 359.588C169.134 358.096 167.924 356.91 166.419 356.259C165.576 355.833 164.691 355.498 163.778 355.259C158.962 353.959 154.155 354.744 149.372 355.473C141.716 356.64 134.324 358.954 126.826 360.813C119.472 362.641 112.073 364.181 104.425 363.871ZM212.709 336.2C209.648 336.162 206.588 336.297 203.543 336.605C198.934 337.048 194.371 337.781 190.267 340.13C186.217 342.449 184.414 345.839 185.724 350.192C187.346 356.048 190.04 361.553 193.669 366.428C196.559 370.147 200.05 370.58 204.179 368.221C206.562 366.677 208.8 364.921 210.866 362.973C213.249 360.973 215.833 359.354 219 359.038C221.323 358.807 223.666 358.787 225.995 358.617C231.615 358.21 235.366 354.664 235.571 349.611C235.759 344.97 232.822 340.611 228.096 338.566C223.171 336.437 217.951 336.214 212.709 336.2Z" fill="#19C9EA"/>
<path d="M261.879 164.786C261.997 177.845 260.679 190.659 255.32 202.772C250.536 213.572 242.786 221.654 232.678 227.648C222.635 233.603 212.03 237.975 200.43 239.754C179.113 243.024 161.491 236.628 147.924 219.654C139.382 208.966 133.624 196.803 129.178 183.97C124.324 169.585 120.94 154.745 119.078 139.678C118.104 132.34 117.443 124.973 117.093 117.578C117.041 116.75 117.206 115.923 117.572 115.178C119.679 111.105 122.806 107.647 126.648 105.141C132.127 101.28 138.232 98.5633 144.211 95.6233C152.111 91.7363 159.865 87.6383 166.202 81.3343C167.042 80.4983 167.659 78.7883 168.741 79.0193C169.677 79.2193 170.341 80.7423 171.106 81.6993C179.091 91.7093 187.143 101.665 196.306 110.64C206.494 120.614 217.746 129.009 231.341 133.848C239.053 136.596 247.162 138.063 255.348 138.191C255.848 138.201 256.348 138.266 256.843 138.291C259.478 138.446 259.443 138.448 259.812 141.018C261.014 148.888 261.704 156.827 261.879 164.786V164.786ZM193.223 189.21C195.757 189.248 197.198 188.065 197.378 186.264C197.457 185.824 197.445 185.372 197.343 184.936C197.24 184.501 197.05 184.091 196.784 183.731C196.518 183.372 196.181 183.07 195.794 182.846C195.407 182.621 194.978 182.478 194.534 182.425C191.856 181.93 189.163 181.49 186.461 181.162C185.136 181 184.982 180.668 185.51 179.434C188.39 172.697 191.186 165.922 193.974 159.146C194.191 158.724 194.319 158.26 194.349 157.786C194.379 157.312 194.31 156.836 194.147 156.389C193.984 155.943 193.731 155.535 193.403 155.191C193.075 154.846 192.679 154.574 192.241 154.39C191.822 154.193 191.368 154.085 190.905 154.072C190.443 154.059 189.983 154.142 189.554 154.315C189.126 154.488 188.737 154.748 188.414 155.078C188.09 155.409 187.838 155.802 187.674 156.234C184.012 164.931 180.388 173.643 176.802 182.37C176.589 182.817 176.482 183.307 176.488 183.801C176.495 184.296 176.614 184.782 176.838 185.224C177.061 185.665 177.383 186.049 177.778 186.347C178.173 186.645 178.631 186.848 179.117 186.941C183.978 187.84 188.88 188.526 193.223 189.211V189.21ZM192.414 214.634C198.376 214.606 204.279 213.445 209.808 211.212C210.265 211.074 210.688 210.842 211.05 210.531C211.412 210.22 211.705 209.837 211.91 209.406C212.115 208.975 212.228 208.506 212.242 208.029C212.256 207.552 212.169 207.077 211.989 206.635C211.639 205.775 210.964 205.088 210.11 204.724C209.256 204.36 208.292 204.348 207.43 204.692C206.796 204.892 206.185 205.171 205.55 205.37C197.245 207.97 188.984 209.337 180.844 204.727C180.1 204.403 179.265 204.351 178.486 204.581C177.708 204.811 177.036 205.308 176.587 205.985C176.139 206.662 175.944 207.475 176.036 208.281C176.129 209.088 176.502 209.836 177.092 210.394C177.634 210.87 178.236 211.273 178.883 211.594C183.07 213.719 187.72 214.766 192.414 214.64V214.634ZM149.48 144.74C149.48 144.81 149.494 145.14 149.522 145.477C149.633 146.807 149.731 148.139 149.866 149.467C150.15 152.267 151.401 153.598 153.973 153.861C156.995 154.172 159.064 152.954 159.824 150.343C160.253 148.754 160.361 147.096 160.141 145.464C159.922 143.833 159.379 142.262 158.545 140.843C157.962 139.846 157.056 139.079 155.977 138.669C154.898 138.259 153.711 138.231 152.614 138.589C150.626 139.089 149.562 140.635 149.48 143.139C149.468 143.589 149.48 144.035 149.48 144.74ZM221.33 151.06C224.905 151.039 226.148 149.894 226.82 146.422C227.378 143.536 226.457 140.959 225.387 138.44C224.895 137.503 224.123 136.744 223.178 136.268C222.233 135.793 221.163 135.625 220.118 135.788C218.018 136.018 216.944 136.988 216.344 139.37C215.671 142.046 216.265 144.718 216.705 147.336C217.23 150.404 218.258 151.078 221.33 151.06Z" fill="#FEFDFE"/>
<path d="M269.589 493.633C268.757 488.868 267.972 484.095 267.076 479.344C266.488 476.223 264.403 474.483 261.434 473.615C256.495 472.26 251.73 470.337 247.234 467.884C245.085 466.703 243.079 465.278 241.256 463.638C233.899 456.874 232.385 447.928 237.08 439.085C238.643 436.121 240.738 433.469 243.26 431.261C248.93 426.386 255.508 422.68 262.615 420.354C265.189 419.397 267.974 419.149 270.678 419.636C273.381 420.123 275.904 421.328 277.983 423.123C280.198 424.899 282.32 426.788 284.521 428.581C292.296 434.919 302.285 435.381 309.621 429.747C311.769 428.117 313.316 425.82 314.021 423.217C315.414 418.27 312.755 414.617 307.606 414.529C305.991 414.53 304.38 414.676 302.792 414.965C298.377 415.694 294.521 414.965 291.512 411.289C290.455 409.841 289.078 408.656 287.487 407.829C285.439 406.899 284.768 407.319 284.852 409.489C285.001 411.215 284.757 412.951 284.14 414.569C283.798 415.556 283.162 416.414 282.319 417.029C281.476 417.644 280.464 417.987 279.421 418.011C277.321 418.043 276.16 416.546 275.415 414.739C274.992 413.713 274.61 412.668 274.23 411.623C273.72 410.205 272.937 408.9 271.925 407.782C270.941 406.543 269.516 405.733 267.947 405.522C266.379 405.312 264.79 405.718 263.515 406.654C261.761 407.849 260.261 409.378 259.1 411.154C257.954 412.934 256.645 414.603 255.19 416.14C254.044 417.379 252.539 418.228 250.887 418.569C249.234 418.91 247.516 418.725 245.974 418.04C244.591 417.561 243.386 416.676 242.514 415.5C241.643 414.325 241.147 412.913 241.091 411.451C240.879 409.747 241.217 408.02 242.055 406.521C242.893 405.022 244.187 403.829 245.749 403.116C247.377 402.271 249.062 401.535 250.673 400.658C251.464 400.24 252.157 399.658 252.706 398.951C253.255 398.244 253.648 397.428 253.858 396.558C254.532 393.958 252.981 391.93 250.29 392.098C248.744 392.275 247.208 392.534 245.69 392.875C243.467 393.257 241.89 392.688 241.18 391.256C240.816 390.346 240.751 389.343 240.993 388.393C241.235 387.443 241.773 386.594 242.528 385.968C244.029 384.789 245.867 384.119 247.775 384.056C248.898 383.963 249.25 383.722 248.74 382.574C248.064 380.924 247.627 379.187 247.44 377.414C247.269 376.165 247.599 375.644 248.954 375.549C251.277 375.408 253.581 376.056 255.49 377.388C257.399 378.72 258.802 380.658 259.471 382.888C259.753 384.248 260.17 385.577 260.715 386.854C261.737 388.878 263.299 389.359 265.27 388.245C265.754 387.97 266.216 387.659 266.654 387.314C267.388 386.712 268.262 386.303 269.195 386.123C270.128 385.943 271.091 385.999 271.997 386.285C274.872 387.222 277.946 387.367 280.897 386.704C284.897 385.646 287.355 382.623 287.212 378.952C287.059 374.988 284.227 372.585 280.312 373.134C278.88 373.334 277.461 373.62 276.039 373.879C274.492 374.169 272.894 373.938 271.493 373.222C268.713 371.842 268.333 369.241 270.675 367.18C273.134 365.081 275.933 363.415 278.952 362.254C285.699 359.53 292.766 359.021 299.939 359.183C304.676 359.29 309.374 359.836 314.082 360.296C315.342 360.512 316.561 360.925 317.692 361.522C319.934 362.764 321.43 364.822 323.104 366.646C341.977 387.228 354.048 411.187 358.776 438.772C356.976 438.62 355.808 439.649 354.751 440.896C354.423 440.851 354.092 440.848 353.764 440.888C347.058 442.615 340.573 444.888 334.764 448.771C330.62 451.436 327.202 455.085 324.815 459.394C323.843 461.194 323.581 462.964 324.83 464.733C325.342 465.459 325.876 466.169 326.43 466.863C330.841 472.363 335.588 477.625 338.742 484.03C336.114 488.484 333.124 492.714 329.803 496.677C325.74 501.694 321.344 506.43 316.644 510.854C309.01 518.01 300.794 524.517 292.08 530.309C291.744 530.503 291.394 530.674 291.035 530.819C284.774 525.706 279.696 519.296 276.151 512.031C276.886 509.949 277.492 507.822 277.963 505.664C278.915 499.471 275.376 494.56 269.589 493.633Z" fill="#840094"/>
<path d="M104.425 363.871C112.073 364.182 119.472 362.641 126.825 360.817C134.325 358.958 141.714 356.644 149.371 355.477C154.154 354.747 158.961 353.967 163.777 355.263C164.69 355.502 165.575 355.837 166.418 356.263C167.923 356.914 169.133 358.1 169.813 359.592C170.494 361.084 170.597 362.776 170.102 364.339C169.709 365.845 169.196 367.316 168.567 368.739C167.189 371.879 167.031 375.42 168.125 378.67C168.901 381.165 169.725 383.649 170.359 386.18C171.65 391.29 170.118 394.523 165.423 396.88C161.598 398.695 157.541 399.978 153.368 400.691C144.72 402.372 137.906 406.824 132.338 413.561C128.976 417.629 125.402 421.561 120.531 423.985C117.238 425.623 113.642 426.108 110.104 426.822C107.128 427.289 104.27 428.329 101.69 429.883C97.7458 432.477 95.8348 436.535 97.2898 440.983C100.29 450.747 106.427 459.249 114.75 465.171C118.95 468.134 123.792 468.309 128.703 467.107C133.561 465.917 138.378 464.498 143.481 464.876C153.321 465.602 161.458 469.933 168.461 476.64C175.027 482.929 179.655 490.572 183.666 498.64L176.543 502.959C176.262 503.13 176.005 503.336 175.628 503.185C172.614 501.966 169.601 503.154 166.591 503.23C160.88 503.371 155.191 503.899 149.458 503.506C145.419 503.23 141.366 503.161 137.335 502.706C128.995 501.918 120.757 500.279 112.75 497.815C113.806 493.696 115.941 490.015 117.477 486.09C118.825 482.648 118.515 481.424 115.453 479.336C106.726 473.446 99.0024 466.192 92.5758 457.853C91.5966 456.428 90.225 455.319 88.6274 454.658C87.0299 453.998 85.275 453.816 83.5758 454.133C76.3528 455.114 72.4138 451.468 69.7928 446.259C68.9912 444.609 68.3809 442.872 67.9738 441.083C67.5418 439.308 67.1125 437.534 66.6858 435.76C67.9107 428.635 69.7917 421.639 72.3048 414.86C79.0539 396.101 89.7034 378.985 103.551 364.642C103.815 364.359 104.133 364.126 104.425 363.871Z" fill="#840094"/>
<path d="M213.206 614.347C203.874 614.286 193.014 613.617 182.482 610.347C177.857 609.076 173.568 606.806 169.915 603.698C168.279 602.262 166.971 600.491 166.079 598.505C165.188 596.519 164.734 594.365 164.749 592.188C164.732 591.164 164.962 590.553 166.234 590.365C178.225 588.599 190.202 586.744 202.184 584.922C206.084 584.327 209.998 583.783 213.895 583.16C217.342 582.61 218.454 579.891 216.411 577.087C215.515 575.813 214.826 574.405 214.37 572.916C213.634 570.47 212.659 568.103 211.458 565.848C210.97 564.984 210.621 564.129 211.294 563.21C211.967 562.291 212.949 562.429 213.887 562.583C221.887 563.909 229.887 565.274 237.802 567.071C242.402 568.116 246.99 569.247 251.587 570.32C252.402 570.511 252.887 570.72 252.907 571.796C253.07 583.973 256.42 595.895 262.622 606.376C263.268 607.476 263.134 607.758 261.958 608.114C253.836 610.455 245.525 612.075 237.119 612.955C229.182 613.892 221.197 614.357 213.206 614.347Z" fill="#FEFDFE"/>
<path d="M240.515 270.964C239.167 275.594 238.633 280.555 234.471 283.928C230.846 286.867 226.635 288.439 222.252 289.698C222.106 289.74 221.883 289.514 221.696 289.414C222.938 285.819 221.061 283.706 217.226 284.214C208.288 285.39 199.335 286.489 190.29 285.757C181.071 285.01 172.497 282.485 165.169 276.532C163.969 275.554 163.751 274.915 164.721 273.493C168.413 268.076 169.854 261.863 170.592 255.45C170.944 252.184 171.052 248.896 170.916 245.614C170.89 244.814 171 244.568 171.923 244.844C188.2 249.697 204.041 247.567 219.641 241.78C224.268 240.032 228.746 237.914 233.033 235.445C233.554 235.145 234.097 234.898 234.454 234.715C234.877 247.077 235.928 259.306 240.515 270.964Z" fill="#FEFDFE"/>
<path d="M224.198 488.616C221.891 493.81 218.443 498.416 214.111 502.093C212.324 503.639 211.782 505.12 212.434 506.719C213.051 508.234 214.346 508.871 216.77 508.744C233.329 507.841 249.751 505.222 265.77 500.928C266.354 500.752 266.953 500.626 267.56 500.551C269.918 500.351 271.167 501.48 271.137 503.837C271.029 506.242 270.233 508.565 268.843 510.53C263.696 518.484 256.624 524.295 248.37 528.759C239.218 533.708 229.33 536.397 219.139 538.084C208.52 539.683 197.825 540.718 187.097 541.184C185.797 541.261 185.366 540.898 185.281 539.606C184.765 529.708 182.738 519.947 179.271 510.662C178.829 509.521 179.545 509.326 180.185 508.932C192.272 501.474 204.738 494.816 218.418 490.69C220.26 490.127 222.054 489.388 224.198 488.616Z" fill="#FEFDFE"/>
<path d="M276.152 512.035C279.697 519.3 284.775 525.71 291.036 530.823C289.156 532.297 287.156 533.611 285.058 534.753C276.532 540.065 267.541 544.591 258.196 548.276C257.519 548.518 256.916 548.93 256.445 549.473C255.974 550.016 255.652 550.672 255.509 551.376C254.52 554.792 253.832 558.287 253.45 561.822C253.322 563.328 252.827 563.545 251.4 563.168C239.117 560.016 226.681 557.493 214.141 555.611C212.554 555.361 210.928 555.55 209.441 556.158C207.953 556.766 206.66 557.769 205.703 559.06C204.745 560.35 204.159 561.878 204.009 563.478C203.858 565.078 204.148 566.689 204.848 568.135C206.041 570.582 207.09 573.097 207.99 575.666C208.323 576.592 208.303 577.018 207.172 577.187C194.685 579.058 182.202 580.95 169.723 582.864C169.249 582.892 168.774 582.894 168.3 582.869C170.251 581.883 171.815 581.104 173.37 580.302C177.241 578.302 180.97 576.102 183.95 572.838C185.12 571.571 186.026 570.084 186.615 568.462C187.204 566.841 187.464 565.119 187.38 563.396C187.335 558.667 187.025 553.944 186.451 549.249C186.351 548.476 186.484 548.154 187.334 548.11C191.092 547.91 194.85 547.723 198.598 547.419C215.528 546.041 232.349 544.111 247.975 536.743C258.697 531.687 267.832 524.688 274.451 514.688C275.029 513.81 275.585 512.918 276.152 512.035Z" fill="#19C9EA"/>
<path d="M66.6868 435.758C67.1155 437.532 67.5448 439.307 67.9748 441.081C68.382 442.87 68.9923 444.606 69.7938 446.257C72.4148 451.466 76.3538 455.111 83.5768 454.131C85.2761 453.813 87.0309 453.996 88.6284 454.656C90.226 455.317 91.5976 456.426 92.5768 457.851C99.0034 466.19 106.727 473.443 115.454 479.334C118.515 481.422 118.826 482.646 117.478 486.088C115.942 490.012 113.807 493.694 112.751 497.813C93.3198 491.939 77.1508 481.881 67.9508 462.888C67.1508 461.242 66.0958 460.15 64.1638 460.182C64.2576 452.534 64.9739 444.906 66.3058 437.375C66.4038 436.832 66.5588 436.299 66.6868 435.758Z" fill="#19C9EA"/>
<path d="M338.748 484.029C335.593 477.629 330.848 472.364 326.436 466.862C325.88 466.17 325.346 465.46 324.836 464.732C323.587 462.963 323.848 461.193 324.821 459.393C327.207 455.086 330.623 451.438 334.764 448.774C340.572 444.892 347.057 442.618 353.764 440.891C354.092 440.851 354.423 440.854 354.751 440.899C354.485 444.665 353.815 448.39 352.751 452.012C349.98 462.958 345.527 473.407 339.551 482.987C339.302 483.349 339.034 483.696 338.748 484.029Z" fill="#19C9EA"/>
<path d="M212.705 336.2C217.952 336.214 223.172 336.437 228.09 338.566C232.816 340.612 235.753 344.966 235.565 349.611C235.365 354.664 231.609 358.211 225.989 358.617C223.66 358.787 221.317 358.806 218.994 359.038C215.827 359.354 213.243 360.968 210.86 362.973C208.794 364.921 206.556 366.678 204.173 368.221C200.043 370.58 196.553 370.147 193.663 366.428C190.034 361.553 187.34 356.049 185.718 350.192C184.409 345.84 186.211 342.449 190.261 340.13C194.361 337.78 198.928 337.048 203.537 336.605C206.583 336.297 209.643 336.162 212.705 336.2Z" fill="#840094"/>
<path d="M193.224 189.215C188.881 188.53 183.979 187.846 179.117 186.946C178.631 186.853 178.173 186.65 177.778 186.352C177.383 186.054 177.061 185.67 176.838 185.229C176.614 184.787 176.495 184.301 176.489 183.806C176.482 183.311 176.589 182.822 176.802 182.375C180.381 173.642 184.005 164.93 187.674 156.239C187.838 155.807 188.09 155.413 188.414 155.083C188.737 154.753 189.126 154.493 189.555 154.32C189.983 154.147 190.443 154.064 190.906 154.077C191.368 154.09 191.822 154.198 192.241 154.395C192.679 154.579 193.075 154.851 193.403 155.195C193.731 155.539 193.984 155.948 194.147 156.394C194.31 156.841 194.379 157.316 194.349 157.791C194.319 158.265 194.191 158.728 193.974 159.151C191.186 165.927 188.39 172.702 185.51 179.439C184.982 180.673 185.137 181.006 186.461 181.168C189.161 181.497 191.855 181.937 194.534 182.431C194.978 182.484 195.407 182.627 195.794 182.852C196.181 183.076 196.518 183.377 196.784 183.737C197.05 184.096 197.241 184.507 197.343 184.942C197.445 185.378 197.457 185.83 197.378 186.27C197.199 188.067 195.757 189.249 193.224 189.215Z" fill="#2B1149"/>
<path d="M192.414 214.636C187.721 214.762 183.07 213.716 178.883 211.593C178.236 211.272 177.635 210.868 177.092 210.393C176.502 209.835 176.129 209.087 176.037 208.28C175.944 207.473 176.139 206.66 176.588 205.983C177.036 205.307 177.708 204.809 178.487 204.579C179.265 204.349 180.1 204.401 180.844 204.726C188.984 209.336 197.244 207.969 205.55 205.369C206.185 205.169 206.797 204.894 207.43 204.691C208.292 204.347 209.256 204.358 210.11 204.723C210.964 205.087 211.64 205.774 211.989 206.635C212.169 207.077 212.256 207.551 212.242 208.028C212.229 208.506 212.116 208.975 211.91 209.406C211.705 209.836 211.412 210.22 211.05 210.531C210.688 210.842 210.265 211.074 209.808 211.212C204.279 213.445 198.376 214.607 192.414 214.636V214.636Z" fill="#2B1149"/>
<path d="M149.481 144.744C149.481 144.035 149.468 143.589 149.481 143.144C149.563 140.644 150.627 139.098 152.615 138.594C153.712 138.236 154.899 138.264 155.978 138.674C157.057 139.084 157.963 139.851 158.546 140.848C159.38 142.267 159.923 143.838 160.142 145.469C160.362 147.101 160.254 148.759 159.825 150.348C159.065 152.96 156.996 154.177 153.974 153.866C151.401 153.603 150.151 152.274 149.867 149.472C149.732 148.143 149.634 146.812 149.523 145.482C149.494 145.148 149.485 144.814 149.481 144.744Z" fill="#2B1149"/>
<path d="M221.339 151.061C218.262 151.079 217.23 150.405 216.713 147.337C216.273 144.72 215.679 142.047 216.352 139.371C216.952 136.984 218.028 136.018 220.126 135.789C221.171 135.625 222.241 135.793 223.186 136.269C224.131 136.744 224.904 137.504 225.395 138.441C226.465 140.961 227.387 143.541 226.828 146.423C226.153 149.895 224.91 151.04 221.339 151.061Z" fill="#2B1149"/>
<path d="M412.626 438.421C408.963 413.563 400.888 389.56 388.781 367.543C380.192 351.836 369.179 337.582 356.149 325.307C344.382 314.222 330.891 305.125 316.203 298.374C315.232 297.93 314.703 297.566 314.89 296.207C316.096 288.443 316.398 280.566 315.79 272.733C314.383 257.883 311.635 243.222 309.096 228.533C308.705 226.27 307.686 224.079 308.21 221.671C311.052 208.617 312.732 195.337 313.231 181.987C314.218 157.653 311.756 133.302 305.917 109.658C300.673 88.558 293.017 68.418 281.568 49.841C273.168 36.218 263.138 24.033 250.046 14.61C237.456 5.54704 223.534 0.393047 207.877 0.732046C196.187 0.821336 184.526 1.92143 173.026 4.02004C160.237 6.53404 148.426 11.235 138.226 19.567C130.815 25.7413 124.244 32.8599 118.683 40.7411C108.865 54.3411 98.8517 67.805 92.1187 83.379C85.7357 98.148 81.8897 113.325 82.7337 129.52C83.1017 136.559 84.8017 143.359 86.1637 150.228C89.0516 163.948 88.8747 178.136 85.6457 191.78C82.8457 203.28 77.8177 213.846 72.2207 224.18C67.5117 232.88 62.5207 241.423 58.3607 250.408C52.1227 263.874 48.5827 277.931 48.9927 292.857C49.3344 302.875 50.9984 312.803 53.9417 322.385C54.1031 322.786 54.1565 323.222 54.0967 323.65C54.0369 324.078 53.8658 324.483 53.6007 324.824C45.5658 336.109 38.5981 348.117 32.7877 360.692C17.1275 393.801 6.50058 429.064 1.25869 465.313C-0.244219 475.067 -0.152007 485 1.5317 494.724C6.1757 520.075 18.7067 540.672 38.9437 556.484C41.5637 558.531 44.2373 560.467 46.9647 562.291C47.0247 562.33 47.0847 562.372 47.1447 562.412C52.7804 566.2 58.7115 569.529 64.8807 572.366C76.3807 577.724 86.3537 580.422 91.4547 581.217C94.1237 581.632 97.7027 582.535 101.848 583.582C111.867 586.111 124.874 589.394 138.548 589.508C145.232 589.611 151.899 588.782 158.355 587.045C158.248 587.398 158.196 587.765 158.203 588.133C158.161 588.226 158.132 588.322 158.096 588.417C157.78 588.875 157.582 589.403 157.518 589.956C156.624 598.72 160.032 606.156 167.374 611.467C177.863 619.05 195.547 621.685 213.404 621.685C235.419 621.685 257.686 617.679 267.053 614.002C267.56 614.651 268.053 615.313 268.585 615.942C269.002 616.437 269.549 616.806 270.165 617.007C270.78 617.207 271.44 617.232 272.069 617.077L276.114 616.101C304.146 609.365 354.236 597.301 387.84 555.891C394.956 547.537 400.725 538.123 404.94 527.991C412.24 509.863 414.871 490.899 415.074 471.516C415.155 460.436 414.336 449.368 412.626 438.421V438.421ZM117.575 115.18C119.682 111.107 122.809 107.649 126.651 105.143C132.13 101.282 138.235 98.5651 144.214 95.6251C152.114 91.7381 159.868 87.6401 166.205 81.3361C167.045 80.5001 167.662 78.79 168.744 79.021C169.68 79.221 170.344 80.744 171.109 81.701C179.094 91.711 187.146 101.667 196.309 110.642C206.497 120.616 217.749 129.011 231.344 133.85C239.055 136.597 247.164 138.064 255.349 138.193C255.849 138.203 256.349 138.268 256.849 138.293C259.481 138.448 259.449 138.45 259.817 141.02C261.016 148.888 261.704 156.825 261.878 164.781C261.995 177.84 260.683 190.654 255.318 202.767C250.534 213.567 242.784 221.649 232.676 227.643C222.632 233.597 212.025 237.969 200.429 239.748C179.112 243.018 161.49 236.623 147.924 219.648C139.38 208.96 133.624 196.797 129.177 183.964C124.323 169.579 120.939 154.739 119.077 139.672C118.102 132.333 117.44 124.967 117.092 117.572C117.043 116.746 117.209 115.922 117.575 115.18V115.18ZM179.419 510.262C182.61 508.251 185.89 506.291 189.169 504.434C194.662 501.322 200.357 498.384 206.097 495.704C206.863 495.346 209.997 494.26 213.021 493.212C216.305 492.073 220.31 490.683 223.839 489.361C221.542 494.249 218.225 498.589 214.112 502.089C212.324 503.635 211.783 505.116 212.435 506.714C212.627 507.216 212.95 507.658 213.37 507.993C213.791 508.329 214.293 508.545 214.826 508.621C215.411 508.97 216.087 509.139 216.768 509.107C233.842 508.224 250.773 505.521 267.274 501.043C268.094 500.812 268.956 500.77 269.795 500.919C270.269 501.229 270.647 501.667 270.884 502.182C271.121 502.697 271.207 503.269 271.134 503.831C271.024 506.236 270.226 508.56 268.834 510.524C263.688 518.478 256.615 524.289 248.361 528.753C239.209 533.702 229.321 536.391 219.13 538.078C208.511 539.677 197.816 540.712 187.088 541.178C185.788 541.255 185.357 540.892 185.272 539.6C184.755 529.702 182.729 519.941 179.262 510.656C179.228 510.567 179.201 510.475 179.181 510.382C179.263 510.348 179.342 510.307 179.419 510.262V510.262ZM261.956 608.106C253.835 610.448 245.523 612.068 237.117 612.948C229.181 613.888 221.197 614.355 213.207 614.348C203.876 614.287 193.015 613.618 182.483 610.348C177.858 609.077 173.568 606.807 169.915 603.699C168.279 602.263 166.971 600.492 166.08 598.506C165.189 596.52 164.735 594.366 164.749 592.189C164.718 591.802 164.789 591.415 164.955 591.064L214.055 583.564C214.537 583.487 214.997 583.31 215.406 583.043C215.814 582.776 216.162 582.426 216.427 582.016C217.696 580.842 217.796 578.992 216.406 577.087C215.511 575.813 214.823 574.405 214.367 572.916C213.629 570.47 212.653 568.103 211.453 565.848C211.173 565.503 211 565.084 210.955 564.642C210.91 564.2 210.994 563.755 211.198 563.36C211.395 563.197 211.626 563.079 211.874 563.014C212.122 562.949 212.381 562.939 212.633 562.985C226.043 565.025 239.338 567.766 252.462 571.197C252.533 584.092 256.085 596.728 262.744 607.771C262.5 607.924 262.234 608.038 261.956 608.109V608.106ZM390.994 539.676C388.149 544.122 385.034 548.389 381.666 552.452C381.362 552.811 381.056 553.169 380.748 553.525C380.316 554.035 379.879 554.535 379.44 555.035C378.419 556.181 377.38 557.314 376.323 558.435C358.929 576.819 337.541 588.901 314.023 597.561C301.023 602.351 287.636 605.836 274.169 609.024C273.82 609.162 273.433 609.169 273.08 609.045C272.726 608.921 272.429 608.674 272.243 608.348C266.815 600.979 263.035 592.529 261.16 583.57C259.285 574.612 259.359 565.355 261.376 556.428C261.511 555.724 261.846 555.074 262.341 554.556C279.164 547.325 294.959 537.906 309.318 526.542C317.179 520.319 324.475 513.414 331.124 505.909C331.637 505.331 332.148 504.752 332.65 504.165C333.152 503.578 333.656 502.991 334.145 502.399C335.265 501.052 336.359 499.686 337.428 498.299C337.549 498.142 337.666 497.983 337.786 497.825C342.933 491.11 347.414 483.909 351.165 476.325C354.943 468.708 357.877 460.7 359.916 452.445C360.654 449.427 361.086 446.333 361.631 443.268C362.052 440.895 361.174 439.549 358.769 438.78C356.975 438.628 355.802 439.658 354.745 440.904C354.745 441.004 354.731 441.111 354.727 441.216C354.567 441.531 354.457 441.868 354.4 442.216C352.165 456.915 346.953 471.002 339.083 483.616C338.969 483.755 338.853 483.893 338.743 484.035C338.321 484.78 337.861 485.5 337.41 486.225C335.758 488.757 334.02 491.261 332.147 493.725C331.489 494.572 330.823 495.412 330.147 496.246C329.995 496.434 329.847 496.623 329.692 496.813C325.66 501.781 321.3 506.475 316.643 510.862C309.009 518.018 300.793 524.525 292.079 530.317C291.743 530.511 291.393 530.681 291.034 530.827C289.153 532.301 287.154 533.616 285.056 534.758C276.53 540.07 267.539 544.596 258.194 548.281C257.399 548.569 256.715 549.098 256.238 549.795C255.795 550.204 255.467 550.721 255.285 551.295C254.112 555.184 253.304 559.174 252.87 563.213C252.389 563.374 251.867 563.356 251.398 563.164C239.115 560.011 226.679 557.488 214.139 555.606C212.653 555.322 211.118 555.451 209.7 555.977C208.282 556.503 207.035 557.407 206.094 558.591C205.724 558.956 205.387 559.352 205.086 559.775C204.129 561.133 203.577 562.734 203.494 564.393C203.411 566.051 203.8 567.7 204.617 569.146C205.65 571.013 206.488 572.982 207.117 575.022C207.334 575.674 207.564 576.334 207.817 577.007C207.612 577.097 207.394 577.156 207.172 577.182C194.685 579.053 182.202 580.945 169.723 582.859C169.578 582.877 169.433 582.884 169.288 582.88C175.305 580.036 183.344 576.147 186.222 569.772C186.492 569.141 186.689 568.48 186.81 567.804C187.221 566.371 187.414 564.883 187.38 563.392C187.335 558.663 187.024 553.94 186.451 549.245C186.4 548.995 186.419 548.736 186.507 548.497C193.322 548.138 198.836 547.766 204.051 547.312C216.092 546.267 230.191 544.507 243.482 539.373C253.422 535.533 267.103 528.073 275.816 514.34C278.089 510.76 280.131 504.886 278.409 500.117C277.921 498.748 277.117 497.514 276.06 496.516C275.004 495.519 273.726 494.786 272.332 494.377C272.207 494.337 272.072 494.321 271.943 494.285C271.184 493.982 270.394 493.763 269.588 493.633C267.31 493.524 265.03 493.806 262.848 494.467C251.242 497.543 239.416 499.716 227.476 500.967C226.986 501.02 226.484 501.045 225.908 501.067C228.074 498.298 229.911 495.286 231.382 492.092C231.979 490.802 232.177 489.362 231.95 487.958C231.723 486.554 231.081 485.25 230.108 484.214C229.144 483.186 227.893 482.471 226.518 482.162C224.827 481.56 222.976 481.587 221.303 482.237C208.496 486.56 195.879 491.297 184.275 498.376C184.078 498.478 183.875 498.566 183.666 498.639L176.542 502.961C176.261 503.132 176.004 503.338 175.627 503.187C172.613 501.968 169.6 503.156 166.59 503.232C160.879 503.373 155.19 503.901 149.457 503.508C145.418 503.232 141.365 503.163 137.335 502.708C128.994 501.92 120.756 500.281 112.749 497.817C106.799 496.066 101.031 493.748 95.5237 490.897C82.7317 483.873 73.5537 474.256 68.1407 462.142C67.7638 461.299 67.0675 460.64 66.2049 460.31C65.3423 459.98 64.384 460.006 63.5407 460.383C63.5157 460.394 63.4947 460.411 63.4707 460.422C61.0427 461.322 60.3707 463.122 61.5767 465.713C68.0897 479.67 78.6427 489.713 92.0417 496.92C92.3687 497.095 92.7047 497.247 93.0337 497.42C116.19 509.907 146.222 512.92 171.608 510.577C175.262 519.454 177.427 528.873 178.015 538.454C178.094 539.737 178.346 541.89 178.664 544.617C179.204 549.231 180.504 560.385 180.175 565.128C179.432 567.593 177.779 569.682 175.551 570.971C164.982 577.741 153.616 581.829 140.914 581.998C128.998 582.155 117.432 579.998 105.988 577.072C99.0337 575.295 91.8877 574.416 85.0037 572.363C76.9631 569.993 69.1665 566.863 61.7197 563.014C56.7825 560.404 52.0316 557.456 47.5007 554.191C23.4157 536.774 9.9897 513.228 7.6007 484.21C6.2487 467.782 14.7337 425.21 30.8007 385.065C50.5537 335.723 76.0647 303.212 102.634 293.523C112.648 289.87 120.021 288.978 129.355 287.853C135.555 287.105 142.58 286.253 151.671 284.448C154.607 283.875 157.408 282.751 159.926 281.134C164.369 284.996 169.531 287.944 175.116 289.807C179.607 291.58 184.307 292.77 189.101 293.349C192.078 293.708 195.073 293.896 198.072 293.912C205.767 293.817 213.449 293.238 221.072 292.178C221.891 292.083 222.649 291.7 223.211 291.097C223.773 290.494 224.103 289.711 224.141 288.887C224.179 288.064 223.923 287.254 223.419 286.602C222.914 285.95 222.194 285.498 221.388 285.328C220.602 284.382 219.166 283.957 217.218 284.214C208.28 285.388 199.327 286.488 190.282 285.757C185.922 285.443 181.616 284.597 177.462 283.237C173.109 281.541 169.133 279.003 165.762 275.77C169.072 271.256 171.278 266.029 172.201 260.508C173.136 255.463 173.488 250.327 173.25 245.201C189.061 249.556 204.469 247.407 219.645 241.778C224.272 240.03 228.751 237.911 233.038 235.443C233.557 235.143 234.101 234.896 234.457 234.713C234.499 235.95 234.549 237.185 234.607 238.419C234.585 253.39 237.12 281.095 255.707 286.406C260.115 287.666 264.125 288.786 267.859 289.828C283.513 294.199 293.859 297.086 308.397 303.193C350.597 320.917 382.469 358.383 398.146 408.693C413.162 456.881 410.284 509.52 390.993 539.679L390.994 539.676Z" fill="#2B1149"/>
</svg>
