<svg width="346" height="249" viewBox="0 0 346 249" fill="none" xmlns="http://www.w3.org/2000/svg">
<path d="M258.56 215.98C257.8 215.88 257.394 215.226 256.875 214.804C254.675 213.024 252.64 211.049 250.794 208.904C248.714 206.502 246.858 203.916 245.248 201.177C242.351 196.355 240.314 191.066 239.228 185.546C238.633 182.827 238.376 180.044 238.462 177.262C238.627 174.712 238.375 172.152 237.715 169.683C236.779 166.364 235.162 163.276 232.967 160.617C230.528 157.546 227.419 155.242 224.328 152.917C222.33 151.523 220.453 149.963 218.716 148.254C217.949 147.421 217.352 146.447 216.957 145.386C216.794 145.037 216.717 144.654 216.731 144.27C216.745 143.885 216.851 143.509 217.04 143.173C217.228 142.838 217.494 142.552 217.815 142.339C218.136 142.126 218.503 141.993 218.886 141.951C219.726 141.763 220.605 141.715 221.462 141.605C223.795 141.305 226.162 141.586 228.477 141.145C228.824 141.105 229.174 141.098 229.522 141.123C234.014 141.123 238.506 141.123 242.998 141.123C245.692 141.146 248.38 140.88 251.017 140.329C252.477 140.02 253.809 139.275 254.837 138.193C257.574 135.326 260.641 132.793 263.974 130.648C269.97 126.823 276.623 124.141 283.596 122.738C288.166 121.842 292.83 121.526 297.479 121.797C301.298 121.995 305.079 122.662 308.735 123.782C315.852 125.761 322.432 129.315 327.988 134.182C331.48 137.201 334.526 140.701 337.034 144.576C340.555 150.041 342.989 156.134 344.204 162.52C344.973 166.939 345.205 171.436 344.894 175.911C344.69 179.12 344.133 182.296 343.234 185.383C342.166 189.339 340.649 193.16 338.713 196.771C336.784 200.33 334.484 203.675 331.85 206.75C330.521 208.319 329.05 209.738 327.61 211.188C326.845 211.957 325.99 212.636 325.181 213.362C324.943 213.557 324.641 213.657 324.334 213.642C323.528 211.342 322.853 208.997 321.934 206.737C320.793 203.622 319.132 200.724 317.022 198.164C315.174 195.802 312.493 194.234 309.527 193.782C306.415 193.418 303.376 192.582 300.238 192.408C299.947 189.91 299.886 187.391 300.056 184.882C300.034 184.518 300.085 184.153 300.208 183.809C300.33 183.465 300.521 183.15 300.769 182.882C303.175 180.358 304.783 177.18 305.39 173.746C306.237 172.985 306.871 172.016 307.227 170.934C307.551 170.033 307.822 169.115 308.04 168.183C308.801 164.602 309.223 160.957 309.298 157.297C309.47 154.556 309.415 151.805 309.133 149.073C308.785 146.642 307.679 144.383 305.974 142.616C304.269 140.849 302.05 139.664 299.633 139.23C297.644 138.936 295.645 138.886 293.647 138.785C291.639 138.721 289.666 138.247 287.847 137.394C286.801 136.855 285.679 136.477 284.519 136.273C281.949 135.724 279.275 135.94 276.826 136.894C275.858 137.301 274.986 137.906 274.266 138.671C273.546 139.436 272.995 140.343 272.648 141.334C276.223 140.364 277.634 140.601 278.862 141.385C277.968 141.37 277.075 141.458 276.201 141.649C275.31 141.763 274.463 142.103 273.74 142.636C273.018 143.169 272.443 143.878 272.071 144.696C271.832 145.121 271.73 145.61 271.778 146.095C271.826 146.58 272.021 147.039 272.338 147.41C273.338 146.185 274.412 145.21 276.096 145.42C276.123 145.891 275.738 146.02 275.504 146.25C274.538 147.17 273.786 148.292 273.302 149.535C272.819 150.778 272.614 152.113 272.704 153.444C272.866 155.791 273.264 158.116 273.891 160.384C274.072 161.011 274.2 161.652 274.272 162.301C274.554 165.775 275.175 169.213 276.129 172.566C277.007 175.857 278.493 178.954 280.509 181.699C281.934 183.464 283.636 184.987 285.549 186.208C285.202 188.16 285.177 190.147 284.934 192.108C281.913 192.457 278.892 192.808 275.871 193.152C274.439 193.297 273.05 193.723 271.783 194.406C270.517 195.089 269.397 196.016 268.49 197.133C267.026 198.914 265.735 200.832 264.635 202.859C262.354 207.109 260.325 211.491 258.56 215.98V215.98Z" fill="white"/>
<path d="M21.479 223.065C20.124 222.691 19.2079 221.639 18.1419 220.841C15.8904 219.048 13.8109 217.049 11.93 214.87C9.86347 212.569 8.06951 210.037 6.58395 207.324C4.96569 204.486 3.62873 201.496 2.59201 198.398C1.63074 195.421 0.935651 192.365 0.514985 189.266C0.0839461 186.471 -0.0714563 183.641 0.0509959 180.816C0.202517 177.958 0.578049 175.116 1.17404 172.316C2.84172 164.626 6.28734 157.434 11.235 151.316C14.9322 146.728 19.4285 142.847 24.5069 139.859C29.7369 136.789 35.4685 134.668 41.437 133.594C45.4294 132.885 49.4983 132.71 53.537 133.072C60.1534 133.561 66.5904 135.45 72.422 138.614C75.2003 140.068 77.8038 141.833 80.182 143.877C81.22 144.795 82.195 145.791 83.313 146.633C84.1988 147.268 85.2151 147.697 86.2879 147.89C87.4796 148.145 88.6982 148.251 89.916 148.206C91.266 148.157 92.63 148.299 93.969 148.168C95.826 147.986 97.7029 148.068 99.5429 147.716C99.6281 147.696 99.7155 147.687 99.8029 147.689C101.767 147.823 103.703 147.274 105.662 147.412C107.714 147.555 109.733 147.104 111.785 147.127C113.185 147.142 114.545 147.436 115.943 147.448C116.208 147.457 116.468 147.52 116.706 147.634C116.945 147.748 117.158 147.911 117.331 148.111C117.504 148.311 117.633 148.546 117.711 148.799C117.789 149.052 117.814 149.318 117.784 149.581C117.709 151.035 117.093 152.409 116.056 153.432C114.448 155.147 112.722 156.747 110.89 158.22C107.126 161.339 103.552 164.663 101.135 169.001C99.6277 171.707 98.6924 174.694 98.3869 177.777C98.2709 178.904 98.1779 180.022 98.1529 181.153C98.1359 181.946 98.4779 182.679 98.4229 183.481C98.1152 191.209 95.9608 198.751 92.14 205.476C90.6074 208.261 88.8303 210.905 86.8299 213.376C85.9239 214.493 84.958 215.568 83.977 216.591C82.7699 218.011 81.3536 219.238 79.7769 220.232C78.5866 218.627 77.1687 217.203 75.568 216.007C73.7851 214.669 71.6284 213.923 69.4 213.873C67.7067 213.836 66.0144 213.982 64.352 214.306C63.6297 214.465 62.8829 214.477 62.1559 214.341C61.4288 214.206 60.7365 213.925 60.12 213.517C59.8767 213.38 59.6637 213.196 59.4934 212.975C59.3231 212.754 59.1992 212.501 59.129 212.231C58.597 210.264 57.977 208.322 57.421 206.362C57.272 205.834 57.121 205.362 56.521 205.202C56.271 203.714 56.506 202.202 56.315 200.712C56.615 200.552 56.934 200.406 57.229 200.229C59.6649 198.674 61.6936 196.559 63.146 194.061C63.2671 193.768 63.4843 193.524 63.7619 193.37C64.0396 193.217 64.3612 193.162 64.674 193.215C65.817 193.296 66.947 192.932 67.8275 192.198C68.708 191.465 69.2708 190.42 69.398 189.281C69.5543 188.487 69.5196 187.667 69.2968 186.889C69.0741 186.11 68.6698 185.396 68.117 184.805C67.9 184.569 67.5329 184.405 67.7309 183.943C67.9678 183.202 68.2651 182.483 68.62 181.791C69.5654 180.423 70.1685 178.848 70.3788 177.198C70.589 175.548 70.4001 173.872 69.828 172.311C69.506 171.411 69.183 170.511 68.844 169.611C67.834 166.685 66.472 163.892 64.7879 161.295C63.7221 159.638 62.2917 158.247 60.6059 157.228C57.6261 155.499 54.3431 154.356 50.9339 153.86C47.3707 153.386 43.7474 153.997 40.5371 155.615C37.3268 157.232 34.6788 159.779 32.9389 162.925C32.2839 164.155 31.713 165.428 31.23 166.735C29.8994 170.304 29.4955 174.152 30.056 177.92C30.3766 179.542 30.8508 181.13 31.472 182.663C31.797 183.568 31.787 183.586 30.954 183.999C30.2029 184.359 29.5505 184.897 29.0526 185.565C28.5546 186.232 28.226 187.011 28.0949 187.834C27.9158 188.657 27.9489 189.513 28.191 190.32C28.4331 191.128 28.8763 191.86 29.4791 192.449C30.0819 193.038 30.8244 193.465 31.6371 193.688C32.4497 193.912 33.3058 193.925 34.125 193.727C35.0723 193.409 35.9394 192.889 36.667 192.204C37.871 194.709 39.6042 196.922 41.747 198.692C42.0724 198.934 42.3303 199.255 42.4964 199.625C42.6625 199.995 42.7313 200.401 42.696 200.805C42.627 202.274 42.651 203.746 42.636 205.217C42.4206 205.321 42.2374 205.482 42.106 205.682C41.9747 205.882 41.9001 206.114 41.89 206.353C41.539 208.053 41.16 209.748 40.797 211.446C40.674 212.022 40.502 212.326 39.763 212.127C37.2809 211.532 34.6649 211.921 32.463 213.212C27.968 215.545 24.004 218.514 21.479 223.065ZM40.6419 153.654V153.675C41.1189 153.649 41.599 153.643 42.075 153.594C45.2669 153.187 48.4246 152.546 51.523 151.678C52.1559 151.519 52.768 151.286 53.347 150.985C53.702 150.816 54.0006 150.548 54.2071 150.214C54.4136 149.879 54.5191 149.492 54.511 149.099C54.5483 147.616 54.2864 146.141 53.7409 144.762C52.9755 142.651 51.4922 140.877 49.5505 139.75C47.6088 138.623 45.3324 138.214 43.12 138.596C40.8851 138.945 38.8395 140.055 37.3293 141.739C35.8192 143.423 34.9373 145.577 34.833 147.837C34.671 151.612 36.599 153.637 40.381 153.653L40.6419 153.654Z" fill="white"/>
<path d="M39.307 89.308C37.307 88.132 35.997 86.238 34.496 84.563C32.6326 82.4328 30.9934 80.1166 29.604 77.651C27.5088 74.0305 25.8471 70.176 24.6531 66.167C23.8083 63.3367 23.2061 60.4395 22.853 57.507C22.4763 54.5678 22.3808 51.5993 22.568 48.642C22.7766 44.825 23.3893 41.0408 24.396 37.353C25.6869 32.6416 27.6179 28.1296 30.135 23.943C32.4596 20.1049 35.2844 16.5932 38.535 13.5C42.6044 9.68196 47.3081 6.60252 52.4351 4.4C56.194 2.78235 60.1596 1.6956 64.218 1.17099C67.3215 0.746537 70.4649 0.697521 73.5801 1.025C77.038 1.36596 80.4491 2.07738 83.755 3.14701C88.7671 4.81451 93.4292 7.39082 97.5081 10.747C99.2002 12.0451 100.786 13.4767 102.249 15.028C104.951 17.9818 107.327 21.2177 109.337 24.68C110.796 27.3057 112.034 30.0486 113.037 32.88C114.155 36.1274 114.965 39.4728 115.455 42.872C115.982 46.4041 116.131 49.9823 115.9 53.546C115.719 57.1932 115.083 60.8036 114.006 64.293C113.479 66.009 113.547 67.8525 114.199 69.525C115.466 72.8634 117.005 76.0925 118.799 79.18C120.955 83.113 123.217 86.99 124.992 91.122C125.683 92.4781 126.264 93.8877 126.728 95.337C127.173 97.109 126.309 98.287 124.458 98.455C122.579 98.5627 120.704 98.1893 119.01 97.37C116.294 96.195 113.653 94.852 110.877 93.811C108.673 93.0115 106.39 92.446 104.067 92.124C101.868 91.863 99.6421 91.9586 97.474 92.407C97.0838 92.4488 96.6914 92.4652 96.2991 92.456C95.9564 91.8513 95.614 91.247 95.272 90.643C93.5701 87.5903 91.1556 84.9942 88.234 83.076C85.6682 81.3523 82.8364 80.0621 79.8521 79.257C79.1749 79.0935 78.5516 78.7571 78.0433 78.2807C77.535 77.8043 77.159 77.2042 76.952 76.539C76.2849 74.5124 75.944 72.3926 75.942 70.259C75.911 70.0058 75.9664 69.7494 76.0993 69.5316C76.2321 69.3138 76.4347 69.1472 76.6741 69.059C78.747 67.9207 80.4583 66.2228 81.613 64.159C83.1946 61.3502 84.2772 58.2886 84.813 55.11C85.1611 53.9883 85.2968 52.8115 85.213 51.64C88.4038 49.3952 90.8462 46.2432 92.2235 42.5931C93.6008 38.9429 93.8494 34.9631 92.937 31.17C92.3481 29.0741 91.4971 27.0608 90.4041 25.178C91.0451 24.263 91.014 24.118 90.067 23.546C88.739 21.6483 87.0577 20.0243 85.115 18.763C79.3654 14.8194 72.3148 13.2491 65.4351 14.38C59.5264 15.0838 54.0743 17.9096 50.093 22.332C48.3965 24.1322 47.0813 26.2567 46.2266 28.578C45.3718 30.8993 44.9951 33.3694 45.119 35.84C45.3249 40.1439 46.8596 44.2783 49.512 47.674C50.7905 49.5001 52.4228 51.0508 54.312 52.234C54.1572 52.689 54.112 53.1742 54.1801 53.65C54.2836 54.9523 54.4763 56.2461 54.757 57.522C55.0858 59.6857 55.925 61.74 57.2052 63.5151C58.4854 65.2901 60.1698 66.735 62.119 67.73C62.505 67.93 62.87 68.174 63.264 68.357C63.3565 68.381 63.4425 68.425 63.5161 68.4859C63.5897 68.5467 63.6489 68.623 63.6898 68.7093C63.7307 68.7956 63.7523 68.8898 63.7528 68.9853C63.7534 69.0808 63.7329 69.1752 63.693 69.262C63.427 70.4075 62.9887 71.506 62.3931 72.52C62.068 73.0872 61.6232 73.5767 61.0897 73.9546C60.5563 74.3325 59.947 74.5896 59.3041 74.708C57.5093 75.0577 55.6938 75.2914 53.869 75.408C50.5289 75.5744 47.3642 76.9541 44.969 79.288C43.2932 80.9487 41.9627 82.9247 41.0541 85.102C40.4441 86.487 39.888 87.905 39.307 89.308Z" fill="white"/>
<path d="M211.932 91.899C210.667 91.899 209.402 91.925 208.138 91.899C205.921 91.9344 203.719 92.2708 201.593 92.899C198.501 93.677 195.602 95.0051 192.587 95.9991C191.345 96.3949 190.069 96.6724 188.775 96.828C187.677 96.9425 186.576 96.6398 185.69 95.98C185.308 95.5851 185.065 95.0768 184.998 94.5317C184.93 93.9866 185.041 93.4343 185.315 92.958C186.156 91.137 187.14 89.3901 188.144 87.6581C190.851 82.9851 193.944 78.558 196.813 73.987C197.944 72.1754 198.949 70.2887 199.823 68.34C200.565 66.5121 200.706 64.495 200.223 62.582C199.822 60.5832 199.535 58.5633 199.362 56.532C199.187 54.8015 199.142 53.0603 199.227 51.323C199.441 47.2905 200.07 43.2908 201.103 39.3871C202.837 32.9836 205.801 26.9787 209.828 21.707C213.536 16.8501 218.127 12.7362 223.36 9.58105C227.661 7.00047 232.38 5.19187 237.304 4.23703C239.551 3.7393 241.843 3.47127 244.145 3.43704C246.624 3.35375 249.106 3.44431 251.573 3.70804C254.066 4.07386 256.529 4.6186 258.943 5.33804C264.081 6.9002 268.886 9.39996 273.114 12.711C275.458 14.5133 277.628 16.53 279.598 18.735C282.807 22.3536 285.492 26.4052 287.574 30.771C291.391 38.8302 293.111 47.7228 292.574 56.6241C292.341 60.4401 291.688 64.2188 290.628 67.892C289.66 71.3757 288.319 74.7449 286.628 77.941C284.978 81.0584 283 83.9907 280.728 86.688C279.653 88.0008 278.472 89.2232 277.197 90.343C276.997 89.812 276.797 89.284 276.613 88.75C275.759 86.281 274.934 83.802 274.054 81.343C273.053 78.1641 271.196 75.3221 268.687 73.1281C268.507 72.9746 268.374 72.7736 268.304 72.5481C268.233 72.3226 268.227 72.0817 268.287 71.853C268.443 70.4229 268.457 68.981 268.33 67.548C268.05 64.77 267.542 62.028 267.048 59.285C266.911 58.6449 266.901 57.9841 267.018 57.34C267.707 53.923 268 50.4381 267.892 46.954C267.797 41.7168 266.859 36.5289 265.114 31.59C263.588 26.8375 260.946 22.52 257.408 18.9991C256.036 17.589 254.386 16.4789 252.563 15.7387C250.74 14.9986 248.783 14.6446 246.816 14.699C244.768 14.7551 242.727 14.9461 240.704 15.271C237.048 15.8366 233.721 17.7061 231.336 20.534C229.645 22.5869 228.078 24.738 226.641 26.976C225.251 29.0892 224.176 31.3933 223.45 33.816C222.607 36.4899 222.441 39.331 222.965 42.085C223.322 43.6567 223.58 45.2491 223.738 46.853C223.909 50.2682 223.148 53.6656 221.538 56.682C220.529 58.661 219.454 60.606 218.41 62.566C217.155 64.8693 216.386 67.4061 216.152 70.0189C215.919 72.6316 216.225 75.2645 217.051 77.754C217.18 78.1147 217.227 78.5 217.186 78.881C217.145 79.262 217.019 79.6289 216.816 79.954C214.749 83.7419 213.111 87.7483 211.932 91.899V91.899Z" fill="white"/>
<path d="M211.932 91.903C213.11 87.7512 214.747 83.7438 216.813 79.955C217.016 79.6298 217.142 79.2629 217.183 78.8819C217.224 78.5009 217.177 78.1156 217.048 77.755C216.222 75.2647 215.916 72.6312 216.151 70.0179C216.385 67.4047 217.154 64.8675 218.41 62.564C219.454 60.603 220.529 58.659 221.538 56.68C223.149 53.6635 223.909 50.2661 223.738 46.851C223.58 45.2471 223.322 43.6546 222.965 42.083C222.441 39.3289 222.608 36.4879 223.45 33.814C224.176 31.3913 225.251 29.0872 226.641 26.974C228.078 24.7359 229.645 22.5848 231.336 20.532C233.721 17.704 237.048 15.8346 240.704 15.269C242.727 14.9441 244.768 14.753 246.816 14.697C248.783 14.6425 250.74 14.9966 252.563 15.7367C254.386 16.4768 256.036 17.5869 257.408 18.997C260.946 22.518 263.588 26.8356 265.114 31.588C266.859 36.5269 267.797 41.7147 267.892 46.952C268 50.436 267.707 53.9209 267.018 57.338C266.901 57.982 266.911 58.6428 267.048 59.283C267.543 62.027 268.048 64.768 268.33 67.546C268.457 68.9789 268.443 70.4209 268.287 71.851C268.227 72.0796 268.233 72.3205 268.304 72.546C268.374 72.7716 268.507 72.9725 268.687 73.126C271.196 75.32 273.053 78.162 274.054 81.341C274.934 83.8 275.759 86.2799 276.613 88.7479C276.798 89.2819 277.002 89.81 277.197 90.341C276.755 90.841 276.431 91.48 275.659 91.556C275.67 91.3841 275.657 91.2116 275.622 91.043C274.335 87.358 273.293 83.585 271.709 80.005C271.004 78.3169 269.995 76.7722 268.734 75.447C266.775 73.464 264.6 71.878 261.679 71.633C260.386 71.524 259.104 71.273 257.817 71.086C256.934 70.8701 256.074 70.5687 255.249 70.186C253.584 68.437 252.617 66.1385 252.531 63.725C252.537 62.7518 252.448 61.7804 252.263 60.825C248.625 62.9917 244.293 63.679 240.163 62.745C240.123 65.568 239.663 68.145 237.307 69.915L234.375 70.715C233.293 70.7042 232.212 70.7841 231.143 70.954C228.116 71.076 225.241 72.3113 223.069 74.423C220.873 76.5342 219.063 79.0145 217.724 81.751C216.176 84.8099 214.872 87.9865 213.824 91.251C213.696 91.631 213.735 92.151 213.167 92.26L211.932 91.903ZM239.572 30.085C238.753 30.9211 237.828 31.6466 236.82 32.243C235.52 32.943 234.199 33.61 232.883 34.283C231.98 34.718 231.149 35.2894 230.42 35.977C230.112 36.2507 229.875 36.594 229.727 36.9783C229.579 37.3627 229.526 37.7767 229.571 38.186C229.82 41.835 230.444 45.4488 231.433 48.97C232.301 52.3559 233.925 55.5012 236.183 58.17C237.337 59.4889 238.816 60.4824 240.474 61.0512C242.131 61.6201 243.909 61.7445 245.629 61.412C247.865 61.0441 250.009 60.2471 251.942 59.065C253.2 58.361 254.3 57.4064 255.174 56.2601C256.048 55.1138 256.677 53.8003 257.023 52.401C257.769 49.0802 257.856 45.6451 257.278 42.291C257.211 41.781 256.96 41.653 256.495 41.662C255.362 41.6637 254.235 41.515 253.141 41.22C249.689 40.2261 246.594 38.2632 244.223 35.564C242.588 33.871 241.133 32.024 239.572 30.085V30.085Z" fill="#2B1149"/>
<path d="M85.217 51.638C85.3009 52.8095 85.1652 53.9864 84.817 55.108C84.2811 58.2866 83.1985 61.3482 81.6171 64.157C80.4622 66.2208 78.7509 67.9186 76.6781 69.057C76.4387 69.1453 76.2361 69.3118 76.1033 69.5297C75.9704 69.7475 75.915 70.0038 75.946 70.257C75.9481 72.3906 76.289 74.5104 76.9561 76.537C77.163 77.2022 77.5391 77.8023 78.0474 78.2787C78.5557 78.7551 79.1789 79.0915 79.8561 79.255C82.8405 80.0601 85.6722 81.3504 88.238 83.074C91.1596 84.9923 93.5741 87.5884 95.276 90.641C95.62 91.245 95.9624 91.8494 96.3031 92.454C96.1321 92.77 95.784 92.754 95.51 92.845C93.5282 93.4991 91.6351 94.3963 89.874 95.516C86.2275 97.7473 82.1846 99.2535 77.967 99.952C71.2823 101.279 64.3836 101.07 57.7911 99.342C51.1987 97.6141 45.0847 94.412 39.91 89.977C39.6922 89.7685 39.4879 89.5463 39.2981 89.312C39.8781 87.912 40.438 86.495 41.045 85.103C41.9537 82.9257 43.2843 80.9497 44.9601 79.289C47.3554 76.9551 50.5198 75.5756 53.86 75.4091C55.6848 75.2925 57.5003 75.0587 59.295 74.709C59.938 74.5906 60.5473 74.3335 61.0808 73.9556C61.6143 73.5778 62.059 73.0882 62.384 72.5211C62.9797 71.5071 63.4181 70.4085 63.6841 69.263C63.724 69.1762 63.7443 69.0818 63.7438 68.9863C63.7432 68.8908 63.7218 68.7966 63.6809 68.7103C63.64 68.624 63.5807 68.5477 63.5071 68.4869C63.4335 68.426 63.3474 68.382 63.255 68.358C62.861 68.175 62.495 67.933 62.11 67.731C60.1607 66.736 58.4765 65.2912 57.1963 63.5161C55.9161 61.741 55.0769 59.6867 54.748 57.523C54.4675 56.247 54.2747 54.9534 54.171 53.651C54.1033 53.1748 54.149 52.6893 54.3041 52.234C54.6843 52.1117 55.091 52.0971 55.479 52.192C55.6972 52.5693 55.8044 53.0005 55.7881 53.436C55.7796 54.0909 55.8991 54.7411 56.14 55.35C57.0468 57.3303 58.1883 59.1943 59.54 60.902C60.884 62.502 61.734 62.664 63.64 61.722C65.2508 60.794 67.0546 60.2515 68.91 60.137C70.7655 60.0225 72.6224 60.3391 74.3351 61.062C75.8635 61.7191 77.5747 61.815 79.167 61.333C79.579 61.1949 80.0028 61.0945 80.433 61.033C80.7783 61.0068 81.1058 60.8688 81.3656 60.6398C81.6254 60.4108 81.8036 60.1033 81.873 59.764C82.6002 57.5785 83.1504 55.3379 83.5181 53.064C83.5157 52.4519 83.722 51.8572 84.103 51.378C84.494 51.317 84.8935 51.4102 85.217 51.638V51.638ZM65.417 69.348C65.108 70.5355 64.6872 71.691 64.16 72.799C63.7431 73.7143 63.1093 74.5142 62.3135 75.1293C61.5177 75.7444 60.5839 76.1562 59.593 76.329L56.6061 76.8441C56.6973 77.4466 56.9258 78.02 57.274 78.52C58.6199 80.8665 60.3852 82.946 62.4821 84.655C63.7283 85.7871 65.2384 86.5889 66.8743 86.9872C68.5102 87.3855 70.2198 87.3676 71.847 86.9351C73.8115 86.5271 75.67 85.716 77.3051 84.553C78.5411 83.7011 79.4763 82.4803 79.9771 81.065C79.7289 80.9422 79.4714 80.8392 79.207 80.757C78.3542 80.5595 77.5668 80.1452 76.9209 79.5543C76.275 78.9634 75.7925 78.2159 75.52 77.384C75.2408 76.6996 75.02 75.9927 74.86 75.2711C74.5153 73.5617 74.3273 71.8245 74.2981 70.0811C71.2691 70.6381 68.341 70.895 65.417 69.348ZM70.067 65.009C70.7985 65.054 71.5313 64.9436 72.217 64.6851C72.904 64.4181 73.172 64.036 72.989 63.551C72.77 62.967 72.284 62.9591 71.8 63.1071C70.7802 63.494 69.6539 63.494 68.634 63.1071C68.5387 63.0514 68.4319 63.0182 68.3218 63.0098C68.2117 63.0015 68.1012 63.0183 67.9985 63.059C67.8959 63.0996 67.8037 63.163 67.7291 63.2444C67.6546 63.3259 67.5995 63.4232 67.568 63.5291C67.4888 63.7351 67.4938 63.9641 67.5819 64.1665C67.67 64.3689 67.8342 64.5286 68.0391 64.611C68.6628 64.9336 69.3656 65.0717 70.0651 65.009H70.067Z" fill="#2B1149"/>
<path d="M197.571 187.437C197.571 192.146 197.637 196.856 197.557 201.564C197.401 210.764 197.357 219.959 197.303 229.157C197.282 232.857 197.196 236.564 197.133 240.267C197.116 242.163 196.376 243.982 195.065 245.352C193.754 246.722 191.97 247.541 190.076 247.641C185.724 247.815 181.365 247.841 177.009 247.918C170.125 248.033 163.239 248.088 156.357 248.256C153.221 248.333 150.084 248.341 146.951 248.45C145.918 248.481 144.889 248.307 143.923 247.937C142.957 247.568 142.075 247.011 141.326 246.299C140.577 245.586 139.977 244.732 139.56 243.786C139.143 242.84 138.918 241.821 138.898 240.787C138.798 233.428 138.42 226.073 138.16 218.716C137.893 211.273 137.631 203.829 137.372 196.386C137.202 191.597 137.028 186.807 136.85 182.018C136.626 176.143 136.378 170.268 136.163 164.392C136.023 160.561 135.937 156.729 135.802 152.898C135.612 147.498 135.395 142.103 135.202 136.706C135.058 135.312 135.238 133.904 135.728 132.592C136.287 131.157 137.272 129.927 138.55 129.069C139.829 128.211 141.34 127.765 142.88 127.792C146.58 127.692 150.289 127.708 153.994 127.661C160.53 127.579 167.068 127.537 173.603 127.381C177.481 127.289 181.359 127.299 185.236 127.215C186.936 127.179 188.636 127.169 190.336 127.138C191.371 127.124 192.399 127.318 193.358 127.708C194.317 128.099 195.188 128.678 195.919 129.411C196.65 130.144 197.226 131.017 197.614 131.977C198.001 132.937 198.192 133.966 198.174 135.001C198.017 141.101 198.113 147.209 198.003 153.311C197.884 159.937 197.903 166.564 197.835 173.19C197.784 177.94 197.699 182.69 197.629 187.439L197.571 187.437ZM196.816 137.267C196.865 136.005 196.794 134.741 196.605 133.492C196.281 132.158 196.144 132.023 194.861 132.352C192.922 132.852 190.983 133.352 189.05 133.868C179.803 136.352 170.558 138.839 161.314 141.33C154.338 143.206 147.362 145.081 140.385 146.954C139.544 147.18 138.71 147.429 137.877 147.684C137.492 147.802 137.107 147.976 137.131 148.466C137.216 150.244 136.881 152.055 137.403 153.798C138.478 157.385 139.603 160.957 140.712 164.534C142.258 169.526 143.788 174.523 145.357 179.507C148.064 188.107 150.784 196.702 153.518 205.292C153.837 206.298 153.848 206.271 154.891 206.218C156.181 206.116 157.468 206.442 158.553 207.145C159.639 207.849 160.462 208.89 160.896 210.109C161.192 211.114 161.297 212.165 161.204 213.209C161.155 213.443 161.181 213.686 161.278 213.904C161.375 214.123 161.539 214.305 161.745 214.425C164.512 215.993 167.27 217.575 170.02 219.172C170.48 219.439 170.746 219.314 170.959 218.885C171.114 218.572 171.279 218.265 171.433 217.952C174.533 211.652 177.72 205.399 180.761 199.071C183.48 193.411 186.356 187.826 189.136 182.195C190.197 179.947 191.456 177.798 192.896 175.772C193.825 174.509 194.759 173.251 195.696 171.997C196.065 171.621 196.292 171.128 196.337 170.603C196.313 169.338 196.504 168.081 196.52 166.826C196.646 156.972 196.427 147.117 196.815 137.266L196.816 137.267ZM139.669 221.43C139.819 221.573 139.983 221.703 140.157 221.816C140.436 221.936 140.724 222.036 141.012 222.135C143.806 223.117 146.501 224.361 149.062 225.85C152.017 227.529 154.888 229.34 157.742 231.176C162.026 233.932 166.242 236.797 170.402 239.731C173.463 241.886 176.545 244.011 179.729 245.986C180.167 246.268 180.68 246.413 181.201 246.402C183.99 246.375 186.78 246.402 189.567 246.335C190.975 246.317 192.335 245.822 193.424 244.93C194.514 244.039 195.27 242.805 195.567 241.429C196.029 239.411 195.701 237.349 195.785 235.31C195.805 234.835 195.45 234.634 195.085 234.464C194.138 234.023 193.167 233.629 192.245 233.143C186.892 230.32 181.584 227.416 176.32 224.43C171.515 221.697 166.704 218.973 161.888 216.259C160.529 215.49 160.523 215.487 159.46 216.546C158.912 217.108 158.255 217.554 157.53 217.855C156.804 218.156 156.025 218.308 155.24 218.3C154.388 218.31 153.544 218.136 152.766 217.791C151.987 217.446 151.292 216.938 150.727 216.3C149.909 215.434 149.899 215.461 148.927 216.031C147.536 216.844 146.127 217.631 144.74 218.442C143.09 219.402 141.453 220.376 139.668 221.43H139.669ZM177.431 246.63C176.931 245.74 176.245 245.591 175.721 245.23C172.259 242.812 168.799 240.389 165.299 238.03C159.885 234.374 154.45 230.749 148.806 227.448C146.305 225.939 143.659 224.686 140.906 223.708C140.556 223.589 140.206 223.365 139.756 223.608C139.8 225.692 139.882 227.774 139.941 229.858C140.041 233.427 140.258 236.993 140.301 240.564C140.273 241.439 140.427 242.311 140.752 243.124C141.078 243.937 141.568 244.674 142.192 245.289C142.815 245.904 143.56 246.383 144.377 246.696C145.195 247.009 146.069 247.15 146.944 247.109C148.857 247.103 150.771 246.998 152.681 246.941C158.34 246.773 164.004 246.906 169.665 246.656C172.181 246.541 174.702 246.633 177.43 246.633L177.431 246.63ZM137.468 159.967C137.429 161.216 137.48 162.467 137.621 163.709C137.759 166.185 137.659 168.667 137.876 171.148C138.084 173.53 137.921 175.93 138.131 178.325C138.348 180.792 138.188 183.281 138.396 185.763C138.606 188.276 138.439 190.808 138.66 193.332C138.872 195.758 138.706 198.202 138.921 200.64C139.136 203.078 139.067 205.511 139.159 207.947C139.283 211.209 139.459 214.472 139.503 217.738C139.499 218.086 139.533 218.433 139.603 218.774C139.703 219.221 139.961 219.474 140.451 219.188C140.638 219.077 140.822 218.961 141.01 218.851C143.343 217.492 145.642 216.07 148.025 214.805C148.445 214.644 148.795 214.342 149.015 213.95C149.236 213.558 149.312 213.102 149.231 212.66C149.116 211.613 149.291 210.555 149.738 209.601C150.185 208.647 150.886 207.835 151.764 207.253C152.008 207.111 152.185 206.878 152.258 206.606C152.331 206.333 152.293 206.043 152.153 205.798C151.662 204.448 151.231 203.075 150.8 201.704C148.045 192.941 145.293 184.176 142.546 175.409C140.986 170.423 139.451 165.43 137.9 160.442C137.841 160.249 137.801 160.011 137.467 159.97L137.468 159.967ZM196.295 174.117C194.66 175.879 193.236 177.825 192.052 179.917C190.582 182.539 189.306 185.258 187.99 187.959C184.1 195.95 180.138 203.906 176.2 211.873C174.964 214.373 173.7 216.861 172.474 219.364C172.052 220.222 172.101 220.334 172.92 220.804C174.733 221.843 176.548 222.877 178.367 223.904C179.647 224.623 179.705 224.594 180.405 223.238C182.024 220.104 183.591 216.938 185.221 213.813C188.4 207.713 191.403 201.513 194.628 195.432C195.813 193.316 196.404 190.919 196.336 188.495C196.193 183.705 196.294 178.91 196.294 174.119L196.295 174.117ZM137.095 146.202C137.175 146.23 137.26 146.243 137.345 146.238C137.429 146.234 137.512 146.213 137.589 146.176C144.558 144.291 151.528 142.406 158.497 140.521C160.011 140.111 160.034 140.072 159.589 138.583C158.728 135.706 157.833 132.84 156.989 129.957C156.964 129.81 156.911 129.669 156.831 129.543C156.752 129.417 156.647 129.308 156.525 129.223C156.403 129.138 156.265 129.078 156.119 129.047C155.973 129.016 155.823 129.014 155.676 129.042C152.713 129.094 149.747 129.042 146.784 129.104C145.131 129.032 143.475 129.099 141.833 129.304C140.382 129.546 139.064 130.292 138.109 131.411C137.154 132.529 136.623 133.948 136.611 135.419C136.54 138.863 136.966 142.291 136.911 145.733C136.898 145.82 136.908 145.91 136.94 145.992C136.971 146.075 137.023 146.148 137.091 146.205L137.095 146.202ZM196.095 196.602L195.824 196.548C195.046 197.993 194.245 199.425 193.495 200.884C191.443 204.872 189.486 208.908 187.383 212.872C185.383 216.641 183.597 220.522 181.546 224.267C180.989 225.285 181.004 225.309 181.983 225.861C186.153 228.217 190.355 230.513 194.671 232.591C194.971 232.735 195.251 232.998 195.712 232.838C196.11 220.781 196.044 208.694 196.091 196.609L196.095 196.602ZM158.403 129.212C158.514 129.706 158.589 130.174 158.725 130.623C159.458 133.037 160.199 135.448 160.946 137.856C161.546 139.772 161.066 139.776 163.414 139.156C169.923 137.428 176.431 135.695 182.938 133.956C186.716 132.948 190.494 131.939 194.272 130.928C194.483 130.872 194.729 130.856 194.821 130.633C194.951 130.319 194.678 130.15 194.488 130.005C193.379 129.071 191.978 128.555 190.528 128.547C186.353 128.647 182.178 128.621 178.001 128.734C171.913 128.898 165.818 128.873 159.727 129.05C159.277 129.004 158.823 129.062 158.399 129.219L158.403 129.212ZM159.721 212.249C159.745 211.646 159.645 211.044 159.427 210.482C159.209 209.919 158.878 209.407 158.455 208.977C158.031 208.547 157.524 208.208 156.965 207.982C156.405 207.756 155.805 207.647 155.202 207.662C154.6 207.66 154.004 207.779 153.448 208.012C152.893 208.245 152.391 208.587 151.971 209.019C151.551 209.45 151.222 209.962 151.004 210.523C150.786 211.085 150.683 211.684 150.702 212.286C150.713 213.471 151.187 214.605 152.023 215.446C152.859 216.287 153.99 216.767 155.175 216.786C155.773 216.795 156.367 216.684 156.922 216.46C157.476 216.236 157.98 215.903 158.403 215.48C158.827 215.058 159.161 214.555 159.387 214.001C159.613 213.447 159.725 212.853 159.717 212.255L159.721 212.249Z" fill="#2B1149"/>
<path d="M234.374 70.7141L237.306 69.9141C240.662 70.9451 243.954 72.2441 247.599 71.7631C250.19 71.4603 252.75 70.931 255.249 70.1811C256.074 70.5638 256.934 70.8652 257.817 71.0811C257.695 71.5468 257.704 72.0373 257.844 72.498C258.215 74.3727 258.601 76.2444 259.002 78.113C260.527 85.205 262.202 92.2641 263.619 99.3801C262.087 100.297 260.422 100.972 258.683 101.38C249.017 104.266 238.666 103.861 229.255 100.228C228.877 100.123 228.529 99.9307 228.24 99.6661C228.319 99.4631 228.385 99.2558 228.44 99.045C229.545 93.411 230.949 87.8451 232.185 82.2451C233.12 78.4433 233.851 74.5941 234.374 70.7141Z" fill="#19C9EA"/>
<path d="M78.379 221.274C78.094 221.974 77.4131 222.274 76.8611 222.66C71.2095 226.606 64.7958 229.328 58.031 230.652C55.9065 231.08 53.754 231.353 51.5901 231.471C50.2901 231.534 48.9961 231.72 47.6951 231.665C39.4026 231.471 31.2935 229.184 24.121 225.018C23.6361 224.814 23.2379 224.447 22.995 223.98C23.0552 223.819 23.125 223.661 23.204 223.508C25.983 218.789 30.2201 215.874 35.1891 213.9C36.5909 213.391 38.1171 213.336 39.552 213.742C42.2718 214.517 45.0332 215.137 47.823 215.601C50.9832 216.086 54.216 215.686 57.1631 214.447C57.4149 214.293 57.7098 214.225 58.0038 214.252C58.2977 214.279 58.575 214.401 58.7941 214.599C59.6479 215.247 60.6335 215.699 61.6814 215.923C62.7293 216.148 63.8137 216.14 64.858 215.899C65.5 215.783 66.146 215.689 66.792 215.593C68.4283 215.295 70.1124 215.396 71.7017 215.886C73.291 216.376 74.7388 217.242 75.923 218.41C76.8664 219.25 77.6925 220.214 78.379 221.274V221.274Z" fill="white"/>
<path d="M322.974 214.887C322.649 215.407 322.177 215.818 321.617 216.068C319.205 217.702 316.697 219.192 314.108 220.528C309.426 222.837 304.442 224.475 299.303 225.395C297.781 225.747 296.223 225.92 294.661 225.908C294.549 223.649 294.413 221.392 294.216 219.138C293.994 215.795 293.499 212.476 292.738 209.213C292.679 209.088 292.649 208.951 292.649 208.813C292.649 208.675 292.68 208.538 292.739 208.413C292.798 208.288 292.885 208.178 292.992 208.09C293.099 208.002 293.224 207.94 293.358 207.906C293.873 207.678 294.358 207.386 294.858 207.106C295.801 206.639 296.564 205.874 297.027 204.929C297.532 205.244 298.131 205.373 298.721 205.296C299.311 205.219 299.857 204.94 300.264 204.506C302.953 201.849 305.539 199.125 305.471 194.894C306.851 195.082 308.139 195.255 309.426 195.432C311.502 195.775 313.41 196.781 314.866 198.3C316.679 200.127 318.146 202.267 319.196 204.616C320.688 207.95 321.95 211.381 322.974 214.887V214.887Z" fill="white"/>
<path d="M283.503 225.896C280.963 225.641 278.448 225.18 275.983 224.518C270.812 223.152 265.885 220.986 261.383 218.098C260.877 217.774 260.306 217.498 260.075 216.876C261.581 212.791 263.354 208.809 265.381 204.956C266.61 202.598 268.056 200.361 269.701 198.272C272.386 194.872 276.129 194.604 280.114 194.447C279.881 194.965 279.714 195.316 279.563 195.67C279.283 196.264 279.137 196.913 279.137 197.57C279.137 198.227 279.283 198.876 279.563 199.47C280.626 201.726 282.149 203.736 284.034 205.37C284.286 205.648 284.629 205.828 285.001 205.878C285.373 205.928 285.751 205.845 286.068 205.644C286.377 206.114 286.732 206.553 287.127 206.953C287.437 207.227 287.687 207.562 287.863 207.936C288.04 208.31 288.138 208.717 288.153 209.13C288.244 210.124 288.206 211.125 288.04 212.109C287.296 215.672 286.204 219.154 284.78 222.504C284.261 223.597 283.833 224.732 283.503 225.896V225.896Z" fill="white"/>
<path d="M234.374 70.716C233.85 74.5948 233.118 78.4427 232.182 82.2431C230.946 87.8431 229.542 93.4131 228.437 99.0431C228.383 99.2538 228.316 99.4612 228.237 99.664C227.717 99.87 227.323 99.539 226.898 99.347C224.924 98.4599 223.059 97.3457 221.343 96.0271C218.905 94.2229 216.121 92.9408 213.165 92.261C213.735 92.155 213.696 91.633 213.824 91.252C214.872 87.9876 216.176 84.811 217.724 81.752C219.063 79.0156 220.873 76.5354 223.069 74.424C225.241 72.3124 228.116 71.0771 231.143 70.955C232.211 70.7853 233.292 70.7054 234.374 70.716Z" fill="white"/>
<path d="M263.619 99.3839C262.205 92.2669 260.526 85.2089 259.002 78.1169C258.602 76.2503 258.216 74.3786 257.844 72.502C257.704 72.0412 257.695 71.5507 257.817 71.085C259.104 71.272 260.385 71.523 261.679 71.632C264.6 71.877 266.779 73.4629 268.734 75.4459C269.996 76.771 271.004 78.3158 271.709 80.004C273.293 83.584 274.335 87.3569 275.622 91.0419C275.657 91.2105 275.669 91.383 275.659 91.5549C275.63 91.7483 275.563 91.9341 275.461 92.1013C275.36 92.2685 275.226 92.4138 275.068 92.5289C271.949 95.1481 268.51 97.3617 264.835 99.1169C264.452 99.2949 264.092 99.6039 263.619 99.3839Z" fill="white"/>
<path d="M286.066 205.643C285.749 205.844 285.371 205.927 284.999 205.877C284.627 205.827 284.284 205.647 284.032 205.369C282.147 203.735 280.624 201.725 279.561 199.469C279.281 198.875 279.135 198.226 279.135 197.569C279.135 196.912 279.281 196.263 279.561 195.669C279.717 195.315 279.879 194.964 280.112 194.446C276.127 194.603 272.383 194.868 269.699 198.271C268.054 200.36 266.608 202.597 265.379 204.955C263.352 208.808 261.579 212.79 260.073 216.875C259.373 216.913 259.002 216.38 258.557 215.975C260.321 211.485 262.349 207.103 264.63 202.852C265.73 200.825 267.02 198.907 268.485 197.126C269.392 196.009 270.511 195.082 271.778 194.399C273.044 193.716 274.433 193.29 275.865 193.145C278.887 192.804 281.907 192.445 284.929 192.101C285.496 192.586 285.892 193.24 286.06 193.967C286.27 194.519 286.594 195.021 287.01 195.441C287.427 195.86 287.926 196.188 288.477 196.402C290.537 197.213 292.624 197.694 294.752 196.596C294.906 196.516 295.072 196.46 295.233 196.396C297.075 195.8 298.644 194.565 299.656 192.915C299.801 192.697 300 192.52 300.234 192.401C303.372 192.573 306.411 193.411 309.523 193.775C312.489 194.227 315.17 195.794 317.018 198.157C319.128 200.717 320.79 203.615 321.931 206.73C322.85 208.991 323.525 211.335 324.331 213.635C324.119 214.314 323.506 214.557 322.971 214.884C321.947 211.382 320.686 207.953 319.195 204.623C318.145 202.274 316.678 200.134 314.865 198.307C313.409 196.788 311.501 195.782 309.425 195.439C308.137 195.262 306.85 195.088 305.47 194.901C305.538 199.132 302.952 201.857 300.263 204.513C299.856 204.947 299.31 205.226 298.72 205.303C298.13 205.38 297.531 205.251 297.026 204.936C295.583 202.836 293.52 201.307 291.926 199.348C291.575 198.915 291.291 199.035 290.926 199.237C289.432 200.07 288.199 201.303 287.367 202.798C286.839 203.704 286.517 204.701 286.066 205.643ZM293.608 198.843C295.124 200.203 296.528 201.682 297.808 203.265C298.251 203.854 298.565 203.826 299.208 203.204C300.388 202.112 301.446 200.895 302.365 199.576C302.969 198.724 303.398 197.761 303.627 196.743C304.097 194.43 303.983 194.285 301.642 194.233C301.206 194.224 300.813 194.186 300.496 194.624C299.119 196.318 297.263 197.559 295.171 198.184C294.616 198.313 294.088 198.537 293.609 198.846L293.608 198.843ZM288.99 198.463C286.054 197.123 285.953 197.029 284.434 194.319C284.329 194.131 284.245 193.928 284.007 193.865C283.627 193.811 283.239 193.86 282.883 194.006C282.528 194.151 282.217 194.389 281.984 194.694C281.647 195.25 281.354 195.834 281.063 196.417C280.882 196.768 280.785 197.156 280.781 197.55C280.776 197.945 280.864 198.335 281.037 198.69C281.978 200.683 283.305 202.468 284.943 203.942C285.772 201.784 287.171 199.892 288.991 198.466L288.99 198.463Z" fill="#2B1149"/>
<path d="M286.067 205.644C286.517 204.702 286.839 203.705 287.367 202.796C288.199 201.301 289.432 200.068 290.926 199.235C291.294 199.035 291.577 198.913 291.926 199.346C293.517 201.306 295.581 202.836 297.026 204.935C296.563 205.88 295.8 206.645 294.857 207.112C294.363 207.387 293.874 207.679 293.357 207.912C293.223 207.946 293.098 208.008 292.991 208.096C292.884 208.184 292.797 208.294 292.738 208.419C292.679 208.544 292.648 208.681 292.648 208.819C292.648 208.957 292.678 209.094 292.737 209.219C293.498 212.482 293.992 215.801 294.215 219.144C294.415 221.398 294.548 223.655 294.66 225.914C291.472 226.295 288.252 226.315 285.06 225.974C284.543 225.921 284.021 225.925 283.501 225.902C283.831 224.737 284.257 223.603 284.776 222.509C286.2 219.159 287.292 215.677 288.036 212.114C288.202 211.13 288.24 210.129 288.149 209.135C288.134 208.722 288.036 208.315 287.859 207.941C287.683 207.567 287.433 207.232 287.123 206.958C286.728 206.556 286.375 206.116 286.067 205.644V205.644Z" fill="#840094"/>
<path d="M78.3801 221.274C77.6935 220.212 76.8671 219.248 75.9231 218.407C74.7389 217.239 73.291 216.373 71.7017 215.883C70.1124 215.393 68.4285 215.292 66.7921 215.59C66.1471 215.69 65.5 215.78 64.858 215.896C63.8137 216.137 62.7294 216.145 61.6815 215.921C60.6336 215.696 59.6479 215.244 58.7941 214.596C58.575 214.398 58.2977 214.276 58.0038 214.249C57.7098 214.222 57.4149 214.29 57.1631 214.444C54.216 215.683 50.9833 216.083 47.8231 215.598C45.0333 215.134 42.2719 214.514 39.5521 213.739C38.1172 213.333 36.5909 213.388 35.1891 213.897C30.2191 215.871 25.9821 218.786 23.2041 223.505C23.125 223.658 23.0553 223.816 22.9951 223.977C22.6859 223.964 22.3849 223.873 22.12 223.713C21.8551 223.553 21.6347 223.329 21.4791 223.062C24.0051 218.51 27.969 215.542 32.462 213.195C34.6641 211.905 37.2801 211.516 39.7621 212.111C40.5011 212.311 40.673 212.006 40.796 211.43C41.158 209.73 41.537 208.037 41.889 206.337C41.8991 206.098 41.9739 205.866 42.1052 205.666C42.2366 205.466 42.4196 205.305 42.635 205.201L56.5211 205.185C57.1161 205.344 57.27 205.817 57.421 206.345C57.976 208.305 58.597 210.245 59.129 212.214C59.1992 212.484 59.3233 212.737 59.4935 212.958C59.6638 213.179 59.8769 213.363 60.1201 213.5C60.7366 213.908 61.4289 214.189 62.1559 214.324C62.8829 214.46 63.6298 214.448 64.3521 214.289C66.0144 213.965 67.7067 213.819 69.4 213.856C71.6284 213.906 73.7853 214.652 75.5681 215.99C77.1689 217.186 78.5867 218.61 79.7771 220.215C79.4695 220.739 78.9673 221.119 78.3801 221.274V221.274ZM48.775 214.089C48.95 212.149 48.72 210.37 48.739 208.589C48.76 206.689 48.6451 206.614 46.7661 206.818C46.3851 206.859 46.2131 207.01 46.1731 207.355C45.9558 209.214 45.7407 211.072 45.5281 212.931C45.4811 213.341 45.6061 213.572 46.0651 213.631C46.9211 213.747 47.77 213.916 48.77 214.089H48.775ZM52.65 206.953C52.0819 206.822 51.4968 206.781 50.916 206.831C50.457 206.8 50.3451 206.998 50.3671 207.46C50.4411 209.026 50.4731 210.596 50.4871 212.16C50.5051 214.4 50.487 214.366 52.733 213.968C53.383 213.853 53.4991 213.6 53.4221 213.027C53.1491 211.003 52.904 208.97 52.65 206.953ZM55.083 206.842C54.473 206.735 54.3331 207.004 54.4081 207.57C54.6351 209.284 54.8341 211.002 55.0171 212.722C55.0811 213.322 55.3171 213.49 55.8621 213.222C56.0931 213.107 56.3391 213.022 56.5701 212.904C57.4641 212.456 57.47 212.451 57.213 211.544C56.833 210.215 56.405 208.898 56.067 207.559C55.92 206.974 55.655 206.734 55.083 206.842ZM44.504 207.478C44.504 207.32 44.649 206.998 44.353 206.87C44.2322 206.82 44.1017 206.797 43.9709 206.803C43.8402 206.809 43.7124 206.845 43.597 206.907C43.383 207.025 43.3971 207.279 43.3521 207.474C43.0001 209.033 42.6771 210.598 42.3231 212.156C42.1091 213.098 42.9401 212.767 43.3071 212.963C43.7881 213.219 43.8911 212.833 43.9341 212.463C44.1221 210.824 44.308 209.196 44.504 207.478Z" fill="#2B1149"/>
<path d="M300.237 192.404C300.003 192.523 299.804 192.7 299.659 192.918C298.647 194.568 297.078 195.803 295.236 196.399C295.075 196.465 294.909 196.521 294.755 196.599C292.627 197.699 290.54 197.217 288.48 196.405C287.929 196.191 287.43 195.863 287.013 195.444C286.597 195.024 286.273 194.522 286.063 193.97C285.895 193.243 285.499 192.589 284.932 192.104C285.175 190.141 285.199 188.154 285.547 186.204C285.982 186.404 286.413 186.604 286.847 186.793C288.347 187.507 289.977 187.906 291.637 187.965C293.297 188.024 294.951 187.742 296.498 187.136C297.46 186.75 297.755 186.289 297.488 185.746C297.25 185.261 296.85 185.222 295.881 185.601C294.342 186.224 292.669 186.446 291.02 186.246C288.631 185.932 286.379 184.952 284.52 183.418C281.887 181.235 279.893 178.382 278.747 175.16C277.431 171.648 276.553 167.987 276.133 164.26C275.714 161.988 275.619 159.668 275.852 157.37C275.932 156.503 276.134 155.651 276.452 154.84C276.964 153.733 277.132 153.701 277.903 154.64C278.751 155.728 279.851 156.594 281.108 157.162C282.365 157.731 283.741 157.986 285.118 157.905C286.642 157.852 288.156 157.625 289.628 157.227C291.815 156.642 293.983 155.993 296.164 155.385C297.826 154.845 299.571 154.608 301.317 154.685C303.817 154.897 303.732 155.145 303.852 157.239C304.101 161.591 304.107 165.949 304.086 170.307C304.086 171.048 304.06 171.791 304.097 172.53C304.145 173.496 304.274 173.594 305.389 173.744C304.782 177.177 303.174 180.355 300.768 182.879C300.52 183.147 300.329 183.462 300.206 183.806C300.084 184.15 300.032 184.515 300.054 184.879C299.884 187.388 299.946 189.907 300.237 192.404V192.404ZM288.21 172.474C288.51 171.727 288.768 171.086 289.031 170.448C289.311 169.767 289.604 169.091 289.88 168.408C289.942 168.304 289.98 168.188 289.992 168.068C290.004 167.948 289.989 167.826 289.948 167.712C289.907 167.599 289.841 167.495 289.756 167.41C289.67 167.325 289.567 167.26 289.453 167.219C289.355 167.169 289.247 167.141 289.137 167.139C289.026 167.136 288.917 167.158 288.816 167.203C288.716 167.248 288.627 167.315 288.556 167.399C288.484 167.483 288.433 167.582 288.405 167.689C287.675 169.403 286.954 171.12 286.264 172.85C286.208 172.959 286.179 173.08 286.18 173.203C286.18 173.326 286.21 173.446 286.267 173.555C286.324 173.664 286.406 173.757 286.507 173.827C286.607 173.898 286.723 173.943 286.845 173.959C287.775 174.153 288.724 174.259 289.669 174.368C289.776 174.395 289.888 174.397 289.995 174.373C290.103 174.349 290.204 174.3 290.289 174.23C290.374 174.16 290.441 174.07 290.485 173.969C290.529 173.868 290.549 173.758 290.542 173.648C290.555 173.54 290.545 173.43 290.513 173.325C290.481 173.221 290.427 173.125 290.356 173.042C290.284 172.96 290.196 172.894 290.097 172.848C289.998 172.802 289.89 172.777 289.781 172.775C289.313 172.698 288.849 172.597 288.21 172.474ZM288.972 179.989C290.03 179.989 291.081 179.825 292.088 179.501C293.003 179.201 293.294 178.849 293.128 178.282C292.968 177.735 292.557 177.624 291.583 177.919C290.105 178.488 288.465 178.466 287.003 177.855C286.525 177.63 286.026 177.63 285.803 178.217C285.759 178.33 285.739 178.45 285.743 178.571C285.747 178.691 285.776 178.81 285.828 178.919C285.879 179.029 285.953 179.126 286.043 179.206C286.134 179.286 286.24 179.346 286.355 179.384C287.173 179.775 288.067 179.982 288.973 179.989H288.972ZM296.488 164.907C296.392 164.549 296.27 164.198 296.123 163.858C296.018 163.664 295.851 163.512 295.649 163.423C295.447 163.335 295.222 163.317 295.008 163.371C294.811 163.394 294.628 163.487 294.492 163.632C294.356 163.778 294.277 163.966 294.267 164.165C294.176 164.771 294.242 165.391 294.459 165.965C294.522 166.129 294.636 166.268 294.785 166.362C294.934 166.456 295.109 166.499 295.284 166.485C296.019 166.511 296.5 165.962 296.486 164.907H296.488ZM280.879 165.289C280.908 165.507 280.94 165.854 281.004 166.196C281.02 166.416 281.119 166.623 281.281 166.773C281.443 166.923 281.656 167.007 281.877 167.006C282.116 167.039 282.359 166.988 282.565 166.862C282.771 166.735 282.926 166.541 283.004 166.313C283.183 165.816 283.163 165.27 282.948 164.788C282.895 164.506 282.734 164.256 282.501 164.089C282.268 163.922 281.979 163.852 281.695 163.893C281.107 163.972 280.877 164.329 280.879 165.289Z" fill="#ECAA27"/>
<path d="M305.39 173.743C304.275 173.593 304.146 173.494 304.098 172.529C304.061 171.79 304.083 171.047 304.087 170.306C304.107 165.948 304.102 161.591 303.853 157.238C303.733 155.144 303.82 154.896 301.318 154.684C299.572 154.607 297.827 154.844 296.165 155.384C293.984 155.992 291.815 156.641 289.629 157.226C288.156 157.624 286.643 157.851 285.119 157.903C283.742 157.984 282.366 157.729 281.109 157.16C279.852 156.592 278.752 155.726 277.904 154.638C277.133 153.704 276.965 153.738 276.453 154.838C276.135 155.649 275.933 156.501 275.853 157.368C275.62 159.666 275.715 161.986 276.134 164.258C276.554 167.985 277.432 171.646 278.748 175.158C279.893 178.38 281.888 181.234 284.521 183.416C286.379 184.95 288.632 185.93 291.021 186.244C292.67 186.444 294.342 186.222 295.882 185.599C296.85 185.219 297.251 185.259 297.489 185.744C297.756 186.287 297.462 186.744 296.499 187.134C294.952 187.74 293.298 188.022 291.638 187.963C289.978 187.904 288.348 187.505 286.848 186.791C286.409 186.603 285.978 186.399 285.548 186.202C283.635 184.981 281.933 183.458 280.508 181.693C278.492 178.948 277.006 175.851 276.128 172.56C275.175 169.207 274.553 165.769 274.272 162.295C274.199 161.646 274.072 161.005 273.891 160.378C273.263 158.11 272.866 155.785 272.704 153.438C272.614 152.107 272.818 150.772 273.302 149.529C273.786 148.286 274.538 147.164 275.504 146.244C275.738 146.011 276.123 145.885 276.096 145.414C274.412 145.205 273.336 146.178 272.338 147.404C272.021 147.033 271.826 146.574 271.778 146.089C271.73 145.604 271.832 145.115 272.071 144.69C272.443 143.872 273.017 143.163 273.74 142.63C274.463 142.097 275.31 141.757 276.201 141.643C277.075 141.452 277.968 141.364 278.862 141.379C277.633 140.596 276.222 140.358 272.648 141.328C272.995 140.337 273.546 139.43 274.266 138.665C274.986 137.9 275.858 137.295 276.826 136.888C279.275 135.934 281.949 135.718 284.519 136.267C285.678 136.471 286.8 136.849 287.847 137.388C289.665 138.241 291.639 138.715 293.647 138.779C295.647 138.879 297.647 138.93 299.633 139.224C302.05 139.658 304.269 140.843 305.974 142.61C307.679 144.377 308.785 146.636 309.133 149.067C309.415 151.799 309.47 154.55 309.298 157.291C309.222 160.951 308.801 164.596 308.04 168.177C307.822 169.109 307.55 170.027 307.227 170.928C306.871 172.011 306.238 172.981 305.39 173.743Z" fill="#2B1149"/>
<path d="M36.6681 192.191C35.9405 192.876 35.0734 193.396 34.1261 193.714C33.3069 193.912 32.4507 193.899 31.638 193.675C30.8254 193.452 30.083 193.025 29.4802 192.436C28.8774 191.847 28.4342 191.115 28.1921 190.307C27.95 189.5 27.917 188.644 28.0961 187.821C28.2272 186.998 28.5558 186.22 29.0537 185.552C29.5516 184.884 30.204 184.346 30.9551 183.986C31.7881 183.573 31.798 183.555 31.473 182.65C30.8517 181.117 30.3775 179.529 30.057 177.907C29.4965 174.139 29.9005 170.291 31.2311 166.722C31.7141 165.415 32.285 164.142 32.94 162.912C34.68 159.767 37.3281 157.219 40.5383 155.602C43.7486 153.985 47.3718 153.373 50.935 153.847C54.3443 154.343 57.6272 155.486 60.607 157.215C62.2928 158.234 63.7233 159.625 64.789 161.282C66.4731 163.879 67.8351 166.672 68.8451 169.598C69.1841 170.498 69.507 171.398 69.829 172.298C70.401 173.859 70.59 175.535 70.3797 177.185C70.1695 178.835 69.5665 180.41 68.6211 181.778C68.2663 182.47 67.9689 183.189 67.732 183.93C67.532 184.387 67.901 184.556 68.118 184.792C68.6709 185.383 69.0752 186.097 69.298 186.876C69.5207 187.654 69.5554 188.474 69.399 189.268C69.2718 190.407 68.709 191.452 67.8285 192.185C66.948 192.919 65.818 193.283 64.675 193.202C64.3622 193.149 64.0405 193.204 63.7629 193.357C63.4853 193.511 63.2682 193.755 63.1471 194.048C61.6947 196.546 59.6658 198.661 57.23 200.216C56.93 200.393 56.621 200.538 56.316 200.699C54.6182 201.598 52.7499 202.129 50.833 202.258C48.9161 202.386 46.9937 202.109 45.191 201.445C45.0225 201.401 44.8582 201.341 44.7001 201.268C44.5209 201.181 44.3805 201.03 44.3065 200.845C44.2325 200.66 44.2302 200.455 44.3 200.268C44.3422 200.095 44.4501 199.945 44.6009 199.85C44.7518 199.755 44.9337 199.723 45.108 199.76C45.5354 199.834 45.9574 199.937 46.3711 200.067C48.5676 200.76 50.9159 200.815 53.1424 200.225C55.369 199.636 57.382 198.425 58.947 196.735C61.0247 194.669 62.6258 192.174 63.638 189.425C63.8737 188.989 63.9976 188.501 63.999 188.005C63.548 188.154 63.189 188.286 62.823 188.392C61.8587 188.67 60.8488 188.754 59.8519 188.638C58.855 188.523 57.891 188.211 57.0156 187.72C56.1403 187.229 55.3711 186.57 54.7527 185.779C54.1342 184.989 53.6789 184.084 53.4131 183.116C53.2541 182.496 53.4281 181.662 52.9341 181.293C52.3981 180.893 51.5861 181.198 50.8971 181.15C50.8101 181.144 50.722 181.159 50.636 181.15C49.957 181.062 49.619 181.305 49.52 182.036C49.3366 183.201 48.8948 184.31 48.2269 185.282C47.559 186.253 46.6821 187.063 45.6604 187.652C44.6387 188.241 43.4982 188.593 42.3225 188.684C41.1468 188.774 39.9658 188.6 38.8661 188.175C38.6001 188.075 38.344 187.843 37.966 188.088C37.9971 189.561 37.5408 191.004 36.6681 192.191V192.191ZM35.787 175.277C36.422 174.795 36.7871 174.494 37.1791 174.224C38.1585 173.548 39.2768 173.099 40.4523 172.911C41.6277 172.724 42.8302 172.802 43.9715 173.14C45.1129 173.478 46.164 174.067 47.0478 174.864C47.9317 175.661 48.6256 176.646 49.079 177.747C49.317 178.331 49.2031 179.194 49.8351 179.447C50.4726 179.583 51.1284 179.61 51.775 179.528C51.9488 179.515 52.1232 179.515 52.297 179.528C53.028 179.65 53.397 179.34 53.604 178.628C54.0851 177.167 55.0203 175.899 56.2731 175.007C56.6081 174.744 57.044 174.613 57.329 174.223C56.608 174.023 55.903 173.876 55.229 173.644C52.1653 172.699 49.4946 170.778 47.624 168.174C46.8377 166.971 45.969 165.823 45.024 164.74C44.8774 164.504 44.6775 164.306 44.4403 164.161C44.2031 164.017 43.9352 163.93 43.6583 163.908C43.3814 163.886 43.1033 163.929 42.8462 164.034C42.5891 164.139 42.3601 164.303 42.178 164.513C41.5019 165.063 40.9033 165.702 40.3981 166.413C39.2899 167.977 38.2648 169.598 37.327 171.269C36.6051 172.515 36.0852 173.868 35.787 175.277ZM47.963 180.845C47.9824 180.015 47.8362 179.189 47.5329 178.415C47.2297 177.642 46.7754 176.937 46.1966 176.341C45.6179 175.745 44.9262 175.271 44.1621 174.945C43.3979 174.62 42.5767 174.45 41.7461 174.445C40.0813 174.436 38.481 175.088 37.2972 176.259C36.1135 177.429 35.4433 179.022 35.4341 180.687C35.4248 182.352 36.0772 183.952 37.2478 185.136C38.4184 186.319 40.0112 186.99 41.676 186.999C42.4949 187.015 43.3087 186.868 44.07 186.566C44.8314 186.264 45.5249 185.813 46.1102 185.24C46.6955 184.668 47.1607 183.984 47.4789 183.229C47.797 182.474 47.9616 181.664 47.963 180.845V180.845ZM60.678 186.999C61.4516 187.012 62.2201 186.87 62.9385 186.583C63.6569 186.295 64.3109 185.868 64.8624 185.325C65.4139 184.782 65.8518 184.135 66.1506 183.421C66.4495 182.708 66.6032 181.942 66.603 181.168C66.6073 179.605 65.9938 178.104 64.8961 176.992C63.7984 175.88 62.3055 175.247 60.743 175.231C59.9657 175.218 59.1936 175.361 58.4721 175.651C57.7507 175.94 57.0945 176.371 56.542 176.918C55.9894 177.465 55.5518 178.117 55.2547 178.835C54.9577 179.554 54.8071 180.325 54.812 181.102C54.7924 181.879 54.9305 182.652 55.218 183.374C55.5055 184.097 55.9362 184.753 56.4845 185.304C57.0327 185.855 57.6869 186.29 58.4077 186.581C59.1284 186.872 59.9007 187.014 60.678 186.999V186.999ZM36.2671 188.539C36.2794 187.656 35.942 186.805 35.3286 186.17C34.7152 185.535 33.8756 185.169 32.993 185.151C32.0705 185.222 31.2097 185.642 30.5864 186.326C29.9631 187.01 29.6243 187.906 29.639 188.831C29.6369 189.713 29.9802 190.56 30.5953 191.192C31.2104 191.824 32.0485 192.19 32.93 192.211C33.8535 192.15 34.7174 191.734 35.3398 191.049C35.9623 190.364 36.2947 189.464 36.2671 188.539V188.539ZM64.6221 191.439C64.7513 191.524 64.8979 191.578 65.0511 191.598C65.2043 191.619 65.3602 191.604 65.5071 191.556C66.0017 191.396 66.4531 191.125 66.8266 190.764C67.2002 190.402 67.4859 189.96 67.6617 189.471C67.8376 188.982 67.8989 188.459 67.841 187.942C67.7832 187.426 67.6077 186.929 67.328 186.491C67.17 186.236 67.028 185.891 66.687 185.926C66.361 185.962 66.246 186.289 66.187 186.596C65.8256 188.258 65.3015 189.881 64.6221 191.44V191.439Z" fill="#2B1149"/>
<path d="M36.6681 192.192C37.542 191.004 37.999 189.561 37.968 188.087C38.349 187.842 38.605 188.076 38.868 188.174C39.9678 188.599 41.1488 188.773 42.3245 188.683C43.5001 188.592 44.6407 188.24 45.6624 187.651C46.684 187.062 47.561 186.252 48.2289 185.281C48.8968 184.309 49.3387 183.2 49.5221 182.035C49.6221 181.303 49.9591 181.061 50.6381 181.149C50.7241 181.16 50.812 181.149 50.899 181.149C51.589 181.197 52.399 180.89 52.937 181.292C53.431 181.661 53.257 182.492 53.416 183.115C53.6819 184.083 54.1372 184.988 54.7556 185.778C55.374 186.569 56.1433 187.228 57.0187 187.719C57.894 188.21 58.8581 188.522 59.855 188.637C60.8519 188.753 61.8618 188.669 62.826 188.391C63.193 188.285 63.5521 188.153 64.0021 188.004C64.001 188.5 63.8768 188.988 63.641 189.424C62.6288 192.173 61.0278 194.668 58.9501 196.734C57.3851 198.424 55.3719 199.635 53.1454 200.225C50.9188 200.814 48.5705 200.759 46.374 200.066C45.9603 199.936 45.5385 199.833 45.1111 199.759C44.9368 199.722 44.7549 199.754 44.604 199.849C44.4531 199.944 44.3451 200.094 44.303 200.267C44.2332 200.454 44.2356 200.659 44.3096 200.844C44.3835 201.029 44.5238 201.18 44.703 201.267C44.8608 201.34 45.0248 201.399 45.193 201.444C46.9957 202.108 48.9182 202.385 50.8351 202.257C52.752 202.128 54.6202 201.597 56.318 200.698C56.509 202.189 56.274 203.698 56.524 205.188L42.6381 205.204C42.6531 203.733 42.629 202.261 42.698 200.792C42.7331 200.388 42.6644 199.982 42.4983 199.612C42.3322 199.242 42.0743 198.921 41.749 198.679C39.6058 196.91 37.8723 194.697 36.6681 192.192V192.192ZM52.368 188.077C51.642 188.216 51.0921 188.32 50.5441 188.426C50.0561 188.52 49.7321 188.796 49.7891 189.314C49.8531 189.914 50.289 190.096 50.827 190.03C51.602 189.93 52.3761 189.824 53.1421 189.677C54.4511 189.427 54.6201 189.118 54.1281 187.923C53.5181 186.439 52.8931 184.959 52.2721 183.479C52.1792 183.237 52.0678 183.004 51.9391 182.779C51.8364 182.609 51.6724 182.484 51.4808 182.431C51.2892 182.378 51.0846 182.401 50.9091 182.494C50.7417 182.554 50.6041 182.676 50.5251 182.835C50.4462 182.994 50.4322 183.178 50.4861 183.347C50.5715 183.683 50.6842 184.011 50.823 184.329C51.306 185.525 51.803 186.721 52.364 188.077H52.368ZM51.235 195.509C52.4438 195.476 53.6371 195.227 54.759 194.776C54.8658 194.75 54.966 194.702 55.0535 194.635C55.1409 194.569 55.2138 194.485 55.2673 194.389C55.3209 194.293 55.3541 194.187 55.3649 194.077C55.3757 193.968 55.3639 193.858 55.3301 193.753C55.1891 193.206 54.7591 193.153 54.2981 193.219C54.0872 193.269 53.8796 193.332 53.677 193.409C52.1123 193.991 50.3858 193.961 48.842 193.326C48.384 193.11 47.904 193.063 47.598 193.608C47.341 194.067 47.53 194.491 48.183 194.842C49.129 195.31 50.176 195.539 51.2311 195.506L51.235 195.509Z" fill="#ECAA27"/>
<path d="M40.642 153.654H40.381C36.6 153.634 34.671 151.613 34.834 147.837C34.9383 145.577 35.8203 143.423 37.3305 141.739C38.8406 140.055 40.8861 138.945 43.121 138.596C45.3335 138.214 47.6098 138.623 49.5515 139.75C51.4932 140.877 52.9766 142.651 53.7421 144.762C54.2876 146.141 54.5495 147.616 54.5121 149.099C54.5202 149.492 54.4146 149.879 54.2081 150.214C54.0017 150.548 53.703 150.816 53.348 150.985C52.769 151.286 52.1569 151.519 51.5241 151.678C48.4257 152.546 45.2679 153.186 42.0761 153.594C41.6011 153.643 41.1211 153.649 40.6431 153.675L40.642 153.654Z" fill="#2B1149"/>
<path d="M55.489 52.189C55.101 52.0941 54.6944 52.1087 54.3141 52.231C52.4248 51.0483 50.7925 49.4979 49.5141 47.672C46.8616 44.2763 45.3269 40.142 45.1211 35.838C44.9971 33.3675 45.3736 30.8973 46.2284 28.576C47.0832 26.2547 48.3985 24.1301 50.0951 22.33C54.0763 17.9075 59.5283 15.0817 65.437 14.378C72.3168 13.247 79.3676 14.8173 85.1171 18.761C87.0595 20.0226 88.7408 21.6465 90.0691 23.544C89.2881 23.515 88.5071 23.469 87.7251 23.459C83.1001 23.4104 78.5115 24.2802 74.2251 26.018C71.1522 27.2618 68.3151 29.0229 65.8371 31.225C65.5583 31.3973 65.348 31.6609 65.2418 31.9709C65.1357 32.2809 65.1404 32.6181 65.255 32.925C65.067 33.106 64.8731 33.281 64.6941 33.471C61.1459 37.2672 58.5235 41.8324 57.032 46.81C56.479 48.592 56.002 50.397 55.489 52.189Z" fill="#A058FF"/>
<path d="M85.217 51.638C84.8958 51.4082 84.4978 51.3121 84.1071 51.37C84.3155 48.882 83.7691 46.3888 82.5391 44.216C81.0227 41.4579 78.9252 39.062 76.392 37.194C73.5709 34.9878 70.2681 33.4801 66.7531 32.794C66.8939 32.5235 67.1049 32.2959 67.364 32.135C71.856 28.4239 77.3213 26.0842 83.1071 25.3951C85.5316 25.141 87.9715 25.0668 90.407 25.173C91.4999 27.0559 92.351 29.0692 92.9401 31.165C93.8532 34.9585 93.6051 38.9389 92.2279 42.5896C90.8507 46.2403 88.4082 49.3928 85.217 51.638V51.638Z" fill="#A058FF"/>
<path d="M90.408 25.177C87.9725 25.0708 85.5326 25.145 83.1081 25.399C77.3223 26.0882 71.8571 28.428 67.365 32.139C67.1056 32.2998 66.8942 32.5274 66.7531 32.798C66.5457 32.966 66.2928 33.0682 66.0269 33.0913C65.761 33.1145 65.4943 33.0576 65.261 32.928C65.1464 32.6211 65.1417 32.2839 65.2478 31.9739C65.354 31.6639 65.5643 31.4003 65.8431 31.228C68.3208 29.026 71.1574 27.2649 74.23 26.021C78.5164 24.2832 83.105 23.4134 87.73 23.462C88.512 23.472 89.293 23.518 90.074 23.547C91.019 24.118 91.049 24.263 90.408 25.177Z" fill="#2B1149"/>
<path d="M239.572 30.085C241.133 32.023 242.588 33.872 244.223 35.564C246.593 38.2632 249.688 40.226 253.14 41.2199C254.233 41.515 255.361 41.6637 256.494 41.662C256.958 41.653 257.21 41.781 257.277 42.291C257.855 45.6451 257.768 49.0802 257.022 52.4009C256.676 53.8003 256.047 55.1137 255.173 56.26C254.299 57.4063 253.199 58.3609 251.941 59.0649C250.008 60.2471 247.864 61.0441 245.628 61.412C243.907 61.7445 242.13 61.6201 240.472 61.0512C238.815 60.4824 237.336 59.4889 236.182 58.17C233.924 55.5012 232.3 52.3559 231.432 48.9699C230.443 45.4487 229.819 41.835 229.57 38.1859C229.525 37.7767 229.578 37.3627 229.726 36.9784C229.874 36.5941 230.111 36.2507 230.419 35.977C231.148 35.2894 231.979 34.7181 232.882 34.283C234.198 33.61 235.515 32.938 236.819 32.243C237.827 31.6467 238.752 30.9212 239.572 30.085V30.085ZM244.332 51.7849C244.853 51.8009 245.2 51.5789 245.266 51.1339C245.293 51.0273 245.297 50.9161 245.278 50.8078C245.259 50.6994 245.217 50.5964 245.155 50.5053C245.093 50.4143 245.013 50.3373 244.919 50.2795C244.826 50.2217 244.721 50.1844 244.612 50.17C244.359 50.109 244.098 50.083 243.841 50.037C242.979 49.882 242.964 49.875 243.297 49.043C243.733 47.953 244.208 46.878 244.643 45.788C244.691 45.6886 244.718 45.5801 244.721 45.4696C244.725 45.3591 244.705 45.2492 244.662 45.1471C244.62 45.045 244.556 44.9532 244.475 44.8776C244.394 44.8021 244.299 44.7446 244.194 44.709C244.098 44.6545 243.99 44.6227 243.88 44.6159C243.769 44.6092 243.659 44.6277 243.557 44.67C243.455 44.7123 243.364 44.7773 243.29 44.8601C243.217 44.943 243.163 45.0414 243.134 45.1479C242.419 46.8279 241.698 48.5069 241.044 50.2119C240.804 50.8389 241.057 51.2119 241.72 51.3499C242.571 51.5259 243.436 51.636 244.332 51.782V51.7849ZM244.213 56.8C245.395 56.7542 246.561 56.5059 247.66 56.0659C247.763 56.0281 247.858 55.9694 247.937 55.8934C248.017 55.8175 248.08 55.7259 248.123 55.6245C248.165 55.523 248.186 55.4138 248.185 55.3038C248.183 55.1938 248.159 55.0852 248.114 54.985C248.084 54.8906 248.036 54.8033 247.971 54.7283C247.907 54.6533 247.827 54.5923 247.739 54.5488C247.65 54.5053 247.553 54.4803 247.454 54.4753C247.355 54.4704 247.257 54.4856 247.164 54.52C246.826 54.587 246.502 54.7249 246.164 54.8199C244.876 55.2484 243.478 55.1998 242.223 54.683C241.535 54.383 241.1 54.5129 240.901 54.9829C240.711 55.4359 240.941 55.8749 241.584 56.2079C242.412 56.5772 243.306 56.7774 244.213 56.797V56.8ZM235.784 43.112C235.802 43.371 235.804 43.6319 235.84 43.8889C235.843 44.009 235.871 44.1271 235.921 44.2364C235.971 44.3456 236.042 44.4438 236.131 44.525C236.219 44.6063 236.323 44.669 236.436 44.7095C236.549 44.7501 236.669 44.7675 236.789 44.761C237.031 44.7788 237.271 44.7088 237.465 44.5638C237.659 44.4189 237.794 44.2087 237.846 43.972C237.933 43.6571 237.95 43.3271 237.897 43.0049C237.843 42.6827 237.721 42.376 237.537 42.106C237.417 41.921 237.24 41.7812 237.032 41.7087C236.824 41.6363 236.597 41.6353 236.389 41.706C236.198 41.7569 236.032 41.8747 235.921 42.0379C235.81 42.2011 235.761 42.3987 235.783 42.5949C235.78 42.7629 235.784 42.9359 235.785 43.1089L235.784 43.112ZM250.997 42.8499C250.986 42.407 250.855 41.9752 250.618 41.601C250.503 41.4132 250.328 41.2697 250.122 41.1938C249.915 41.118 249.689 41.1141 249.48 41.183C249.287 41.226 249.117 41.3396 249.004 41.5015C248.89 41.6634 248.841 41.8619 248.867 42.058C248.867 42.404 248.86 42.7519 248.891 43.0959C248.968 43.9389 249.315 44.296 249.972 44.239C250.602 44.183 250.971 43.72 250.998 42.847L250.997 42.8499Z" fill="white"/>
<path d="M255.249 70.1871C252.75 70.937 250.19 71.4664 247.599 71.769C243.955 72.25 240.662 70.951 237.306 69.92C239.663 68.146 240.122 65.5731 240.162 62.7501C244.292 63.6841 248.624 62.9968 252.262 60.8301C252.447 61.7855 252.536 62.7569 252.53 63.73C252.617 66.1423 253.584 68.4393 255.249 70.1871V70.1871Z" fill="white"/>
<path d="M65.2611 32.927C65.4944 33.0566 65.7611 33.1135 66.027 33.0903C66.2928 33.0671 66.5457 32.965 66.7531 32.797C70.2681 33.483 73.571 34.9907 76.3921 37.197C78.9255 39.0648 81.0228 41.4608 82.5391 44.219C83.7695 46.3916 84.3163 48.8848 84.108 51.373C83.7267 51.852 83.5204 52.4468 83.5231 53.059C83.1554 55.3328 82.6052 57.5734 81.8781 59.759C81.8086 60.0983 81.6304 60.4057 81.3706 60.6347C81.1108 60.8637 80.7835 61.0018 80.4381 61.028C80.0079 61.0894 79.5842 61.1899 79.1721 61.328C77.5799 61.8101 75.8684 61.7142 74.3401 61.057C72.6274 60.3342 70.7706 60.0176 68.9152 60.1321C67.0597 60.2466 65.2559 60.7891 63.645 61.717C61.739 62.659 60.889 62.501 59.545 60.897C58.1934 59.1892 57.0519 57.3252 56.145 55.345C55.9042 54.736 55.7847 54.0858 55.7931 53.431C55.8094 52.9955 55.7022 52.5642 55.484 52.187C55.998 50.394 56.4741 48.587 57.0331 46.811C58.5246 41.8334 61.1468 37.2682 64.6951 33.472C64.8791 33.284 65.0741 33.108 65.2611 32.927ZM70.4391 56.719C69.9141 56.819 69.4481 56.9 68.9851 56.991C68.8639 56.9991 68.7462 57.0358 68.6418 57.098C68.5375 57.1602 68.4493 57.2461 68.3845 57.3489C68.3197 57.4516 68.28 57.5682 68.2688 57.6892C68.2576 57.8102 68.2752 57.9321 68.3201 58.045C68.4491 58.569 68.868 58.677 69.343 58.602C70.072 58.488 70.8051 58.381 71.5271 58.229C72.5771 58.009 72.736 57.715 72.327 56.687C71.769 55.274 71.1771 53.873 70.5951 52.469C70.5138 52.2688 70.4133 52.0769 70.295 51.896C70.1964 51.7498 70.0499 51.6426 69.8806 51.5929C69.7114 51.5432 69.53 51.5542 69.368 51.624C69.1944 51.6662 69.0444 51.7754 68.9508 51.9276C68.8572 52.0799 68.8274 52.263 68.868 52.437C68.9604 52.8134 69.0841 53.1813 69.238 53.537C69.7187 54.5654 70.1195 55.6292 70.437 56.719H70.4391ZM77.708 48.233C77.721 48.5291 77.7508 48.8243 77.7971 49.117C77.8125 49.2912 77.8908 49.4537 78.0175 49.5743C78.1441 49.6949 78.3104 49.7651 78.4851 49.772C78.9211 49.798 79.36 49.818 79.613 49.349C79.7332 49.1196 79.8035 48.8673 79.8193 48.6088C79.8352 48.3503 79.7963 48.0914 79.7051 47.849C79.4501 47.049 79.092 46.738 78.457 46.814C77.892 46.884 77.704 47.205 77.708 48.236V48.233ZM61.2211 48.879C61.2247 49.114 61.2491 49.3483 61.2941 49.579C61.3288 49.7361 61.4016 49.8823 61.5062 50.0045C61.6109 50.1268 61.744 50.2214 61.8939 50.2799C62.0438 50.3384 62.2058 50.3591 62.3656 50.3401C62.5254 50.3212 62.6781 50.263 62.8101 50.171C63.034 49.9977 63.1987 49.7592 63.2812 49.4884C63.3638 49.2175 63.3603 48.9277 63.2711 48.659C63.1581 48.124 63.079 47.537 62.39 47.368C61.572 47.167 61.2101 47.566 61.2211 48.88V48.879Z" fill="white"/>
<path d="M65.415 69.348C68.341 70.895 71.269 70.638 74.295 70.081C74.3243 71.8245 74.5124 73.5617 74.8571 75.271C75.017 75.9927 75.2377 76.6996 75.517 77.384C75.7894 78.216 76.2719 78.9635 76.9178 79.5544C77.5637 80.1453 78.3511 80.5596 79.204 80.757C79.4684 80.8393 79.7258 80.9422 79.974 81.065C79.4731 82.4804 78.5375 83.7013 77.301 84.553C75.6661 85.7161 73.8076 86.5272 71.843 86.935C70.2158 87.3675 68.5062 87.3855 66.8702 86.9872C65.2343 86.5889 63.7243 85.7871 62.478 84.655C60.3812 82.946 58.6159 80.8665 57.27 78.52C56.9218 78.02 56.6933 77.4465 56.6021 76.844L59.589 76.329C60.5798 76.1562 61.5137 75.7444 62.3094 75.1293C63.1052 74.5142 63.739 73.7143 64.156 72.799C64.6837 71.691 65.1053 70.5355 65.415 69.348V69.348Z" fill="white"/>
<path d="M70.0649 65.01C69.3643 65.0726 68.6604 64.9338 68.036 64.61C67.8312 64.5275 67.6669 64.3679 67.5788 64.1655C67.4907 63.963 67.4857 63.7341 67.5649 63.528C67.5963 63.422 67.6514 63.3246 67.726 63.243C67.8007 63.1615 67.8929 63.098 67.9957 63.0573C68.0985 63.0166 68.2092 62.9999 68.3194 63.0083C68.4296 63.0168 68.5365 63.0501 68.6319 63.1059C69.6518 63.4929 70.7781 63.4929 71.7979 63.1059C72.2819 62.9579 72.7679 62.966 72.9869 63.55C73.1689 64.035 72.9009 64.4169 72.2149 64.6839C71.5293 64.9432 70.7966 65.0543 70.0649 65.01Z" fill="white"/>
<path d="M196.815 137.267C196.428 147.117 196.646 156.972 196.524 166.824C196.508 168.079 196.317 169.337 196.341 170.601C196.296 171.126 196.069 171.619 195.7 171.995C194.757 173.247 193.824 174.505 192.9 175.77C191.46 177.796 190.201 179.945 189.14 182.193C186.36 187.824 183.484 193.409 180.765 199.069C177.724 205.398 174.536 211.652 171.437 217.95C171.283 218.263 171.118 218.571 170.963 218.883C170.75 219.312 170.484 219.437 170.024 219.17C167.273 217.574 164.514 215.992 161.749 214.423C161.543 214.303 161.379 214.121 161.282 213.902C161.185 213.684 161.159 213.441 161.208 213.207C161.301 212.163 161.196 211.112 160.9 210.107C160.466 208.888 159.643 207.847 158.557 207.143C157.472 206.44 156.185 206.114 154.895 206.216C153.853 206.268 153.842 206.296 153.522 205.29C150.798 196.696 148.078 188.101 145.361 179.505C143.793 174.52 142.261 169.523 140.716 164.532C139.608 160.955 138.482 157.383 137.407 153.796C136.885 152.053 137.22 150.242 137.135 148.464C137.112 147.974 137.497 147.8 137.881 147.682C138.713 147.427 139.548 147.182 140.389 146.952C147.365 145.074 154.341 143.199 161.318 141.328C170.563 138.841 179.809 136.354 189.054 133.866C190.987 133.347 192.926 132.848 194.865 132.35C196.148 132.021 196.285 132.156 196.609 133.49C196.797 134.74 196.866 136.004 196.815 137.267V137.267ZM167.471 200.697C167.864 200.125 168.115 199.774 168.352 199.413C171.652 194.386 174.784 189.26 177.622 183.956C179.479 180.603 181.057 177.103 182.338 173.491C183.152 171.131 183.339 168.599 182.88 166.145C182.441 163.692 181.432 161.376 179.933 159.384C178.435 157.393 176.489 155.782 174.253 154.681C172.016 153.581 169.553 153.022 167.061 153.049C164.568 153.076 162.118 153.689 159.906 154.838C156.935 156.356 154.524 158.78 153.022 161.76C151.521 164.739 151.007 168.12 151.555 171.411C152.022 173.584 152.764 175.689 153.764 177.674C156.54 183.445 159.715 189.016 163.264 194.346C164.602 196.428 165.993 198.472 167.47 200.698L167.471 200.697Z" fill="#840094"/>
<path d="M139.668 221.431C141.453 220.378 143.09 219.403 144.735 218.444C146.126 217.632 147.535 216.844 148.922 216.033C149.897 215.464 149.907 215.433 150.722 216.302C151.287 216.94 151.982 217.448 152.761 217.793C153.539 218.139 154.383 218.312 155.235 218.302C156.02 218.31 156.799 218.158 157.525 217.857C158.25 217.556 158.907 217.11 159.455 216.548C160.518 215.489 160.524 215.492 161.883 216.261C166.694 218.983 171.505 221.707 176.315 224.432C181.576 227.424 186.884 230.328 192.24 233.145C193.162 233.632 194.133 234.025 195.08 234.466C195.445 234.636 195.801 234.836 195.78 235.312C195.695 237.352 196.024 239.412 195.562 241.431C195.265 242.807 194.509 244.041 193.419 244.933C192.329 245.824 190.97 246.319 189.562 246.337C186.774 246.402 183.984 246.377 181.196 246.404C180.675 246.415 180.162 246.27 179.724 245.988C176.54 244.013 173.458 241.888 170.397 239.733C166.232 236.8 162.021 233.933 157.737 231.178C154.883 229.342 152.012 227.531 149.057 225.852C146.496 224.363 143.801 223.12 141.007 222.137C140.72 222.037 140.431 221.937 140.152 221.818C139.979 221.704 139.817 221.575 139.668 221.431V221.431Z" fill="#840094"/>
<path d="M177.43 246.633C174.702 246.633 172.181 246.541 169.668 246.652C164.007 246.902 158.343 246.769 152.684 246.937C150.774 246.994 148.859 247.099 146.947 247.105C146.072 247.146 145.198 247.005 144.38 246.692C143.563 246.379 142.818 245.9 142.194 245.285C141.571 244.67 141.081 243.933 140.755 243.12C140.43 242.307 140.276 241.435 140.304 240.56C140.261 236.989 140.045 233.423 139.944 229.854C139.885 227.771 139.803 225.689 139.759 223.604C140.213 223.359 140.559 223.583 140.909 223.704C143.662 224.682 146.308 225.935 148.809 227.444C154.453 230.744 159.887 234.37 165.302 238.026C168.802 240.389 172.262 242.811 175.724 245.226C176.244 245.594 176.935 245.743 177.43 246.633Z" fill="#840094"/>
<path d="M137.467 159.97C137.801 160.011 137.841 160.251 137.901 160.445C139.452 165.433 140.987 170.427 142.547 175.412C145.29 184.18 148.041 192.945 150.8 201.707C151.232 203.078 151.662 204.451 152.153 205.801C152.294 206.046 152.332 206.336 152.259 206.609C152.186 206.882 152.008 207.115 151.764 207.257C150.886 207.839 150.185 208.651 149.738 209.605C149.291 210.559 149.116 211.617 149.231 212.664C149.312 213.106 149.236 213.562 149.015 213.954C148.795 214.346 148.445 214.648 148.025 214.809C145.642 216.074 143.343 217.496 141.01 218.855C140.822 218.965 140.638 219.081 140.451 219.192C139.961 219.482 139.707 219.225 139.603 218.778C139.533 218.437 139.499 218.09 139.503 217.742C139.461 214.476 139.283 211.213 139.159 207.951C139.067 205.515 139.135 203.068 138.921 200.644C138.707 198.22 138.872 195.761 138.66 193.336C138.439 190.811 138.606 188.279 138.396 185.767C138.188 183.285 138.348 180.797 138.131 178.329C137.921 175.934 138.084 173.534 137.876 171.152C137.659 168.671 137.759 166.189 137.621 163.713C137.479 162.471 137.428 161.22 137.467 159.97V159.97Z" fill="#840094"/>
<path d="M196.294 174.119C196.294 178.91 196.194 183.705 196.336 188.492C196.404 190.916 195.813 193.313 194.628 195.429C191.403 201.509 188.4 207.706 185.221 213.81C183.591 216.94 182.021 220.101 180.405 223.235C179.705 224.591 179.647 224.62 178.367 223.901C176.546 222.878 174.731 221.844 172.92 220.801C172.101 220.331 172.052 220.219 172.474 219.361C173.704 216.861 174.964 214.37 176.2 211.87C180.138 203.902 184.1 195.947 187.99 187.956C189.306 185.256 190.582 182.536 192.052 179.914C193.236 177.824 194.66 175.88 196.294 174.119V174.119Z" fill="#840094"/>
<path d="M137.09 146.205C137.022 146.149 136.969 146.076 136.937 145.994C136.905 145.912 136.894 145.823 136.906 145.736C136.963 142.294 136.538 138.866 136.606 135.422C136.618 133.951 137.149 132.532 138.104 131.414C139.059 130.295 140.377 129.549 141.828 129.307C143.47 129.102 145.126 129.035 146.779 129.107C149.742 129.049 152.707 129.097 155.671 129.045C155.817 129.017 155.968 129.019 156.114 129.05C156.259 129.081 156.397 129.141 156.52 129.226C156.642 129.311 156.746 129.42 156.825 129.546C156.905 129.672 156.959 129.813 156.983 129.96C157.824 132.843 158.72 135.709 159.583 138.586C160.028 140.075 160.005 140.114 158.491 140.524C151.523 142.413 144.554 144.298 137.583 146.179C137.429 146.253 137.251 146.262 137.09 146.205Z" fill="#840094"/>
<path d="M196.091 196.609C196.044 208.694 196.11 220.781 195.708 232.844C195.247 233.004 194.967 232.744 194.667 232.597C190.351 230.519 186.149 228.223 181.979 225.867C181.001 225.314 180.986 225.291 181.543 224.273C183.594 220.528 185.379 216.648 187.38 212.878C189.48 208.915 191.44 204.878 193.492 200.89C194.242 199.431 195.043 197.999 195.821 196.554L196.091 196.609Z" fill="#840094"/>
<path d="M158.399 129.219C158.822 129.062 159.275 129.005 159.724 129.051C165.814 128.874 171.91 128.899 177.998 128.735C182.175 128.623 186.35 128.646 190.525 128.548C191.975 128.556 193.376 129.072 194.485 130.006C194.675 130.151 194.948 130.32 194.818 130.634C194.726 130.857 194.479 130.872 194.269 130.929C190.49 131.936 186.712 132.946 182.935 133.957C176.427 135.694 169.919 137.427 163.411 139.157C161.063 139.78 161.541 139.777 160.944 137.857C160.194 135.449 159.454 133.038 158.723 130.624C158.585 130.181 158.507 129.712 158.399 129.219Z" fill="#840094"/>
<path d="M159.716 212.259C159.725 212.858 159.613 213.453 159.388 214.008C159.162 214.563 158.827 215.067 158.403 215.491C157.979 215.914 157.474 216.248 156.919 216.472C156.363 216.696 155.768 216.807 155.169 216.797C153.984 216.779 152.853 216.298 152.017 215.457C151.181 214.616 150.707 213.482 150.696 212.297C150.677 211.695 150.78 211.096 150.998 210.534C151.216 209.973 151.545 209.461 151.965 209.03C152.385 208.598 152.887 208.256 153.442 208.023C153.998 207.79 154.594 207.671 155.196 207.673C155.799 207.658 156.399 207.767 156.959 207.993C157.518 208.219 158.026 208.557 158.449 208.987C158.873 209.417 159.204 209.929 159.422 210.492C159.639 211.055 159.74 211.656 159.716 212.259Z" fill="#840094"/>
<path d="M293.609 198.851C294.091 198.543 294.622 198.321 295.18 198.194C297.273 197.569 299.129 196.329 300.506 194.634C300.824 194.196 301.216 194.234 301.652 194.243C303.992 194.295 304.106 194.443 303.637 196.752C303.408 197.77 302.979 198.733 302.375 199.585C301.456 200.904 300.398 202.121 299.218 203.213C298.571 203.835 298.257 203.863 297.818 203.274C296.535 201.69 295.128 200.211 293.609 198.851V198.851Z" fill="white"/>
<path d="M288.991 198.467C287.171 199.894 285.773 201.787 284.944 203.946C283.306 202.472 281.979 200.687 281.038 198.694C280.865 198.339 280.777 197.949 280.782 197.554C280.786 197.16 280.883 196.772 281.064 196.421C281.354 195.838 281.648 195.254 281.985 194.698C282.218 194.393 282.529 194.155 282.884 194.01C283.24 193.864 283.628 193.815 284.008 193.869C284.245 193.932 284.329 194.135 284.435 194.323C285.954 197.033 286.054 197.127 288.991 198.467Z" fill="white"/>
<path d="M48.7739 214.089C47.7689 213.917 46.9199 213.748 46.0639 213.635C45.6049 213.574 45.48 213.343 45.527 212.935C45.7423 211.076 45.9576 209.218 46.173 207.359C46.213 207.014 46.385 206.859 46.766 206.822C48.645 206.622 48.759 206.691 48.739 208.593C48.72 210.37 48.9489 212.149 48.7739 214.089Z" fill="white"/>
<path d="M52.6501 206.953C52.9041 208.97 53.1501 211.003 53.4211 213.031C53.4981 213.604 53.382 213.857 52.732 213.972C50.484 214.372 50.504 214.404 50.486 212.164C50.473 210.596 50.44 209.026 50.366 207.464C50.344 207.002 50.4561 206.804 50.9151 206.835C51.496 206.783 52.0814 206.823 52.6501 206.953V206.953Z" fill="white"/>
<path d="M55.083 206.842C55.654 206.734 55.9189 206.973 56.0669 207.557C56.4049 208.896 56.833 210.213 57.213 211.542C57.472 212.449 57.464 212.454 56.57 212.902C56.339 213.018 56.0929 213.102 55.8619 213.22C55.3189 213.491 55.081 213.32 55.017 212.72C54.834 211 54.635 209.282 54.408 207.568C54.333 207.003 54.473 206.735 55.083 206.842Z" fill="white"/>
<path d="M44.5041 207.48C44.3041 209.198 44.122 210.83 43.933 212.461C43.89 212.834 43.7871 213.22 43.3061 212.961C42.9401 212.761 42.1061 213.096 42.3221 212.154C42.6761 210.595 42.999 209.03 43.351 207.472C43.395 207.272 43.3831 207.024 43.5961 206.905C43.7114 206.843 43.8391 206.808 43.9699 206.801C44.1007 206.795 44.2313 206.818 44.3521 206.868C44.6491 206.997 44.4991 207.319 44.5041 207.48Z" fill="white"/>
<path d="M288.211 172.474C288.849 172.597 289.311 172.698 289.783 172.774C289.892 172.776 290 172.801 290.099 172.847C290.198 172.893 290.286 172.959 290.358 173.041C290.429 173.124 290.483 173.22 290.515 173.324C290.547 173.429 290.557 173.539 290.544 173.647C290.551 173.757 290.531 173.867 290.487 173.968C290.443 174.07 290.376 174.159 290.291 174.229C290.206 174.299 290.105 174.348 289.997 174.372C289.89 174.396 289.778 174.394 289.671 174.367C288.726 174.262 287.777 174.152 286.847 173.958C286.725 173.942 286.609 173.897 286.509 173.827C286.408 173.756 286.326 173.663 286.269 173.554C286.212 173.445 286.182 173.325 286.182 173.202C286.181 173.079 286.21 172.958 286.266 172.849C286.956 171.119 287.676 169.401 288.407 167.688C288.435 167.581 288.486 167.482 288.558 167.398C288.629 167.314 288.718 167.247 288.818 167.202C288.919 167.157 289.028 167.135 289.139 167.138C289.249 167.14 289.357 167.168 289.455 167.218C289.569 167.259 289.672 167.324 289.758 167.409C289.843 167.495 289.909 167.598 289.95 167.711C289.991 167.825 290.006 167.947 289.994 168.067C289.982 168.187 289.944 168.303 289.882 168.407C289.606 169.09 289.313 169.766 289.033 170.447C288.769 171.086 288.513 171.724 288.211 172.474Z" fill="#2B1149"/>
<path d="M288.973 179.989C288.068 179.981 287.176 179.774 286.359 179.383C286.244 179.346 286.138 179.285 286.048 179.205C285.957 179.125 285.883 179.028 285.832 178.918C285.78 178.809 285.751 178.691 285.747 178.57C285.743 178.449 285.763 178.329 285.807 178.216C286.026 177.63 286.525 177.63 287.007 177.854C288.469 178.465 290.109 178.488 291.587 177.918C292.561 177.623 292.972 177.734 293.132 178.281C293.298 178.848 293.007 179.199 292.092 179.5C291.084 179.824 290.032 179.989 288.973 179.989Z" fill="#2B1149"/>
<path d="M296.489 164.907C296.5 165.962 296.02 166.507 295.289 166.482C295.114 166.496 294.939 166.453 294.79 166.359C294.641 166.265 294.527 166.126 294.464 165.962C294.247 165.388 294.181 164.769 294.272 164.162C294.282 163.963 294.361 163.775 294.497 163.629C294.633 163.484 294.816 163.391 295.013 163.368C295.226 163.314 295.452 163.332 295.654 163.42C295.856 163.509 296.023 163.662 296.128 163.855C296.273 164.197 296.394 164.548 296.489 164.907V164.907Z" fill="#2B1149"/>
<path d="M280.879 165.289C280.879 164.328 281.107 163.971 281.694 163.889C281.978 163.848 282.267 163.918 282.5 164.085C282.733 164.252 282.894 164.502 282.947 164.784C283.162 165.266 283.182 165.812 283.003 166.309C282.925 166.537 282.77 166.731 282.564 166.858C282.358 166.984 282.115 167.035 281.876 167.002C281.655 167.003 281.442 166.92 281.28 166.769C281.118 166.619 281.019 166.413 281.003 166.192C280.94 165.854 280.908 165.507 280.879 165.289Z" fill="#2B1149"/>
<path d="M35.787 175.278C36.0855 173.872 36.6046 172.522 37.3251 171.278C38.263 169.607 39.288 167.986 40.396 166.422C40.9013 165.712 41.5 165.072 42.176 164.522C42.3582 164.312 42.587 164.148 42.8441 164.043C43.1012 163.938 43.3795 163.895 43.6564 163.917C43.9333 163.939 44.201 164.026 44.4382 164.17C44.6754 164.315 44.8755 164.513 45.0221 164.749C45.967 165.832 46.8358 166.98 47.6221 168.183C49.4927 170.787 52.1634 172.708 55.2271 173.653C55.9041 173.885 56.608 174.036 57.327 174.232C57.042 174.622 56.607 174.753 56.271 175.016C55.0182 175.908 54.0832 177.176 53.6021 178.637C53.3941 179.346 53.026 179.655 52.295 179.537C52.1213 179.525 51.9468 179.525 51.7731 179.537C51.1265 179.619 50.4705 179.592 49.833 179.456C49.201 179.203 49.315 178.339 49.077 177.756C48.6237 176.655 47.9297 175.67 47.0459 174.873C46.1621 174.076 45.1108 173.487 43.9695 173.149C42.8282 172.811 41.6257 172.733 40.4503 172.921C39.2749 173.108 38.1564 173.557 37.177 174.233C36.789 174.495 36.421 174.796 35.787 175.278Z" fill="#ECAA27"/>
<path d="M47.964 180.846C47.9627 181.665 47.7981 182.476 47.48 183.231C47.1618 183.986 46.6965 184.67 46.1111 185.243C45.5257 185.816 44.832 186.266 44.0705 186.568C43.309 186.87 42.4949 187.017 41.6759 187.001C40.0111 186.992 38.4183 186.321 37.2477 185.138C36.0771 183.954 35.4247 182.354 35.4339 180.689C35.4432 179.024 36.1135 177.431 37.2972 176.261C38.4809 175.09 40.0812 174.438 41.7459 174.447C42.5765 174.452 43.3979 174.622 44.1621 174.947C44.9263 175.272 45.618 175.747 46.1969 176.343C46.7757 176.938 47.23 177.643 47.5334 178.416C47.8368 179.19 47.9832 180.016 47.964 180.846V180.846ZM42.818 181.346C42.779 181.11 42.7549 180.846 42.6899 180.6C42.5109 179.918 42.069 179.538 41.527 179.608C40.871 179.693 40.762 180.232 40.646 180.739C40.5845 181.258 40.6807 181.783 40.922 182.246C41.102 182.721 41.5699 182.779 42.0219 182.686C42.5589 182.576 42.828 182.106 42.818 181.346Z" fill="#ECAA27"/>
<path d="M60.6779 186.999C59.9005 187.014 59.1279 186.872 58.4069 186.581C57.686 186.289 57.0316 185.855 56.4834 185.303C55.9351 184.752 55.5043 184.095 55.217 183.372C54.9297 182.65 54.7919 181.876 54.812 181.099C54.8071 180.322 54.9576 179.551 55.2547 178.833C55.5518 178.114 55.9894 177.462 56.5419 176.915C57.0945 176.368 57.7507 175.937 58.4721 175.648C59.1936 175.358 59.9657 175.215 60.743 175.228C62.3055 175.244 63.7984 175.877 64.8961 176.989C65.9938 178.101 66.6073 179.602 66.603 181.165C66.6035 181.939 66.4499 182.705 66.1512 183.419C65.8525 184.133 65.4146 184.781 64.8631 185.324C64.3116 185.867 63.6576 186.295 62.939 186.582C62.2205 186.87 61.4518 187.011 60.6779 186.999ZM60.986 181.065C60.997 180.155 60.819 179.865 60.243 179.814C59.604 179.762 59.2519 180.1 59.0889 180.935C59.052 181.103 59.0326 181.275 59.031 181.447C59.044 182.147 59.389 182.589 59.96 182.647C60.531 182.705 60.896 182.34 60.983 181.585C60.9939 181.412 60.995 181.238 60.986 181.065V181.065Z" fill="#ECAA27"/>
<path d="M36.27 188.539C36.2985 189.464 35.9669 190.364 35.345 191.05C34.7231 191.735 33.8595 192.153 32.936 192.214C32.0545 192.193 31.2165 191.827 30.6013 191.195C29.9862 190.563 29.6429 189.716 29.645 188.834C29.6298 187.909 29.968 187.013 30.5907 186.329C31.2134 185.645 32.0736 185.224 32.996 185.152C33.8783 185.17 34.7178 185.536 35.3312 186.171C35.9446 186.805 36.2821 187.657 36.27 188.539Z" fill="white"/>
<path d="M64.6221 191.44C65.3 189.881 65.8229 188.259 66.1831 186.598C66.2461 186.291 66.3621 185.964 66.6831 185.928C67.0251 185.89 67.1661 186.238 67.3251 186.493C67.6048 186.931 67.7802 187.428 67.838 187.944C67.8958 188.461 67.8343 188.984 67.6583 189.473C67.4824 189.962 67.1966 190.404 66.823 190.766C66.4494 191.127 65.9978 191.398 65.5031 191.558C65.3567 191.605 65.2017 191.619 65.0492 191.599C64.8967 191.579 64.7507 191.524 64.6221 191.44V191.44Z" fill="white"/>
<path d="M52.364 188.076C51.804 186.72 51.306 185.525 50.818 184.326C50.6792 184.008 50.5664 183.68 50.481 183.344C50.4271 183.175 50.4411 182.991 50.52 182.832C50.599 182.673 50.7367 182.551 50.9041 182.491C51.0797 182.398 51.2842 182.376 51.4757 182.429C51.6673 182.482 51.8312 182.606 51.934 182.776C52.0628 183 52.1741 183.235 52.267 183.476C52.888 184.956 53.5131 186.436 54.1231 187.92C54.6151 189.12 54.445 189.42 53.137 189.674C52.371 189.821 51.597 189.931 50.822 190.027C50.286 190.092 49.8491 189.907 49.7851 189.311C49.7281 188.793 50.0521 188.517 50.5401 188.423C51.0891 188.319 51.638 188.215 52.364 188.076Z" fill="#2B1149"/>
<path d="M51.2321 195.508C50.1754 195.54 49.127 195.311 48.1801 194.841C47.5261 194.49 47.337 194.066 47.595 193.607C47.901 193.062 48.381 193.107 48.839 193.325C50.3828 193.96 52.1093 193.99 53.674 193.408C53.8766 193.331 54.0842 193.268 54.2951 193.218C54.7561 193.15 55.1861 193.205 55.3271 193.752C55.3609 193.857 55.3728 193.967 55.362 194.076C55.3512 194.186 55.3179 194.292 55.2643 194.388C55.2107 194.484 55.138 194.568 55.0506 194.634C54.9631 194.701 54.8628 194.749 54.756 194.775C53.6341 195.226 52.4409 195.474 51.2321 195.508V195.508Z" fill="#2B1149"/>
<path d="M244.332 51.782C243.432 51.636 242.571 51.526 241.72 51.347C241.057 51.207 240.803 50.836 241.044 50.209C241.698 48.509 242.418 46.825 243.133 45.145C243.163 45.0385 243.216 44.9402 243.29 44.8575C243.363 44.7748 243.454 44.7098 243.556 44.6676C243.658 44.6253 243.769 44.6067 243.879 44.6134C243.989 44.62 244.097 44.6517 244.193 44.706C244.298 44.7416 244.393 44.7991 244.474 44.8746C244.555 44.95 244.618 45.0418 244.661 45.1437C244.703 45.2457 244.723 45.3554 244.72 45.4658C244.717 45.5762 244.69 45.6846 244.642 45.7839C244.207 46.8739 243.731 47.9489 243.296 49.0389C242.963 49.8709 242.978 49.878 243.84 50.033C244.096 50.079 244.358 50.105 244.61 50.166C244.719 50.1804 244.824 50.2177 244.918 50.2755C245.011 50.3333 245.091 50.4103 245.153 50.5013C245.215 50.5924 245.257 50.6954 245.276 50.8038C245.295 50.9121 245.291 51.0233 245.264 51.13C245.2 51.576 244.853 51.798 244.332 51.782Z" fill="#2B1149"/>
<path d="M244.213 56.796C243.307 56.7763 242.414 56.576 241.586 56.207C240.943 55.874 240.713 55.435 240.903 54.982C241.103 54.507 241.537 54.373 242.225 54.682C243.48 55.1989 244.878 55.2475 246.166 54.819C246.5 54.726 246.824 54.588 247.166 54.519C247.259 54.4847 247.357 54.4695 247.456 54.4744C247.555 54.4794 247.652 54.5043 247.741 54.5478C247.83 54.5913 247.909 54.6524 247.973 54.7274C248.038 54.8023 248.086 54.8897 248.116 54.984C248.161 55.0843 248.185 55.1928 248.187 55.3029C248.188 55.4129 248.167 55.522 248.125 55.6235C248.082 55.7249 248.019 55.8165 247.939 55.8925C247.86 55.9685 247.765 56.0272 247.662 56.065C246.563 56.5042 245.396 56.7514 244.213 56.796V56.796Z" fill="#2B1149"/>
<path d="M235.784 43.109C235.784 42.936 235.784 42.763 235.784 42.59C235.762 42.3939 235.811 42.1963 235.922 42.0332C236.033 41.87 236.198 41.7522 236.389 41.701C236.598 41.6303 236.824 41.6313 237.032 41.7037C237.24 41.7762 237.418 41.916 237.537 42.101C237.721 42.371 237.844 42.6778 237.897 43C237.95 43.3222 237.933 43.6521 237.846 43.967C237.794 44.2037 237.659 44.4139 237.465 44.5589C237.271 44.7038 237.031 44.7738 236.789 44.756C236.669 44.7626 236.549 44.7451 236.436 44.7046C236.323 44.6641 236.219 44.6013 236.131 44.52C236.042 44.4388 235.971 44.3406 235.921 44.2314C235.871 44.1222 235.844 44.004 235.84 43.884C235.804 43.629 235.802 43.368 235.784 43.109Z" fill="#2B1149"/>
<path d="M250.998 42.846C250.971 43.719 250.598 44.182 249.974 44.235C249.317 44.29 248.974 43.935 248.893 43.092C248.862 42.748 248.873 42.4 248.869 42.054C248.843 41.858 248.892 41.6596 249.005 41.4976C249.118 41.3357 249.288 41.222 249.481 41.179C249.69 41.1101 249.916 41.114 250.123 41.1898C250.329 41.2657 250.504 41.4092 250.619 41.597C250.856 41.9713 250.987 42.403 250.998 42.846V42.846Z" fill="#2B1149"/>
<path d="M70.4391 56.7201C70.1209 55.6319 69.7197 54.5698 69.239 53.5431C69.085 53.1874 68.9613 52.8195 68.869 52.4431C68.8283 52.269 68.8581 52.086 68.9518 51.9337C69.0454 51.7814 69.1953 51.6723 69.369 51.6301C69.531 51.5603 69.7123 51.5493 69.8816 51.599C70.0508 51.6486 70.1974 51.7558 70.296 51.9021C70.4143 52.0829 70.5148 52.2748 70.5961 52.4751C71.1791 53.8751 71.77 55.2751 72.328 56.6921C72.734 57.7201 72.5751 58.0141 71.5281 58.2341C70.8061 58.3861 70.074 58.4931 69.344 58.6071C68.868 58.6821 68.45 58.5741 68.321 58.0501C68.2762 57.9372 68.2586 57.8153 68.2698 57.6943C68.281 57.5733 68.3207 57.4567 68.3855 57.354C68.4503 57.2512 68.5384 57.1653 68.6428 57.1031C68.7472 57.0409 68.8648 57.0042 68.9861 56.9961C69.4481 56.8961 69.9141 56.8171 70.4391 56.7201Z" fill="#2B1149"/>
<path d="M77.707 48.234C77.707 47.205 77.8921 46.885 78.4561 46.817C79.0911 46.741 79.4481 47.051 79.7041 47.852C79.7953 48.0944 79.8342 48.3534 79.8184 48.6119C79.8025 48.8704 79.7322 49.1226 79.6121 49.352C79.3591 49.821 78.92 49.801 78.484 49.775C78.3093 49.7682 78.1431 49.6979 78.0165 49.5773C77.8898 49.4568 77.8114 49.2942 77.796 49.12C77.7496 48.8266 77.7199 48.5308 77.707 48.234V48.234Z" fill="#2B1149"/>
<path d="M61.2211 48.8811C61.2101 47.5671 61.572 47.1691 62.39 47.3691C63.079 47.5381 63.158 48.1251 63.271 48.6601C63.3602 48.9288 63.3638 49.2186 63.2812 49.4895C63.1987 49.7603 63.034 49.9988 62.8101 50.1721C62.6781 50.2641 62.5254 50.3222 62.3656 50.3412C62.2058 50.3602 62.0438 50.3395 61.8939 50.281C61.744 50.2225 61.6109 50.1279 61.5062 50.0056C61.4016 49.8834 61.3288 49.7372 61.2941 49.5801C61.2493 49.3497 61.2248 49.1158 61.2211 48.8811Z" fill="#2B1149"/>
<path d="M167.47 200.697C165.993 198.472 164.602 196.425 163.261 194.347C159.712 189.016 156.538 183.446 153.761 177.675C152.761 175.69 152.019 173.585 151.552 171.412C151.004 168.12 151.518 164.74 153.02 161.76C154.522 158.78 156.934 156.356 159.906 154.839C162.118 153.69 164.568 153.077 167.061 153.05C169.553 153.023 172.016 153.582 174.253 154.682C176.489 155.783 178.435 157.394 179.933 159.385C181.432 161.377 182.441 163.693 182.88 166.146C183.338 168.6 183.152 171.132 182.338 173.492C181.057 177.104 179.479 180.604 177.622 183.957C174.784 189.257 171.651 194.387 168.352 199.414C168.114 199.774 167.863 200.125 167.47 200.697ZM175.67 169.143C175.678 167.47 175.189 165.832 174.266 164.437C173.343 163.041 172.027 161.951 170.484 161.304C168.941 160.657 167.241 160.482 165.598 160.802C163.956 161.121 162.446 161.92 161.258 163.099C160.07 164.277 159.258 165.781 158.925 167.421C158.592 169.06 158.753 170.762 159.388 172.31C160.022 173.858 161.102 175.183 162.489 176.118C163.877 177.052 165.511 177.554 167.184 177.56C168.298 177.579 169.405 177.375 170.438 176.96C171.472 176.545 172.413 175.927 173.204 175.142C173.995 174.358 174.621 173.423 175.045 172.392C175.469 171.362 175.682 170.257 175.672 169.143H175.67Z" fill="white"/>
<path d="M42.818 181.342C42.828 182.102 42.558 182.572 42.025 182.681C41.571 182.774 41.102 182.715 40.925 182.241C40.6834 181.778 40.5869 181.253 40.648 180.734C40.764 180.227 40.873 179.688 41.529 179.603C42.071 179.534 42.513 179.913 42.691 180.595C42.755 180.849 42.779 181.11 42.818 181.342Z" fill="#2B1149"/>
<path d="M60.986 181.067C60.9958 181.239 60.9958 181.412 60.986 181.584C60.899 182.34 60.544 182.702 59.963 182.646C59.382 182.59 59.048 182.153 59.035 181.446C59.0366 181.274 59.056 181.102 59.093 180.934C59.257 180.099 59.6081 179.761 60.2471 179.813C60.8191 179.861 60.997 180.155 60.986 181.067Z" fill="#2B1149"/>
<path d="M175.672 169.144C175.677 170.817 175.186 172.454 174.261 173.847C173.335 175.241 172.017 176.329 170.473 176.973C168.93 177.618 167.229 177.79 165.588 177.468C163.946 177.146 162.437 176.344 161.251 175.164C160.066 173.984 159.256 172.478 158.926 170.838C158.596 169.198 158.76 167.497 159.397 165.95C160.034 164.404 161.115 163.08 162.504 162.148C163.894 161.216 165.528 160.717 167.201 160.714C168.313 160.702 169.417 160.912 170.447 161.331C171.478 161.749 172.415 162.369 173.203 163.154C173.991 163.939 174.616 164.872 175.04 165.901C175.464 166.929 175.679 168.032 175.672 169.144V169.144Z" fill="#840094"/>
</svg>
