<svg width="664" height="527" viewBox="0 0 664 527" fill="none" xmlns="http://www.w3.org/2000/svg">
<path d="M219.718 181.719C220.139 182.833 220.265 184.036 220.085 185.213C217.794 200.486 214.37 215.447 207.713 229.491C203.253 238.902 197.434 247.312 189.05 253.723C186.23 255.923 183.154 257.772 179.888 259.23C179.488 259.352 179.143 259.607 178.909 259.953C178.675 260.299 178.567 260.715 178.604 261.131C178.57 271.466 179.312 281.691 182.677 291.569C183.358 293.583 184.256 295.518 185.355 297.339C186.389 299.149 187.776 300.734 189.432 302.001C191.089 303.267 192.982 304.189 195.001 304.712C207.689 308.19 219.801 313.045 230.838 320.349C230.3 321.505 229.785 322.672 229.221 323.816C223.506 335.421 217.792 347.026 212.08 358.631C211.807 359.186 211.18 359.722 211.741 360.647H214.687C254.732 360.647 294.777 360.647 334.823 360.647C336.099 360.647 337.375 360.709 338.651 360.742C339.264 361.053 339.766 361.547 340.088 362.154C340.41 362.762 340.537 363.454 340.451 364.136C340.425 364.736 340.451 365.328 340.451 365.924V484.214C340.451 489.053 340.035 489.473 335.244 489.473C303.552 489.473 271.862 489.476 240.172 489.481C239.163 489.376 238.143 489.427 237.15 489.632C237.02 490.362 237.655 490.479 238.039 490.669C240.002 491.647 240.517 493.342 240.486 495.344C240.393 501.274 237.379 505.465 232.519 508.469C228.676 510.689 224.424 512.113 220.019 512.654C206.197 514.816 193.5 511.578 181.603 504.598C179.478 503.351 177.463 501.916 175.403 500.564C175.118 500.378 174.844 500.174 174.576 499.964C169.476 496.008 163.919 493.85 157.276 494.84C152.307 495.581 147.249 495.325 142.231 495.367C132.183 495.453 122.131 495.533 112.087 495.087C91.0556 494.151 70.1577 492.153 49.6447 487.141C42.0481 485.269 34.5875 482.882 27.3147 479.998C16.7777 475.846 9.7276 468.32 5.5566 457.957C2.0796 449.319 0.808835 440.257 0.619835 431.005C0.162835 408.627 4.65578 387.047 11.1118 365.785C13.0993 359.386 15.4477 353.105 18.1457 346.972C20.9117 340.572 23.2138 333.985 26.2668 327.703C32.5828 314.709 41.3176 303.894 53.7956 296.271C60.6223 292.229 68.2313 289.686 76.1167 288.812C83.7167 287.818 91.3827 287.484 98.9467 286.231C101.882 285.744 104.816 285.203 107.709 284.517C112.501 283.382 116.049 280.426 118.848 276.491C122.411 271.484 124.348 265.786 125.911 259.921C126.241 258.678 125.769 258.129 124.667 257.614C119.81 255.341 115.167 252.675 110.528 249.983C105.281 246.939 101.596 242.559 98.4018 237.499C88.8918 222.437 84.5418 205.846 83.2568 188.282C83.1055 187.183 83.316 186.064 83.8567 185.095C84.4794 184.62 85.2465 184.374 86.0293 184.397C86.812 184.42 87.563 184.711 88.1567 185.222C88.4528 186.281 88.6315 187.37 88.6897 188.469C88.8997 190.65 88.7418 192.921 89.7058 194.969C93.1443 202.371 97.113 209.515 101.581 216.346C103.767 219.799 106.357 222.98 109.295 225.821C110.736 227.287 112.583 228.289 114.597 228.701C116.611 229.112 118.703 228.914 120.604 228.131C123.072 227.209 125.467 226.102 127.767 224.817C137.86 219.39 148.612 218.542 159.73 220.034C164.856 220.826 169.868 222.238 174.654 224.239C179.437 226.097 184.647 226.568 189.686 225.598C192.622 225.083 195.486 224.308 198.386 223.641C199.769 223.22 201.2 222.973 202.645 222.906C204.758 222.95 204.766 222.953 205.545 220.95C209.383 210.773 212.2 200.239 213.954 189.505C214.432 186.781 214.295 183.894 215.788 181.392C216.431 181.178 217.111 181.097 217.786 181.153C218.462 181.209 219.119 181.402 219.718 181.719V181.719ZM197.85 473.669C199.037 474.187 200.028 474.669 201.05 475.059C208.2 477.774 215.368 480.442 222.502 483.195C223.915 483.765 225.423 484.061 226.947 484.067C262.044 484.042 297.142 484.035 332.24 484.044C335.528 484.044 335.06 484.408 335.061 481.188C335.071 443.975 335.074 406.762 335.069 369.549C335.069 365.999 335.069 365.999 331.64 365.999H132.813C132.302 365.999 131.791 365.989 131.28 365.999C129.509 366.036 129.48 366.039 129.471 367.822C129.453 372.08 129.465 376.338 129.465 380.596C129.465 405.631 129.465 430.667 129.465 455.703C129.465 458.134 129.478 458.103 131.865 458.515C145.288 460.807 158.772 462.665 172.294 464.269C172.818 464.379 173.362 464.35 173.871 464.184C174.38 464.018 174.836 463.72 175.194 463.322C182.024 456.435 190.342 451.842 199.153 448.059C201.585 447.015 203.119 447.954 203.496 450.591C203.688 452.199 203.665 453.826 203.428 455.428C202.633 461.784 200.746 467.955 197.85 473.669V473.669ZM17.4506 364.031C17.2426 364.549 17.1368 364.778 17.0578 365.015C13.6917 375.187 11.0387 385.581 9.11861 396.122C6.61861 409.712 5.07366 423.383 6.33566 437.236C6.82372 444.465 8.58813 451.55 11.5468 458.164C15.1388 465.77 20.6398 471.455 28.5468 474.617C31.3888 475.753 34.2287 476.909 37.1257 477.886C55.7177 484.153 74.9737 486.915 94.4257 488.608C103.415 489.391 112.426 489.758 121.443 489.992C134.471 490.325 147.489 490.12 160.499 489.375C164.493 489.099 168.481 489.992 171.977 491.944C174.903 493.536 177.555 495.53 180.313 497.374C191.678 504.974 203.926 509.382 217.854 507.529C221.933 507.144 225.89 505.928 229.483 503.958C232.197 502.345 234.325 500.228 234.922 496.929C235.102 496.451 235.086 495.921 234.878 495.455C234.67 494.988 234.287 494.622 233.811 494.437C231.968 493.568 230.222 492.492 228.384 491.617C221.232 488.217 213.74 485.667 206.332 482.904C201.756 481.305 197.274 479.448 192.909 477.341C190.862 476.299 190.356 474.693 191.629 472.991C195.04 468.428 196.487 463.121 197.599 457.682C197.791 456.741 198.307 455.776 197.761 454.607C190.54 458.091 183.716 462.042 178.284 467.984C177.762 468.695 177.053 469.246 176.235 469.576C175.417 469.905 174.523 470 173.655 469.849C168.774 469.133 163.848 468.727 158.961 468.057C143.534 465.945 128.138 463.637 112.872 460.533C101.701 458.262 90.5838 455.784 79.8508 451.849C74.2758 449.97 69.0812 447.11 64.5117 443.405C59.6786 439.535 56.3622 434.088 55.1438 428.018C54.1118 422.584 54.6338 417.162 55.6828 411.791C57.1518 404.273 59.4577 396.968 61.4367 389.58C62.0587 387.26 62.0458 387.26 59.9008 386.141C51.3095 381.656 42.7177 377.17 34.1257 372.683C28.6307 369.823 23.1306 366.98 17.4506 364.031ZM92.6176 292.553C92.6588 293.748 92.9918 294.916 93.5876 295.953C95.5937 300.559 98.1067 304.927 101.08 308.977C108.492 319.216 117.236 328.063 128.214 334.509C133.554 337.644 139.223 339.928 145.501 340.133C149.243 340.229 152.986 339.983 156.683 339.399C165.474 338.216 173.937 335.273 181.565 330.745C188.006 326.815 193.365 321.828 196.69 314.916C198.403 311.351 198.373 311.338 194.713 310.244C194.388 310.144 194.076 309.992 193.746 309.921C187.146 308.521 182.846 304.292 179.826 298.532C176.952 293.041 175.526 287.101 174.556 281.032C173.724 275.394 173.287 269.704 173.248 264.005C173.206 261.887 173.16 261.831 171.054 262.415C168.279 263.232 165.424 263.744 162.538 263.941C160.161 264.018 157.795 264.305 155.468 264.798C151.287 265.665 146.96 265.532 142.84 264.41C138.949 263.366 135.115 262.119 131.355 260.674C131.069 261.665 130.812 262.542 130.561 263.421C128.843 269.421 126.592 275.193 122.826 280.244C119.296 285.229 114.024 288.707 108.052 289.989C102.975 291.089 97.8556 291.867 92.6186 292.555L92.6176 292.553ZM152.098 240.214C156.082 240.266 160.039 239.544 163.749 238.089C164.402 237.866 164.942 237.399 165.257 236.785C165.571 236.171 165.634 235.458 165.433 234.799C165.231 234.139 164.781 233.583 164.178 233.249C163.574 232.915 162.865 232.829 162.199 233.009C161.699 233.095 161.236 233.339 160.746 233.472C158.969 234.061 157.137 234.468 155.278 234.686C152.355 234.867 149.528 234.757 146.846 233.3C146.537 233.104 146.192 232.973 145.831 232.916C145.47 232.858 145.101 232.875 144.747 232.965C144.393 233.055 144.061 233.217 143.771 233.44C143.482 233.663 143.241 233.942 143.064 234.262C142.318 235.632 142.851 237.148 144.464 238.119C144.981 238.412 145.52 238.665 146.077 238.875C147.99 239.671 150.028 240.125 152.099 240.216L152.098 240.214Z" fill="#2B1149"/>
<path d="M88.1571 185.227C87.5635 184.716 86.8124 184.425 86.0296 184.401C85.2469 184.378 84.4799 184.624 83.857 185.099C79.8915 182.161 76.0859 179.013 72.4569 175.669C57.3289 160.93 47.535 143.306 43.579 122.496C42.2735 115.896 41.8251 109.155 42.245 102.441C43.291 86.285 49.0112 70.7816 58.7091 57.8179C69.7901 42.8069 84.1679 31.9559 101.144 24.3909C117.737 17.1734 135.689 13.6125 153.78 13.9499C173.373 14.5319 192.011 18.9119 209.351 28.2449C221.967 34.9028 233.06 44.1135 241.924 55.2909C242.431 55.9349 243.211 56.4669 243.073 57.4629C233.231 56.5314 223.315 56.7142 213.514 58.0079C199.42 59.6629 185.814 63.3129 172.414 67.9749C157.569 72.9713 144.262 81.7101 133.779 93.3479C132.631 94.6259 131.789 95.8859 132.165 97.6689C130.976 98.8802 129.788 100.091 128.599 101.3C119.066 110.975 111.641 122.146 105.52 134.2C99.0576 147.153 94.0813 160.795 90.6859 174.867C89.8289 178.317 89.3411 181.859 88.1571 185.227Z" fill="#840094"/>
<path d="M566.464 271.35C567.917 271.988 568.192 273.333 568.487 274.682C570.095 282.077 571.708 289.471 573.328 296.862C573.418 297.276 573.543 297.689 573.592 298.108C573.729 299.273 574.192 299.652 575.452 299.324C577.587 298.766 579.772 298.37 581.952 298.024C588.172 297.043 594.152 298.216 600 300.248C605.997 302.442 611.705 305.356 617 308.927C622.843 312.752 628.434 316.951 633.737 321.497C641.33 327.957 646.801 336.006 651.001 344.969C655.987 355.606 658.883 366.856 660.721 378.408C663.058 393.387 663.881 408.564 663.177 423.708C662.428 441.127 659.849 458.237 653.625 474.647C649.448 485.661 643.739 495.752 635.555 504.315C625.602 514.746 612.595 521.747 598.407 524.308C586.246 526.512 573.834 526.967 561.545 525.661C539.896 523.668 519.006 518.324 498.477 511.417C479.624 505.038 461.226 497.387 443.41 488.517C441.295 487.469 440.149 486.177 440.624 483.763C440.648 483.508 440.656 483.252 440.648 482.997C440.981 478.097 441.775 479.267 437.081 477.13C433.758 475.618 430.297 474.41 426.955 472.939C422.065 470.785 417.026 470.577 411.744 470.861C394.006 471.815 377.866 467.33 364.022 455.815C360.654 453.177 357.933 449.805 356.068 445.955C355.105 444.048 354.588 441.948 354.558 439.812C354.527 437.677 354.983 435.562 355.891 433.629C356.275 432.639 356.956 431.792 357.839 431.204C358.723 430.615 359.766 430.312 360.828 430.338C368.219 429.965 375.627 430.103 383 430.751C383.818 430.908 384.659 430.91 385.479 430.759C385.357 430.018 384.722 429.828 384.303 429.459C382.375 427.745 381.092 425.423 380.669 422.878C380.094 419.969 381.269 417.826 384.13 416.518C386.735 415.437 389.545 414.944 392.363 415.074C394.296 415.087 396.228 415.282 398.197 415.397C398.679 413.877 398.171 412.451 398.175 411.029C398.291 403.112 399.227 395.229 400.968 387.505C403.131 376.835 406.058 366.334 409.726 356.083C413.969 343.971 421.157 333.105 430.643 324.461C434.386 321.104 438.527 318.22 442.975 315.874C447.275 313.614 451.981 312.228 456.82 311.796C463.946 311.105 471.084 310.804 478.235 310.812C484.492 310.764 490.58 308.769 495.652 305.103C499.839 302.23 499.874 302.285 501.166 297.473C503.242 289.756 505.353 282.05 507.372 274.319C507.851 272.486 508.723 271.239 510.654 270.901C511.655 271.098 512.68 271.153 513.698 271.064C529.51 271.073 545.323 271.075 561.136 271.07C562.917 270.989 564.701 271.082 566.464 271.35ZM431.555 436.037C432.222 431.337 432.79 426.878 433.712 422.479C438.01 401.282 447.409 381.451 461.096 364.704C461.607 364.023 462.177 363.389 462.801 362.809C463.281 362.412 463.884 362.194 464.507 362.193C465.13 362.191 465.734 362.406 466.216 362.801C466.698 363.195 467.028 363.745 467.15 364.355C467.272 364.966 467.178 365.601 466.885 366.15C466.519 366.725 466.099 367.263 465.63 367.758C463.107 370.755 460.745 373.884 458.555 377.132C446.466 395.067 439.008 415.717 436.845 437.237C436.799 437.416 436.789 437.602 436.816 437.784C436.843 437.967 436.905 438.142 437 438.3C437.096 438.459 437.221 438.596 437.37 438.706C437.519 438.815 437.687 438.893 437.867 438.937C441.067 440.324 444.246 441.751 447.454 443.117C450.404 444.373 450.415 444.347 451.965 441.689C453.17 439.622 454.091 439.281 456.398 440.145C458.07 440.77 459.707 441.494 461.378 442.121C482.682 449.997 504.532 456.311 526.754 461.012C537.8 463.493 548.987 465.296 560.254 466.412C563.804 466.738 567.381 467.229 570.944 466.825C578.282 465.995 584.273 462.358 589.47 457.356C598.127 449.023 602.37 438.518 603.964 426.829C605.089 417.945 604.799 408.939 603.107 400.146C602.774 398.306 602.357 396.479 602.092 394.629C601.977 393.948 602.134 393.25 602.528 392.683C602.922 392.117 603.523 391.727 604.201 391.597C604.832 391.452 605.494 391.55 606.056 391.871C606.619 392.192 607.04 392.712 607.237 393.329C607.399 393.81 607.523 394.303 607.605 394.804C608.411 398.459 609.012 402.156 609.405 405.878C610.732 416.032 610.107 426.345 607.565 436.265C604.565 447.314 599.083 456.822 590.03 464.059C582.399 470.159 573.88 473.137 563.95 472.173C553.944 471.202 543.984 469.973 534.127 468.034C508.15 463.028 482.639 455.854 457.862 446.586C455.955 445.865 455.935 445.873 455.062 447.707C450.074 458.364 447.041 469.831 446.109 481.561C445.921 483.725 445.953 483.728 447.863 484.661C460.682 490.972 473.809 496.638 487.195 501.636C512.395 511.009 538.067 518.473 565.037 520.542C576.248 521.567 587.549 520.961 598.586 518.742C614.469 515.565 628.514 506.383 637.795 493.108C643.371 485.151 647.675 476.375 650.551 467.094C656.11 449.913 657.882 432.174 658.042 414.245C658.078 405.992 657.644 397.744 656.742 389.54C655.726 378.435 653.45 367.482 649.959 356.891C646.492 346.819 641.813 337.391 634.391 329.607C628.964 323.914 622.584 319.331 616.125 314.885C610.907 311.2 605.275 308.14 599.344 305.769C592.768 303.225 586.1 302.326 579.088 303.994C572.388 305.589 565.758 307.457 559.047 309.003C548.468 311.442 537.831 313.203 526.924 311.803C520.493 310.979 514.048 309.986 508.267 306.903C505.648 305.503 503.947 305.603 501.621 307.488C494.415 313.489 485.249 316.623 475.878 316.288C470.532 316.14 465.167 316.505 459.81 316.873C453.241 317.272 446.895 319.396 441.41 323.031C433.933 327.99 427.577 334.46 422.753 342.024C418.553 348.538 415.282 355.606 413.034 363.024C408.839 376.611 405.117 390.304 403.815 404.534C403.497 407.926 403.484 411.34 403.778 414.734C403.741 415.322 403.929 415.901 404.302 416.357C404.676 416.812 405.208 417.109 405.792 417.188C408.019 417.761 410.165 418.615 412.178 419.727C416.987 422.277 420.956 425.599 422.446 431.127C422.495 431.374 422.604 431.606 422.761 431.803C422.919 432 423.121 432.156 423.352 432.259C426.044 433.504 428.727 434.736 431.555 436.037ZM369.788 435.631C367.488 435.631 365.188 435.56 362.898 435.652C360.759 435.738 360.259 436.301 360.064 438.419C359.859 440.725 360.412 443.036 361.641 444.999C363.355 447.751 365.543 450.178 368.103 452.168C381.91 463.385 397.931 466.799 415.267 465.361C417.799 465.082 420.361 465.28 422.821 465.944C428.669 467.76 434.399 469.939 439.978 472.466C441.605 473.166 441.659 473.132 441.952 471.501C443.194 464.55 445.103 457.735 447.652 451.15C448.32 449.429 448.277 449.413 446.471 448.622C442.73 446.985 438.971 445.382 435.253 443.703C430.136 441.396 425.053 439.025 419.941 436.696C418.741 436.147 417.6 435.514 417.47 434.041C417.121 430.057 414.591 427.635 411.495 425.641C406.882 422.672 401.695 421.353 396.332 420.741C393.465 420.268 390.533 420.377 387.709 421.06C385.981 421.56 385.816 421.96 386.566 423.592C387.006 424.421 387.608 425.153 388.337 425.745C389.066 426.336 389.907 426.774 390.809 427.034C392.669 427.637 394.494 428.343 396.276 429.15C397.989 429.95 399.351 431.349 400.105 433.084C401.034 435.357 400.011 437.022 397.55 437.05C395.51 437.073 393.464 436.986 391.428 436.829C384.222 436.268 377.025 435.557 369.789 435.632L369.788 435.631ZM541.196 292.131H541.112C540.971 296.376 540.82 300.622 540.691 304.868C540.639 306.568 540.766 306.698 542.345 306.517C546.232 306.073 550.074 305.356 553.921 304.654C555.398 304.386 555.64 303.694 555.454 302.376C555.039 299.433 554.748 296.476 554.389 293.521C553.763 288.375 553.068 283.238 552.526 278.084C552.381 276.705 551.785 276.435 550.582 276.468C548.287 276.532 545.988 276.479 543.69 276.488C541.485 276.497 541.472 276.505 541.279 278.616C541.209 279.375 541.2 280.143 541.199 280.907C541.191 284.648 541.19 288.389 541.196 292.13V292.131ZM535.396 291.714H535.646C535.759 287.132 535.846 282.547 535.999 277.967C536.035 276.877 535.694 276.443 534.565 276.467C532.1 276.526 529.634 276.53 527.165 276.467C526.103 276.438 525.665 276.818 525.549 277.859C525.228 280.726 524.831 283.585 524.468 286.447C523.732 292.256 523.012 298.067 522.252 303.873C522.099 305.042 522.24 305.721 523.666 305.909C527.02 306.455 530.409 306.765 533.807 306.838C535.007 306.828 535.434 306.456 535.417 305.219C535.36 300.719 535.398 296.219 535.398 291.712L535.396 291.714ZM520.274 276.489C517.832 276.489 515.721 276.529 513.612 276.471C512.634 276.445 512.282 276.933 512.059 277.765C510.192 284.724 508.316 291.681 506.43 298.636C506.238 299.347 506.256 299.861 507.065 300.283C509.642 301.759 512.361 302.972 515.181 303.903C516.748 304.356 516.834 304.291 517.048 302.603C517.518 298.903 517.997 295.203 518.453 291.495C519.056 286.61 519.644 281.728 520.274 276.489ZM561.209 302.897C563.303 302.361 565.332 301.818 567.375 301.33C568.394 301.086 568.657 300.675 568.401 299.558C566.921 293.105 565.535 286.63 564.149 280.158C563.332 276.337 563.358 276.332 559.468 276.49C559.298 276.497 559.127 276.502 558.958 276.49C558.238 276.462 557.827 276.723 557.927 277.524C557.979 277.945 557.97 278.374 558.021 278.796C558.779 285.034 559.515 291.276 560.321 297.508C560.549 299.251 560.419 301.066 561.21 302.897H561.209Z" fill="#2B1149"/>
<path d="M219.718 181.719C219.12 181.402 218.464 181.209 217.79 181.152C217.116 181.096 216.437 181.176 215.795 181.388C216.209 177.153 216.189 172.888 215.734 168.658C214.309 159.035 210.698 149.867 205.179 141.858C195.879 127.958 183.703 117.176 169.289 108.83C159.417 103.114 148.968 98.9988 137.582 97.5118C144.115 89.7361 152.135 83.3443 161.173 78.7118C170.296 74.0518 180.012 70.8938 189.85 68.1468C198.864 65.6304 208.083 63.9135 217.399 63.0158C225.87 62.1565 234.402 62.0856 242.887 62.8038C246.638 68.4849 249.768 74.5532 252.222 80.9038C255.574 89.8338 257.33 99.2837 257.41 108.822C257.694 123.774 254.157 138.552 247.134 151.756C240.881 163.337 232.04 173.318 221.299 180.923C220.841 181.308 220.3 181.581 219.718 181.719V181.719Z" fill="#840094"/>
<path d="M338.656 360.749C337.38 360.716 336.104 360.654 334.828 360.654C294.783 360.649 254.737 360.649 214.693 360.654H211.747C211.187 359.728 211.813 359.193 212.086 358.638C217.786 347.026 223.5 335.421 229.227 323.823C229.79 322.679 230.306 321.512 230.844 320.356C233.476 315.126 236.136 309.912 238.73 304.664C243.47 295.077 248.191 285.481 252.895 275.877C253.18 275.361 253.492 274.86 253.83 274.377C253.816 275.057 253.805 275.735 253.788 276.413C253.588 284.161 257.042 289.754 263.824 293.37C265.397 294.209 266.987 295.018 268.572 295.836C286.233 304.949 303.895 314.061 321.558 323.172C329.784 327.417 338.008 331.668 346.229 335.924C347.675 336.677 349.041 337.151 350.493 336.033C350.68 336.963 350.1 337.661 349.733 338.403C346.054 345.857 342.362 353.306 338.656 360.749Z" fill="#19C9EA"/>
<path d="M566.464 271.35C564.702 271.083 562.919 270.989 561.139 271.07C545.326 271.07 529.513 271.068 513.701 271.064C512.683 271.153 511.659 271.098 510.657 270.901C511.268 264.253 511.528 257.577 511.434 250.901C511.405 250.143 511.452 249.382 511.464 248.623C516.14 250.877 521.064 252.577 526.136 253.688C534.512 255.388 543.172 255.088 551.411 252.812C553.459 252.244 555.516 251.68 557.511 250.949C557.838 250.843 558.14 250.672 558.399 250.446C558.659 250.221 558.87 249.946 559.021 249.637C559.171 249.328 559.258 248.992 559.276 248.649C559.294 248.305 559.243 247.962 559.126 247.639C558.946 247.018 558.534 246.49 557.976 246.163C557.417 245.837 556.755 245.738 556.126 245.887C555.458 246.01 554.8 246.179 554.157 246.395C551.611 247.081 549.096 247.922 546.515 248.428C531.165 251.436 517.496 247.502 505.315 238.047C499.199 233.303 494.515 227.211 490.235 220.822C485.82 214.239 482.384 207.05 480.035 199.48C479.835 198.831 479.643 198.18 479.481 197.518C479.449 197.387 479.568 197.218 479.657 196.948C482.53 198.404 485.593 199.452 488.757 200.059C492.684 200.779 496.717 200.694 500.61 199.808C504.504 198.922 508.177 197.254 511.406 194.905C514.635 192.557 517.353 189.576 519.395 186.145C521.437 182.714 522.761 178.903 523.286 174.945C523.472 173.445 523.196 171.467 524.043 170.577C524.925 169.653 526.931 170.324 528.443 170.299C530.997 170.259 533.554 170.284 536.109 170.289C538.769 170.294 538.783 170.296 539.008 172.839C539.272 175.637 539.948 178.381 541.016 180.981C542.605 184.943 544.992 188.537 548.028 191.539C551.064 194.54 554.685 196.886 558.665 198.429C562.645 199.973 566.901 200.682 571.167 200.512C575.433 200.343 579.618 199.298 583.464 197.443C584.056 197.156 584.594 196.643 585.464 196.812C585.564 198.373 585.584 199.971 585.784 201.545C586.455 205.766 588.213 209.74 590.883 213.077C586.219 223.988 579.008 232.997 570.178 240.798C569.885 241.106 569.558 241.38 569.204 241.614C566.414 243.103 566.011 245.544 566.034 248.447C566.099 256.082 566.2 263.717 566.464 271.35ZM538.038 201.585C538.024 199.874 537.584 199.302 535.861 199.039C534.931 198.938 533.996 198.892 533.061 198.902C528.884 198.77 527.787 197.007 529.777 193.359C531.692 189.658 533.358 185.834 534.762 181.91C534.966 181.443 535.114 180.953 535.205 180.451C535.29 179.768 535.126 179.077 534.743 178.505C534.36 177.933 533.783 177.518 533.119 177.337C531.826 176.907 531.119 177.189 530.339 178.81C527.424 184.861 524.373 190.851 521.884 197.098C521.535 197.965 521.295 198.872 521.17 199.798C520.93 201.649 521.446 202.484 523.19 203.135C524.564 203.584 525.986 203.873 527.427 203.997C529.715 204.148 531.992 204.438 534.245 204.865C536.8 205.511 538.058 204.319 538.038 201.585V201.585ZM531.496 227.696C535.84 227.918 540.168 227.015 544.061 225.074C546.078 224 546.729 222.507 545.97 220.974C545.757 220.604 545.466 220.286 545.116 220.042C544.767 219.797 544.368 219.633 543.948 219.561C543.528 219.488 543.097 219.509 542.686 219.622C542.275 219.735 541.893 219.938 541.57 220.215C540.109 221.088 538.489 221.663 536.804 221.904C531.821 222.932 527.013 222.051 522.25 220.648C521.192 220.337 520.176 219.876 519.109 219.613C518.53 219.454 517.914 219.504 517.369 219.754C516.823 220.004 516.384 220.438 516.127 220.98C515.863 221.472 515.764 222.035 515.844 222.587C515.925 223.139 516.182 223.651 516.576 224.046C517.081 224.501 517.684 224.833 518.339 225.017C522.546 226.629 526.992 227.535 531.496 227.696V227.696Z" fill="#ECAA27"/>
<path d="M597.359 38.8509C597.424 42.1494 596.955 45.4367 595.972 48.5859C595.161 51.2917 593.674 53.7464 591.652 55.7185C589.629 57.6907 587.138 59.1152 584.413 59.8579C580.487 61.0159 576.382 61.446 572.302 61.1269C561.393 60.4439 550.755 58.2189 540.189 55.5589C535.989 54.4999 531.715 53.7319 527.622 52.2649C525.765 51.6496 523.991 50.8101 522.338 49.7649C521.477 49.2135 520.738 48.4911 520.168 47.6425C519.598 46.794 519.208 45.8373 519.023 44.8319C518.547 42.0597 518.581 39.2239 519.123 36.4639C520.68 26.5319 524.349 17.6149 531.963 10.7399C540.517 3.01686 550.684 -0.0051364 562.088 0.869864C580.421 2.27586 593.401 16.6109 596.581 32.2079C597.065 34.39 597.326 36.6159 597.359 38.8509V38.8509Z" fill="#2B1149"/>
<path d="M360.324 310.667C359.143 311.505 358.815 312.888 358.243 314.082C355.798 319.182 353.443 324.319 351.033 329.436C350.615 330.175 350.388 331.006 350.37 331.854C349.141 331.276 347.892 330.736 346.686 330.114C323.264 318.03 299.844 305.94 276.428 293.845C272.801 291.972 269.118 290.2 265.572 288.185C261.213 285.71 258.918 281.858 259.207 276.807C259.271 274.656 259.982 272.574 261.247 270.833C262.513 269.092 264.273 267.773 266.299 267.047C270.085 265.476 273.765 266.056 277.362 267.911C298.677 278.889 320.002 289.849 341.335 300.792C347.679 304.055 353.995 307.374 360.324 310.667Z" fill="white"/>
<path d="M360.324 310.666C353.995 307.373 347.679 304.054 341.334 300.79C320.014 289.822 298.69 278.862 277.361 267.909C273.761 266.055 270.083 265.474 266.298 267.045C264.272 267.771 262.511 269.09 261.246 270.831C259.981 272.572 259.27 274.654 259.206 276.805C258.917 281.856 261.213 285.705 265.571 288.183C269.118 290.198 272.801 291.971 276.428 293.843C299.846 305.935 323.265 318.024 346.686 330.112C347.893 330.734 349.141 331.274 350.37 331.852C351.27 333.222 351.795 334.601 350.494 336.034C349.043 337.15 347.678 336.676 346.231 335.923C338.02 331.648 329.796 327.397 321.56 323.171C303.898 314.059 286.236 304.947 268.574 295.835C266.989 295.017 265.399 294.209 263.825 293.369C257.043 289.753 253.591 284.16 253.789 276.412C253.806 275.733 253.816 275.055 253.83 274.376C254.03 273.814 254.25 273.26 254.43 272.692C257.644 262.374 269.337 257.771 279.122 262.757C286.542 266.538 293.954 270.335 301.357 274.149C314.963 281.137 328.569 288.129 342.172 295.126C348.595 298.428 355.019 301.73 361.444 305.033C361.828 305.214 362.2 305.419 362.559 305.646C362.996 305.919 363.341 306.317 363.549 306.788C363.758 307.259 363.82 307.782 363.729 308.289C363.682 308.802 363.472 309.287 363.13 309.673C362.788 310.059 362.333 310.326 361.829 310.435C361.332 310.54 360.829 310.617 360.324 310.666V310.666Z" fill="#2B1149"/>
<path d="M242.888 62.8029C234.404 62.0847 225.871 62.1557 217.4 63.0149C208.084 63.9125 198.865 65.6295 189.851 68.1459C180.013 70.8929 170.296 74.0459 161.174 78.7109C152.136 83.3433 144.116 89.7352 137.584 97.5109C135.094 99.6539 134.524 99.6709 132.17 97.6709C131.794 95.8879 132.635 94.6279 133.784 93.3499C144.267 81.7122 157.574 72.9734 172.419 67.9769C185.819 63.3149 199.419 59.6649 213.519 58.0099C223.32 56.7162 233.236 56.5334 243.078 57.4649C245.638 59.1959 245.58 60.9029 242.888 62.8029Z" fill="#2B1149"/>
<path d="M197.851 473.668C200.747 467.955 202.635 461.784 203.431 455.428C203.667 453.826 203.69 452.199 203.499 450.591C203.122 447.954 201.588 447.015 199.155 448.059C190.344 451.842 182.026 456.435 175.196 463.322C174.838 463.72 174.382 464.018 173.873 464.184C173.363 464.35 172.82 464.379 172.296 464.269C158.774 462.669 145.29 460.807 131.867 458.515C129.479 458.107 129.467 458.135 129.467 455.703C129.467 430.668 129.467 405.632 129.467 380.596C129.467 376.338 129.455 372.08 129.473 367.822C129.481 366.038 129.511 366.036 131.282 365.999C131.793 365.988 132.305 365.999 132.815 365.999H331.645C335.072 365.999 335.074 365.999 335.074 369.549C335.074 406.762 335.071 443.975 335.066 481.188C335.066 484.408 335.533 484.042 332.245 484.044C297.147 484.053 262.05 484.06 226.952 484.067C225.428 484.061 223.92 483.765 222.507 483.195C215.373 480.442 208.207 477.774 201.055 475.059C200.029 474.67 199.038 474.186 197.851 473.668Z" fill="white"/>
<path d="M152.099 240.216C150.029 240.126 147.991 239.673 146.078 238.878C145.521 238.668 144.982 238.415 144.465 238.122C142.852 237.152 142.319 235.635 143.065 234.265C143.242 233.945 143.483 233.666 143.772 233.443C144.062 233.22 144.394 233.058 144.748 232.968C145.102 232.878 145.471 232.861 145.832 232.919C146.193 232.976 146.538 233.107 146.847 233.303C149.529 234.76 152.356 234.87 155.279 234.689C157.138 234.471 158.969 234.064 160.746 233.475C161.236 233.342 161.703 233.098 162.199 233.012C162.862 232.839 163.567 232.929 164.166 233.264C164.765 233.598 165.211 234.152 165.412 234.808C165.612 235.464 165.551 236.172 165.241 236.784C164.931 237.396 164.397 237.865 163.75 238.092C160.04 239.547 156.083 240.268 152.099 240.216V240.216Z" fill="#EDEDED"/>
<path d="M505.138 143.215C512.663 142.615 519.333 140.015 525.828 136.766C534.987 132.188 542.075 125.385 547.783 116.994C550.162 113.462 552.717 110.052 555.439 106.777C555.986 106.125 556.532 105.47 557.115 104.849C560.037 101.73 563.05 101.299 566.729 103.517C568.543 104.638 570.181 106.022 571.589 107.624C574.306 110.679 576.76 113.96 578.924 117.43C581.378 121.317 583.824 125.207 586.195 129.145C589.613 134.821 591.295 141.119 592.875 147.766C591.805 147.195 590.836 146.452 590.008 145.566C584.462 140.78 577.362 138.18 570.037 138.251C562.984 138.192 556.122 140.542 550.587 144.913C545.051 149.285 541.174 155.415 539.598 162.29C539.481 162.79 539.348 163.283 539.275 163.79C539.141 164.726 538.615 165.019 537.695 165.02C533.095 165.02 528.497 165.055 523.902 165.126C522.722 165.143 522.843 164.265 522.661 163.573C521.273 158.179 518.382 153.289 514.326 149.473C512.291 147.528 509.981 145.894 507.469 144.625C506.602 144.322 505.808 143.842 505.138 143.215V143.215Z" fill="#ECAA27"/>
<path d="M570.006 143.639C575.106 143.653 580.087 145.181 584.318 148.029C588.549 150.877 591.839 154.917 593.772 159.637C595.704 164.357 596.193 169.544 595.174 174.541C594.156 179.539 591.677 184.122 588.051 187.709C584.426 191.296 579.817 193.726 574.809 194.691C569.801 195.657 564.619 195.113 559.92 193.131C555.221 191.148 551.217 187.815 548.414 183.554C545.611 179.293 544.136 174.296 544.176 169.196C544.281 162.403 547.044 155.923 551.874 151.145C556.703 146.367 563.212 143.672 570.006 143.639V143.639ZM552.922 172.392C552.895 173.35 553.082 174.301 553.471 175.177C553.74 175.807 554.193 176.34 554.77 176.708C555.348 177.075 556.024 177.259 556.708 177.236C558.108 177.352 559.62 177.141 560.192 175.707C561.156 173.287 562.033 170.798 561.158 168.088C560.458 165.913 559.458 164.874 557.782 164.821C556.882 164.809 556.002 165.084 555.269 165.605C554.536 166.126 553.987 166.867 553.703 167.721C553.163 169.218 552.899 170.799 552.922 172.39V172.392Z" fill="#ECAA27"/>
<path d="M518.179 170.851C518.206 175.64 516.813 180.329 514.176 184.326C511.539 188.323 507.776 191.448 503.362 193.306C498.949 195.165 494.084 195.673 489.382 194.767C484.68 193.861 480.352 191.58 476.946 188.215C473.54 184.849 471.208 180.549 470.245 175.858C469.283 171.167 469.732 166.296 471.538 161.861C473.343 157.426 476.424 153.625 480.389 150.941C484.354 148.256 489.026 146.807 493.815 146.777C500.233 146.755 506.399 149.274 510.965 153.786C515.531 158.297 518.124 164.433 518.179 170.851ZM487.997 172.211C488.035 170.512 487.61 168.835 486.766 167.36C486.322 166.628 485.644 166.067 484.842 165.768C484.04 165.47 483.16 165.45 482.346 165.714C480.963 166.1 480.221 167.15 480.213 169.052C480.173 170.741 480.264 172.43 480.487 174.104C480.781 176.004 481.933 176.818 483.86 176.849C486.523 176.892 487.878 175.369 487.997 172.211Z" fill="#ECAA27"/>
<path d="M369.788 435.631C377.025 435.556 384.222 436.268 391.428 436.831C393.464 436.989 395.511 437.076 397.551 437.052C400.012 437.023 401.035 435.358 400.106 433.086C399.352 431.351 397.99 429.951 396.277 429.151C394.495 428.344 392.67 427.638 390.81 427.035C389.907 426.775 389.067 426.337 388.338 425.745C387.609 425.154 387.006 424.422 386.566 423.593C385.816 421.963 385.982 421.564 387.709 421.061C390.533 420.377 393.465 420.268 396.332 420.741C401.694 421.358 406.881 422.677 411.494 425.641C414.594 427.633 417.12 430.055 417.469 434.041C417.599 435.514 418.737 436.148 419.94 436.696C425.047 439.025 430.14 441.396 435.252 443.703C438.974 445.382 442.729 446.985 446.47 448.622C448.276 449.412 448.319 449.428 447.651 451.149C445.102 457.734 443.193 464.549 441.951 471.5C441.658 473.131 441.604 473.166 439.977 472.465C434.398 469.937 428.668 467.759 422.82 465.943C420.36 465.279 417.798 465.081 415.266 465.36C397.929 466.799 381.909 463.384 368.102 452.168C365.542 450.178 363.354 447.751 361.64 444.999C360.411 443.036 359.858 440.725 360.063 438.419C360.258 436.3 360.763 435.738 362.897 435.652C365.192 435.562 367.492 435.631 369.788 435.631Z" fill="#ECAA27"/>
<path d="M538.038 201.588C538.058 204.322 536.799 205.514 534.244 204.867C531.991 204.439 529.714 204.15 527.426 203.999C525.985 203.875 524.563 203.586 523.189 203.137C521.446 202.486 520.929 201.651 521.169 199.8C521.294 198.874 521.534 197.967 521.884 197.1C524.373 190.853 527.422 184.863 530.338 178.812C531.119 177.191 531.825 176.912 533.118 177.339C533.782 177.52 534.359 177.934 534.742 178.506C535.126 179.078 535.29 179.77 535.205 180.453C535.114 180.955 534.966 181.444 534.762 181.912C533.358 185.835 531.693 189.66 529.777 193.361C527.787 197.009 528.884 198.772 533.061 198.904C533.996 198.894 534.931 198.94 535.861 199.041C537.585 199.303 538.026 199.875 538.038 201.588Z" fill="#2B1149"/>
<path d="M531.496 227.695C526.993 227.534 522.548 226.63 518.341 225.018C517.686 224.834 517.083 224.502 516.578 224.047C516.184 223.652 515.927 223.14 515.846 222.588C515.765 222.035 515.864 221.471 516.129 220.98C516.386 220.438 516.826 220.004 517.371 219.754C517.917 219.504 518.533 219.455 519.111 219.614C520.178 219.877 521.194 220.338 522.252 220.649C527.015 222.049 531.823 222.933 536.806 221.905C538.491 221.663 540.111 221.089 541.572 220.216C541.896 219.939 542.277 219.736 542.688 219.623C543.099 219.51 543.53 219.489 543.95 219.562C544.37 219.634 544.769 219.798 545.119 220.042C545.468 220.287 545.759 220.605 545.972 220.975C546.731 222.507 546.079 224 544.063 225.075C540.169 227.016 535.841 227.919 531.496 227.695V227.695Z" fill="#2B1149"/>
<path d="M155.361 212.085C153.285 212.075 152.27 210.854 152.147 208.752C152.087 208.412 152.105 208.064 152.198 207.732C152.292 207.4 152.459 207.093 152.688 206.835C152.917 206.577 153.2 206.374 153.518 206.24C153.836 206.107 154.18 206.047 154.525 206.065C155.625 205.97 156.746 206.077 157.841 205.954C161.387 205.554 162.364 203.887 160.691 200.762C158.664 196.832 156.898 192.773 155.405 188.611C154.65 186.611 155.125 185.367 156.785 184.538C158.034 183.913 158.894 184.066 159.61 185.276C160.344 186.516 160.925 187.848 161.54 189.156C163.599 193.544 165.659 197.93 167.682 202.335C168.371 203.706 168.85 205.174 169.102 206.688C169.361 208.641 168.838 209.554 166.967 210.188C165.915 210.527 164.835 210.769 163.74 210.913C160.803 211.344 157.769 211.056 155.361 212.085Z" fill="#2B1149"/>
<path d="M191.495 164.538C191.5 161.97 192.554 160.344 194.523 159.972C197.223 159.464 199.118 160.559 200.061 163.244C200.911 165.293 201.109 167.555 200.627 169.721C200.412 170.821 199.781 171.795 198.865 172.441C197.949 173.086 196.819 173.353 195.711 173.185C193.348 172.998 192.196 171.804 191.921 169.206C191.761 167.687 191.642 166.165 191.495 164.538Z" fill="#2B1149"/>
<path d="M118.034 167.08C118.054 162.895 120.81 160.94 124.173 162.564C124.962 162.905 125.603 163.516 125.982 164.288C127.129 166.802 127.872 169.375 127.027 172.171C126.322 174.5 124.892 175.48 122.221 175.371C119.921 175.28 118.769 174.249 118.414 171.751C118.184 170.161 118.147 168.543 118.034 167.08Z" fill="#2B1149"/>
<path d="M552.922 172.389C552.899 170.797 553.164 169.215 553.704 167.718C553.988 166.864 554.536 166.123 555.27 165.602C556.003 165.081 556.883 164.806 557.783 164.818C559.463 164.87 560.456 165.91 561.158 168.085C562.033 170.795 561.158 173.285 560.192 175.704C559.62 177.139 558.11 177.35 556.708 177.233C556.023 177.256 555.348 177.071 554.77 176.704C554.193 176.336 553.739 175.803 553.47 175.174C553.082 174.298 552.894 173.346 552.922 172.389Z" fill="#2B1149"/>
<path d="M487.998 172.21C487.879 175.368 486.523 176.891 483.86 176.849C481.932 176.818 480.782 176.005 480.487 174.104C480.264 172.43 480.172 170.741 480.213 169.052C480.22 167.152 480.963 166.099 482.345 165.714C483.159 165.45 484.039 165.469 484.841 165.768C485.643 166.067 486.321 166.628 486.765 167.36C487.608 168.835 488.034 170.511 487.998 172.21Z" fill="#2B1149"/>
<path d="M618.892 185.275C616.308 182.187 612.883 179.914 609.033 178.734C609.084 178.458 609.169 178.189 609.286 177.934C615.173 169.004 617.594 158.981 618.27 148.5C619.181 134.363 616.123 120.927 610.37 108.076C605.088 96.282 598.102 85.742 587.845 77.567C571.682 64.686 553.336 59.627 532.906 62.067C520.334 63.567 508.632 67.834 497.506 73.783C493.114 76.0516 489.078 78.9518 485.528 82.391C479.217 88.65 474.57 96.044 470.592 103.9C464.93 115.083 460.748 126.865 456.675 138.686C455.612 141.839 455.092 145.149 455.135 148.476C455.184 158.737 457.817 168.137 464.492 176.156C464.85 176.628 465.089 177.179 465.192 177.762C465.531 179.342 466.038 180.882 466.705 182.355C466.829 182.546 466.913 182.76 466.953 182.985C466.992 183.209 466.987 183.439 466.937 183.661C466.887 183.883 466.792 184.093 466.66 184.278C466.527 184.464 466.359 184.621 466.165 184.74C460.657 189.7 458.675 195.977 459.813 203.189C461.594 214.481 471.695 220.789 480.72 218.329C480.934 218.246 481.163 218.206 481.393 218.213C481.622 218.22 481.848 218.272 482.057 218.368C482.266 218.463 482.454 218.6 482.61 218.769C482.765 218.938 482.885 219.137 482.963 219.353C484.016 221.2 485.155 223.004 486.363 224.753C491.718 232.502 497.68 239.686 505.612 244.981C507.52 246.254 509.512 247.407 511.46 248.616C516.137 250.87 521.061 252.57 526.132 253.681C534.508 255.381 543.168 255.082 551.407 252.806C553.454 252.238 555.507 251.674 557.507 250.943C557.834 250.837 558.136 250.666 558.395 250.44C558.655 250.215 558.866 249.94 559.017 249.631C559.168 249.322 559.254 248.986 559.273 248.643C559.291 248.299 559.239 247.956 559.122 247.633C558.942 247.012 558.53 246.483 557.972 246.157C557.414 245.831 556.751 245.732 556.122 245.881C555.454 246.004 554.796 246.173 554.153 246.389C551.607 247.075 549.092 247.916 546.511 248.422C531.161 251.43 517.492 247.496 505.311 238.042C499.195 233.297 494.511 227.204 490.231 220.816C485.816 214.233 482.38 207.044 480.031 199.474C479.831 198.825 479.639 198.174 479.478 197.512C479.445 197.381 479.564 197.212 479.653 196.942C482.526 198.398 485.589 199.446 488.753 200.053C493.05 200.809 497.46 200.62 501.677 199.501C505.894 198.382 509.817 196.359 513.174 193.572C516.531 190.785 519.241 187.302 521.117 183.363C522.993 179.424 523.99 175.124 524.038 170.761C524.038 170.7 524.038 170.641 524.032 170.579L524.039 170.571C524.921 169.646 526.926 170.317 528.439 170.293C530.993 170.253 533.549 170.278 536.104 170.283C538.765 170.288 538.78 170.29 539.004 172.833C539.267 175.631 539.943 178.375 541.011 180.975C542.562 184.843 544.873 188.36 547.808 191.319C550.744 194.277 554.243 196.616 558.098 198.198C561.954 199.779 566.088 200.571 570.255 200.525C574.422 200.48 578.538 199.599 582.358 197.934C583.158 197.6 583.941 197.229 584.706 196.834C584.952 196.769 585.21 196.76 585.46 196.809C585.56 198.37 585.581 199.968 585.781 201.542C586.452 205.763 588.21 209.737 590.881 213.074C591.913 213.958 592.909 214.887 593.981 215.717C597.579 218.598 602.144 219.991 606.738 219.609C611.331 219.226 615.603 217.098 618.675 213.661C625.66 206.116 625.752 193.559 618.892 185.275ZM570.42 194.996C564.685 194.997 559.113 193.085 554.585 189.564C550.058 186.043 546.834 181.113 545.423 175.554C544.012 169.995 544.494 164.124 546.794 158.87C549.093 153.616 553.079 149.278 558.12 146.543C561.786 144.625 565.864 143.627 570.002 143.636C573.395 143.576 576.765 144.189 579.919 145.44C583.074 146.691 585.949 148.554 588.379 150.922C590.809 153.29 592.745 156.117 594.076 159.238C595.408 162.359 596.108 165.713 596.135 169.105C596.163 172.498 595.518 175.863 594.237 179.005C592.957 182.148 591.066 185.005 588.675 187.412C586.284 189.82 583.439 191.729 580.306 193.031C577.172 194.333 573.812 195.001 570.419 194.996H570.42ZM547.78 116.996C550.159 113.464 552.714 110.054 555.436 106.779C555.984 106.127 556.528 105.472 557.112 104.851C560.034 101.732 563.047 101.301 566.726 103.519C568.54 104.64 570.178 106.024 571.586 107.626C574.303 110.681 576.757 113.962 578.92 117.432C581.374 121.319 583.82 125.209 586.191 129.147C589.591 134.796 591.276 141.062 592.849 147.676C588.906 143.553 583.902 140.597 578.388 139.133C572.875 137.669 567.064 137.753 561.595 139.376L561.501 139.403C561.369 139.442 561.236 139.479 561.101 139.519C555.813 141.057 551.032 143.978 547.251 147.981C543.469 151.985 540.825 156.924 539.59 162.291C539.473 162.791 539.34 163.284 539.267 163.791C539.255 163.971 539.206 164.146 539.126 164.307C539.045 164.468 538.933 164.611 538.796 164.728H525.442C524.952 164.73 524.472 164.868 524.057 165.128H523.902C523.76 165.131 523.619 165.115 523.482 165.081C522.512 160.19 520.324 155.623 517.121 151.802C513.919 147.981 509.804 145.029 505.158 143.22C512.673 142.62 519.339 140.02 525.829 136.773C534.992 132.188 542.076 125.385 547.784 116.994L547.78 116.996ZM494.48 194.996C489.029 194.997 483.737 193.16 479.46 189.782C475.182 186.403 472.169 181.681 470.908 176.378C469.646 171.075 470.21 165.502 472.508 160.559C474.806 155.616 478.704 151.593 483.572 149.14C486.764 147.591 490.265 146.783 493.813 146.776C497.009 146.684 500.191 147.228 503.174 148.378C506.158 149.527 508.883 151.258 511.191 153.47C513.5 155.682 515.345 158.331 516.621 161.263C517.896 164.194 518.575 167.351 518.619 170.547C518.664 173.744 518.072 176.918 516.878 179.884C515.685 182.85 513.913 185.549 511.667 187.824C509.42 190.099 506.744 191.905 503.794 193.136C500.843 194.367 497.677 195 494.48 194.996V194.996ZM468.927 209.958C463.066 204.075 463.727 193.615 470.098 188.581C471.382 189.994 472.561 191.202 472.898 193.112C474.126 199.461 476.122 205.637 478.843 211.504C479.043 211.965 479.211 212.443 479.457 213.079C477.585 213.577 475.611 213.549 473.754 212.998C471.897 212.447 470.228 211.396 468.929 209.958H468.927ZM617.463 205.522C613.769 215.001 602.386 217.305 595.516 209.806C590.816 204.671 589.409 198.506 592.241 192.092C592.473 191.567 592.723 191.075 592.985 190.6C594.233 189.286 595.365 187.865 596.368 186.355C601.79 181.726 609.452 182.887 614.359 188.377C617.241 191.623 618.749 195.861 618.565 200.198C618.501 202.022 618.129 203.822 617.465 205.522H617.463Z" fill="#2B1149"/>
</svg>
