<svg width="224" height="321" viewBox="0 0 224 321" fill="none" xmlns="http://www.w3.org/2000/svg">
<path d="M223.189 262.951C222.703 255.05 221.697 247.19 220.177 239.421C218.077 228.286 214.292 217.691 210.059 207.232L207.141 209.016C207.177 209.098 207.208 209.182 207.241 209.264C207.169 209.3 207.099 209.34 207.026 209.375C208.826 213.893 210.665 218.861 212.573 224.481C218.647 242.362 228.305 297.75 203.923 308.481C189.391 314.874 171.302 317.22 158.414 317.021C155.064 316.977 151.721 316.686 148.414 316.148C147.783 316.112 147.183 315.862 146.713 315.44C146.243 315.017 145.931 314.447 145.829 313.823C144.874 309.033 143.597 304.288 143.674 299.344C143.698 297.766 143.753 296.188 143.747 294.609C143.747 294.122 143.872 293.909 144.2 293.828H192.8C192.945 293.826 193.088 293.805 193.227 293.766C194.444 293.635 194.776 293.084 194.776 291.523C194.776 266.892 194.78 242.26 194.789 217.629C194.849 217.191 194.761 216.745 194.539 216.363C194.317 215.98 193.974 215.683 193.564 215.517H193.034C192.957 215.504 192.879 215.496 192.8 215.494H138.884C139.273 214.685 139.617 213.949 139.977 213.221C141.54 210.059 143.095 206.894 144.677 203.744C144.935 203.232 145.05 202.908 144.377 202.656C144.05 202.478 143.75 202.255 143.484 201.994C138.096 199.224 132.709 196.453 127.321 193.682C118.828 189.301 110.335 184.915 101.844 180.526C100.55 179.945 99.518 178.905 98.9467 177.607C98.3754 176.309 98.3055 174.845 98.7509 173.499C99.0425 172.742 99.4951 172.057 100.077 171.492C100.659 170.927 101.357 170.496 102.122 170.226C102.887 169.957 103.702 169.858 104.509 169.934C105.317 170.01 106.098 170.261 106.799 170.669C115.299 175.042 123.8 179.408 132.305 183.769C137.387 186.378 142.47 188.987 147.553 191.595C147.789 191.716 148.01 191.869 148.237 192.007C148.601 192.145 149 192.162 149.374 192.056C149.749 191.95 150.08 191.726 150.317 191.417C150.527 191.106 150.634 190.738 150.624 190.363C150.615 189.989 150.489 189.626 150.263 189.327C149.119 188.487 147.737 188.074 146.575 187.268C146.475 187.242 146.351 187.245 146.384 187.085C145.809 187.001 145.264 186.77 144.804 186.415C138.522 183.202 132.246 179.979 125.975 176.745C125.857 176.685 125.748 176.607 125.635 176.538C122.472 174.927 119.308 173.316 116.143 171.705C113.481 170.344 110.849 168.921 108.159 167.618C106.626 166.799 104.888 166.444 103.156 166.596C101.425 166.749 99.7747 167.402 98.4081 168.476C96.2795 171.725 94.3162 175.08 92.5253 178.527C90.2586 183.151 87.9895 187.776 85.7182 192.402C85.6362 192.569 85.5372 192.728 85.4462 192.89C83.2862 197.307 81.1265 201.724 78.9672 206.141C77.5472 209.041 76.1099 211.941 74.7089 214.857C74.6542 215.013 74.5615 215.153 74.4394 215.265C74.3172 215.376 74.1696 215.456 74.0092 215.496C73.8854 215.523 73.7589 215.535 73.6322 215.534V215.534C65.4412 215.514 57.249 215.527 49.059 215.507C48.8014 215.469 48.5383 215.518 48.3119 215.646C48.0855 215.775 47.9089 215.976 47.81 216.217C47.71 216.417 47.6012 216.622 47.4902 216.817C47.4472 216.897 47.4009 216.976 47.3559 217.055C47.0109 217.655 46.638 218.246 46.287 218.845C46.635 218.852 46.987 218.864 47.33 218.864C95.026 218.864 142.722 218.857 190.418 218.844C190.657 218.827 190.898 218.868 191.118 218.964V290.397C191.012 290.443 190.899 290.47 190.784 290.478H72.6083H39.832C38.692 290.478 38.832 290.614 38.832 289.431C38.8273 268.863 38.8254 248.296 38.8261 227.731L35.4872 230.254C35.3672 230.313 35.2483 230.374 35.1293 230.434V292.149C35.1296 292.593 35.3057 293.018 35.6195 293.332C35.9334 293.646 36.3593 293.823 36.8031 293.823H72.1752C72.2037 293.83 72.2315 293.84 72.2582 293.852C71.7706 297.377 71.6185 300.94 71.8041 304.494C71.8791 308.258 72.0829 311.978 72.2089 314.036C70.1089 314.203 66.0461 314.436 60.7631 314.336C59.9411 314.318 59.1202 314.298 58.2992 314.265C58.0732 314.256 57.8432 314.246 57.6152 314.235C50.294 313.926 43.0164 312.944 35.8749 311.303C30.6998 310.092 25.6324 308.459 20.7231 306.423C13.2891 303.355 8.68687 297.787 6.29387 290.239C5.02416 286.064 4.34839 281.731 4.28605 277.368C4.00505 267.112 5.78618 257.133 8.46818 247.295C12.0617 234.54 16.8474 222.153 22.7621 210.295C25.9821 203.688 29.5253 197.257 33.2963 190.949C33.4063 190.766 33.5279 190.591 33.6449 190.412L33.5361 189.981C33.1901 188.616 32.8437 187.251 32.497 185.886C32.4501 185.734 32.4166 185.578 32.3969 185.42C22.146 201.73 13.8299 219.179 7.61613 237.413C2.98513 251.101 -9.93805 296.727 18.2279 309.119C34.6879 316.362 52.1443 317.749 63.1083 317.749C68.0763 317.749 71.708 317.464 73.308 317.31C73.608 317.285 73.9132 317.267 74.2162 317.238C74.4787 317.248 74.74 317.198 74.9804 317.092C75.2208 316.986 75.434 316.827 75.6039 316.627C75.7739 316.426 75.896 316.19 75.9613 315.936C76.0267 315.681 76.0333 315.415 75.9809 315.158C75.8649 313.37 75.8332 311.574 75.6572 309.793C75.5952 309.168 75.7571 308.977 76.1401 308.918C76.8021 308.906 77.4505 308.881 78.0859 308.844C82.4043 308.786 86.6546 307.759 90.5229 305.838C92.7665 304.764 94.713 303.157 96.1918 301.157C97.6706 299.157 98.6372 296.826 99.0063 294.366C99.0653 294.007 99.2062 293.875 99.4062 293.826H117.951C117.963 293.826 117.971 293.837 117.983 293.84C118.5 298.085 121.743 308.692 141.013 308.924C141.033 308.924 141.061 308.924 141.08 308.934C141.114 309.069 141.147 309.21 141.18 309.34C141.408 310.22 141.59 311.111 141.725 312.01C142.209 314.876 142.812 318.443 146.747 319.271C149.966 319.884 153.232 320.228 156.508 320.297L156.616 320.303H156.716C157.722 320.334 158.752 320.355 159.822 320.355C160.757 320.355 161.722 320.339 162.7 320.314H164.01C168.768 320.134 173.512 319.7 178.223 319.014C186.603 317.778 194.834 315.681 202.784 312.757C210.734 309.857 215.95 304.372 219.084 296.679C221.116 291.469 222.396 285.997 222.884 280.426C223.45 274.618 223.552 268.775 223.189 262.951ZM134.713 215.489H78.1269C84.0769 203.362 89.978 191.337 95.956 179.154C96.9949 181.192 98.6977 182.814 100.783 183.754C101.629 184.154 102.45 184.606 103.283 185.034C115.434 191.285 127.554 197.593 139.645 203.959C140.58 204.453 140.593 204.459 140.117 205.425C138.578 208.543 137.017 211.648 135.497 214.775C135.436 214.949 135.332 215.106 135.195 215.231C135.058 215.355 134.893 215.444 134.713 215.489V215.489ZM92.5951 299.829C89.5531 303.286 84.4551 305.196 77.4321 305.529H77.373C75.459 305.608 75.4589 305.608 75.4579 303.724V300.912C75.4369 298.772 75.571 296.633 75.8583 294.512C75.9223 294.112 76.051 293.907 76.352 293.826H95.3691H95.3891C95.0543 296.054 94.0843 298.138 92.5951 299.829V299.829ZM140.036 305.55C135.698 305.34 131.46 304.704 127.636 302.426C126.163 301.596 124.881 300.464 123.875 299.105C122.868 297.747 122.16 296.191 121.795 294.54C121.695 294.106 121.712 293.902 121.974 293.824H140.129C139.875 297.739 139.98 301.67 140.443 305.566C140.306 305.562 140.174 305.554 140.036 305.55V305.55Z" fill="#2B1149"/>
<path d="M0.951904 277.949C0.907904 277.971 0.864998 277.996 0.822998 278.022V272.398C0.86318 272.427 0.906731 272.451 0.952881 272.47C0.952214 274.293 0.951904 276.12 0.951904 277.949Z" fill="#A752F8"/>
<path d="M116.515 0.349976C116.491 0.363379 116.473 0.383878 116.462 0.408508C116.451 0.433138 116.448 0.460615 116.454 0.486969H111.754C111.76 0.46062 111.757 0.433196 111.746 0.4086C111.735 0.384004 111.716 0.363494 111.693 0.349976H116.515Z" fill="#A752F8"/>
<path d="M33.6438 190.408C33.2618 188.899 32.8795 187.391 32.4969 185.882C32.2049 184.989 32.4638 184.039 32.2068 183.135C32.1188 182.828 32.0182 182.725 31.6902 182.702C29.2966 182.541 27.0306 181.563 25.2723 179.931C23.5139 178.299 22.3697 176.112 22.031 173.737C21.7981 172.14 21.9433 170.511 22.4554 168.981C22.9674 167.451 23.8318 166.063 24.9788 164.928C26.1016 163.76 27.4759 162.862 28.9969 162.303C30.5178 161.744 32.1459 161.538 33.7581 161.701C35.5383 161.796 37.256 162.389 38.7161 163.412C39.5221 163.968 40.039 164 40.658 163.26C40.831 163.052 41.1521 162.96 41.3011 162.698C42.7197 161.61 44.2175 160.629 45.782 159.764C48.8141 158.195 52.1362 157.266 55.5423 157.035C58.9483 156.803 62.3654 157.275 65.5818 158.419C66.0818 158.6 66.3478 158.466 66.6028 157.996C67.262 156.797 68.1527 155.742 69.2229 154.89C70.9501 153.517 73.0482 152.691 75.2478 152.52C77.4475 152.348 79.6486 152.837 81.5682 153.925C83.4252 154.969 84.9092 156.567 85.8128 158.496C86.7163 160.426 86.9942 162.589 86.6072 164.684C86.3603 166.293 85.7276 167.818 84.7635 169.129C83.7993 170.441 82.5321 171.499 81.0701 172.215C80.5411 172.493 80.5038 172.647 80.6858 173.132C81.8622 176.155 82.431 179.38 82.3597 182.623C82.2883 185.866 81.578 189.064 80.2698 192.032C80.1868 192.232 79.9699 192.416 80.1399 192.714C81.904 192.398 83.7147 192.456 85.4549 192.885C83.2962 197.302 81.1368 201.719 78.9768 206.136C77.5558 209.036 76.1201 211.936 74.7181 214.852C74.6405 215.071 74.491 215.258 74.2937 215.381C74.0964 215.504 73.8631 215.556 73.6321 215.529C65.4411 215.509 57.2499 215.522 49.0579 215.501C48.8002 215.463 48.5374 215.512 48.3108 215.64C48.0843 215.769 47.907 215.97 47.8079 216.211C47.3619 217.119 46.798 217.969 46.285 218.843C44.976 220.599 43.7409 222.413 42.2669 224.043C41.1379 225.288 39.973 226.498 38.823 227.724L35.4842 230.248C34.8842 230.542 34.2979 230.859 33.6839 231.124C32.1397 231.799 30.4134 231.932 28.784 231.502C27.1546 231.073 25.7176 230.105 24.7068 228.757C23.5079 227.135 22.8077 225.199 22.6912 223.185C22.6395 221.055 23.2911 218.968 24.5452 217.246C26.9119 213.606 29.8624 210.382 33.2781 207.702C36.0581 205.42 38.8979 203.209 42.5369 202.241C40.7187 200.903 39.0811 199.336 37.6648 197.578C35.979 195.399 34.6241 192.983 33.6438 190.408ZM57.6639 189.971C59.6533 189.96 61.5696 189.218 63.0481 187.887C64.6281 186.378 64.2261 184.576 62.1941 183.826C61.1319 183.453 59.9918 183.357 58.8821 183.548C57.9479 183.619 57.0369 183.875 56.2019 184.3C55.367 184.725 54.6242 185.311 54.0169 186.025C53.7847 186.272 53.6166 186.571 53.5271 186.898C53.4377 187.225 53.4296 187.568 53.5037 187.899C53.5778 188.229 53.732 188.537 53.9524 188.794C54.1728 189.051 54.4526 189.25 54.7679 189.374C55.6682 189.809 56.6621 190.014 57.6609 189.971H57.6639ZM50.3401 178.643C50.3468 178.321 50.2891 178.001 50.1707 177.702C50.0523 177.402 49.8752 177.13 49.6502 176.899C49.4252 176.669 49.1567 176.486 48.8601 176.361C48.5636 176.236 48.2451 176.171 47.9231 176.17C47.2691 176.168 46.641 176.427 46.1775 176.888C45.714 177.35 45.4529 177.976 45.4515 178.63C45.45 179.284 45.7083 179.912 46.1697 180.376C46.6311 180.839 47.2579 181.101 47.9119 181.102C48.2338 181.103 48.5527 181.04 48.8499 180.917C49.1471 180.793 49.4168 180.611 49.6429 180.382C49.8689 180.153 50.0467 179.881 50.1663 179.582C50.2859 179.283 50.3447 178.964 50.3391 178.642L50.3401 178.643ZM63.804 172.586C63.482 172.588 63.1634 172.654 62.867 172.78C62.5706 172.905 62.3025 173.089 62.0774 173.319C61.8524 173.549 61.6749 173.822 61.5559 174.121C61.437 174.421 61.3786 174.74 61.3841 175.062C61.3896 175.384 61.4591 175.702 61.5882 175.997C61.7173 176.292 61.9033 176.559 62.136 176.781C62.3688 177.004 62.6436 177.178 62.9441 177.293C63.2447 177.409 63.5651 177.464 63.887 177.455C64.209 177.453 64.5276 177.387 64.824 177.261C65.1204 177.135 65.389 176.952 65.6141 176.722C65.8391 176.491 66.0161 176.219 66.135 175.92C66.254 175.62 66.3124 175.3 66.3069 174.978C66.3014 174.657 66.2319 174.339 66.1028 174.044C65.9737 173.749 65.7877 173.482 65.555 173.26C65.3222 173.037 65.0474 172.863 64.7469 172.748C64.4463 172.632 64.1259 172.577 63.804 172.586Z" fill="#ECAA27"/>
<path d="M193.557 215.512H138.877C139.27 214.693 139.618 213.951 139.977 213.212C141.54 210.05 143.095 206.885 144.677 203.735C144.935 203.223 145.049 202.899 144.377 202.647C144.049 202.469 143.748 202.246 143.483 201.985C145.067 198.656 146.652 195.326 148.237 191.996C148.592 192.144 148.986 192.17 149.358 192.07C149.729 191.969 150.057 191.748 150.289 191.441C150.521 191.134 150.644 190.759 150.639 190.374C150.634 189.989 150.502 189.617 150.262 189.316C151.229 189.215 152.134 188.792 152.832 188.116C153.303 187.607 153.598 187.71 154.052 188.116C159.014 192.629 165.132 195.677 171.723 196.92C178.315 198.163 185.123 197.552 191.388 195.156C192.007 194.918 192.445 194.593 192.206 193.851C192.018 193.266 191.527 193.139 190.737 193.439C189.463 193.921 188.165 194.338 186.848 194.689C186.265 194.845 186.118 194.753 186.286 194.16C186.529 193.225 186.556 192.247 186.363 191.3C186.15 190.393 185.825 189.515 185.397 188.687L197.014 186.88L200.641 186.58C203.017 186.5 205.395 186.721 207.716 187.237C210.04 187.796 212.196 188.899 214.01 190.456C215.824 192.012 217.241 193.977 218.147 196.189C219.322 198.8 218.788 200.776 216.566 202.589C214.73 204.059 212.814 205.425 210.826 206.68C210.559 206.853 210.307 207.05 210.048 207.235L207.129 209.018C204.425 210.617 201.637 212.069 198.776 213.366C197.057 214.111 195.303 214.798 193.557 215.512Z" fill="#19C9EA"/>
<path d="M150.657 90.556C150.334 92.5568 149.823 94.5226 149.129 96.427C146.804 103.214 143.436 109.597 139.146 115.347C134.564 121.473 127.801 125.602 120.259 126.878C112.716 128.155 104.972 126.481 98.6294 122.204C92.7034 118.386 88.5478 113.021 85.2798 106.893C81.9198 100.382 79.4557 93.4465 77.9546 86.275C76.4264 79.3522 75.4525 72.3186 75.0425 65.241C74.9935 64.449 74.9228 63.661 74.9048 62.866C74.8795 62.6591 74.933 62.4502 75.0547 62.281C75.1765 62.1118 75.3573 61.9947 75.5616 61.953C78.1616 61.023 80.7615 60.112 83.3365 59.114C86.5031 57.886 89.6533 56.613 92.7867 55.295C96.5373 53.7077 100.217 51.9663 103.827 50.071C108.157 47.8504 112.296 45.2724 116.198 42.364C118.203 40.8374 120.067 39.1339 121.768 37.274C122.587 36.3179 123.354 35.3192 124.067 34.282C124.209 34.09 124.295 33.87 124.577 33.797C125.469 37.118 127.584 39.681 129.711 42.252C132.32 45.2601 135.093 48.1211 138.018 50.822C140.507 53.2818 143.157 55.5742 145.949 57.684C146.137 57.8568 146.311 58.0437 146.471 58.243C144.929 57.8224 143.345 57.5778 141.749 57.514C138.983 57.3974 136.23 57.9385 133.714 59.0927C131.198 60.247 128.992 61.9816 127.276 64.154C125.315 66.5112 124.041 69.3626 123.592 72.396C123.516 72.881 123.333 72.996 122.873 72.988C120.918 72.963 118.962 72.957 117.007 72.988C116.469 72.997 116.302 72.821 116.178 72.31C115.012 67.656 112.162 63.5992 108.18 60.9232C104.197 58.2472 99.3649 57.1418 94.6153 57.8205C89.8656 58.4992 85.5359 60.9139 82.4625 64.5982C79.389 68.2824 77.7897 72.9749 77.9737 77.7693C78.1576 82.5636 80.1118 87.1198 83.4585 90.5577C86.8053 93.9956 91.3071 96.0714 96.0948 96.3842C100.882 96.6969 105.616 95.2245 109.382 92.2512C113.147 89.2779 115.677 85.0147 116.483 80.285C116.666 79.176 116.757 78.0539 116.755 76.93C116.755 76.505 116.835 76.317 117.319 76.323C119.167 76.35 121.02 76.346 122.863 76.323C123.295 76.323 123.379 76.49 123.415 76.879C123.742 80.9003 125.429 84.6902 128.199 87.6239C130.968 90.5577 134.655 92.4602 138.65 93.018C142.602 93.6168 146.639 92.8439 150.09 90.828C150.229 90.756 150.373 90.694 150.657 90.556ZM123.801 108.966V109.004C119.925 109.093 116.05 109.183 112.174 109.274C111.213 109.297 110.774 109.826 110.922 110.797C111.026 111.927 111.467 112.999 112.188 113.875C112.909 114.751 113.876 115.39 114.964 115.709C117.816 116.631 120.903 116.51 123.674 115.37C124.798 114.945 125.757 114.173 126.413 113.166C127.068 112.159 127.386 110.97 127.321 109.77C127.312 109.123 127.059 108.93 126.448 108.956C125.567 108.994 124.684 108.966 123.801 108.966V108.966ZM117.959 101.011L118.118 100.989C121.318 100.538 124.528 100.109 127.726 99.626C127.986 99.5815 128.231 99.4745 128.44 99.3141C128.65 99.1538 128.817 98.945 128.928 98.7056C129.039 98.4662 129.09 98.2035 129.077 97.94C129.064 97.6765 128.987 97.4201 128.853 97.193C126.453 92.724 124.012 88.273 121.585 83.817C121.466 83.5753 121.286 83.3686 121.064 83.2171C120.841 83.0655 120.582 82.9742 120.314 82.952C120.007 82.9038 119.694 82.9461 119.411 83.0739C119.129 83.2016 118.89 83.4092 118.724 83.671C118.537 83.9507 118.437 84.2796 118.437 84.616C118.437 84.9524 118.537 85.2813 118.724 85.561C120.63 89.054 122.517 92.561 124.436 96.044C124.726 96.572 124.705 96.713 124.059 96.793C121.91 97.06 119.766 97.384 117.627 97.72C117.421 97.7484 117.222 97.8172 117.043 97.9226C116.863 98.028 116.705 98.1679 116.58 98.3342C116.454 98.5005 116.363 98.69 116.311 98.8918C116.258 99.0935 116.246 99.3036 116.275 99.51C116.312 99.9274 116.507 100.315 116.82 100.594C117.133 100.873 117.54 101.022 117.959 101.011V101.011Z" fill="#FEFEFE"/>
<path d="M175.295 188.976C176.058 189.104 176.829 189.182 177.602 189.208C176.829 189.153 176.059 189.079 175.295 188.976Z" fill="#FEFEFE"/>
<path d="M190.75 193.438C189.476 193.92 188.178 194.338 186.861 194.688C186.278 194.844 186.131 194.752 186.299 194.159C186.542 193.224 186.569 192.246 186.376 191.299C186.229 190.4 185.987 189.52 185.653 188.673C185.09 188.708 184.021 188.962 183.453 188.987C183.42 189.939 184.582 190.94 184.722 191.857C184.903 193.05 184.335 194.045 184.122 195.128C184.073 195.374 183.755 195.321 183.564 195.348C181.917 195.606 180.252 195.733 178.584 195.728C179.26 194.901 179.752 193.94 180.028 192.908C180.303 191.876 180.357 190.798 180.184 189.744C180.163 189.672 180.158 189.595 180.172 189.521C180.185 189.447 180.216 189.376 180.261 189.316C179.472 189.307 178.686 189.28 177.903 189.23C178.024 189.234 178.138 189.283 178.225 189.367C178.311 189.451 178.363 189.565 178.37 189.685C178.584 190.742 178.485 191.838 178.084 192.839C177.682 193.839 176.996 194.701 176.111 195.316C175.975 195.423 175.819 195.502 175.653 195.548C175.486 195.595 175.312 195.608 175.14 195.587C174.504 195.501 173.861 195.458 173.23 195.35C172.183 195.171 171.143 194.95 169.861 194.707C171.641 193.354 172.977 191.502 173.699 189.386C173.847 189.018 174.03 188.842 174.321 188.822C173.546 188.693 172.778 188.537 172.021 188.345C172.088 188.445 172.073 188.574 171.991 188.784C171.263 190.845 169.846 192.592 167.978 193.728C167.852 193.819 167.704 193.877 167.55 193.896C167.395 193.914 167.238 193.894 167.093 193.836C165.493 193.259 163.934 192.572 162.428 191.78C162.848 191.566 163.155 191.416 163.458 191.257C165.221 190.371 166.59 188.862 167.302 187.022C167.339 186.891 167.414 186.773 167.517 186.684C166.903 186.378 166.304 186.041 165.724 185.673C165.766 186.028 165.688 186.386 165.501 186.691C164.432 188.813 162.541 189.76 160.427 190.438C160.173 190.519 160.014 190.372 159.843 190.263C158.037 189.111 156.337 187.801 154.763 186.349C154.589 186.188 154.4 186.066 154.528 185.749C155.677 182.943 155.128 180.181 154.271 177.435C153.886 175.872 153.155 174.414 152.133 173.17C151.917 172.935 151.986 172.765 152.096 172.534C152.192 172.367 152.223 172.171 152.183 171.983C152.144 171.795 152.036 171.628 151.881 171.514C149.449 169.764 146.958 168.151 143.749 168.439C143.034 168.494 142.338 168.702 141.709 169.047C141.08 169.393 140.532 169.869 140.102 170.444C139.672 171.019 139.37 171.678 139.216 172.379C139.062 173.08 139.059 173.806 139.208 174.508C139.848 177.014 142.783 178.4 145.577 177.513C145.828 177.433 146.077 177.34 146.339 177.249C146.524 177.615 146.263 177.883 146.176 178.168C145.29 181.088 145.02 183.986 146.397 186.847C146.414 186.922 146.416 186.999 146.402 187.074C146.538 187.061 146.562 187.162 146.589 187.262C147.752 188.068 149.134 188.481 150.277 189.321C151.244 189.22 152.148 188.797 152.847 188.121C153.317 187.612 153.612 187.715 154.066 188.121C159.029 192.634 165.146 195.682 171.738 196.925C178.329 198.168 185.137 197.557 191.402 195.161C192.021 194.923 192.459 194.598 192.22 193.856C192.03 193.266 191.54 193.138 190.75 193.438ZM143.175 175.891C142.612 175.834 142.083 175.6 141.661 175.222C141.24 174.845 140.949 174.344 140.83 173.791C140.776 173.204 140.886 172.613 141.15 172.085C141.413 171.557 141.818 171.113 142.32 170.803C142.902 170.472 143.548 170.267 144.215 170.204C144.881 170.14 145.554 170.218 146.188 170.433C147.561 170.868 148.853 171.524 150.015 172.374C148.751 172.801 147.625 173.558 146.751 174.566C146.328 175.086 145.773 175.484 145.144 175.717C144.515 175.95 143.835 176.01 143.175 175.891ZM151.775 186.711C151.53 187 151.215 187.222 150.86 187.356C150.505 187.49 150.123 187.531 149.748 187.476C149.373 187.421 149.017 187.271 148.716 187.041C148.415 186.811 148.177 186.508 148.025 186.161C147.025 184.418 147.088 182.544 147.371 180.446C148.697 182.421 150.192 184.278 151.839 185.994C152.127 186.284 152.031 186.471 151.777 186.711H151.775ZM153.283 183.894C153.224 184.15 153.148 184.402 153.057 184.649C151.894 183.485 150.827 182.228 149.867 180.891C149.501 180.397 149.213 179.838 148.805 179.386C148.448 179.043 148.238 178.574 148.219 178.079C148.2 177.584 148.375 177.101 148.705 176.732C149.173 176.048 149.621 175.356 150.145 174.711C150.564 174.196 150.91 174.272 151.184 174.78C152.721 177.623 153.782 180.583 153.285 183.894H153.283Z" fill="#FEFEFE"/>
<path d="M129.42 127.448C129.539 131.665 130.27 135.842 131.59 139.848C132.984 144.314 135.533 148.331 138.98 151.494C139.554 152.004 139.504 152.212 138.773 152.431C131.979 154.562 124.922 155.74 117.804 155.931C110.597 156.088 103.429 154.835 96.7036 152.242C95.7976 151.891 95.5413 151.583 95.8213 150.654C95.9947 149.83 96.0815 148.989 96.0796 148.147C96.2626 146.075 96.4675 144.001 96.6255 141.926C96.8065 139.564 97.0394 137.204 97.2564 134.844C97.4764 132.428 97.7873 130.021 97.8853 127.595C97.9586 127.29 98.0131 126.981 98.0484 126.67C97.9614 125.777 98.3487 125.98 98.8487 126.262C104.21 129.347 110.329 130.866 116.51 130.645C120.662 130.49 124.745 129.537 128.536 127.836C128.798 127.717 129.065 127.603 129.42 127.448Z" fill="#FEFEFE"/>
<path d="M97.3143 60.8619C100.502 60.8681 103.617 61.8198 106.264 63.5966C108.91 65.3734 110.971 67.8955 112.184 70.8437C113.397 73.7919 113.708 77.0336 113.078 80.1588C112.449 83.2839 110.905 86.152 108.645 88.4C106.384 90.648 103.508 92.1749 100.38 92.7876C97.2512 93.4002 94.0111 93.071 91.0697 91.8417C88.1283 90.6123 85.6175 88.5381 83.8553 85.8813C82.0932 83.2246 81.1588 80.1049 81.1703 76.9169C81.2042 72.654 82.9185 68.5766 85.9413 65.5705C88.964 62.5644 93.0512 60.8723 97.3143 60.8619V60.8619ZM100.792 78.9949C100.789 78.4442 100.735 77.8949 100.632 77.3539C100.552 76.7384 100.255 76.1714 99.7953 75.7543C99.3355 75.3372 98.7424 75.0971 98.1219 75.0769C97.5105 75.148 96.9379 75.4114 96.4857 75.829C96.0335 76.2467 95.7256 76.7971 95.6063 77.4009C95.4072 78.7271 95.5554 80.0823 96.037 81.3339C96.1219 81.8284 96.3814 82.2761 96.7679 82.596C97.1544 82.9159 97.6423 83.0869 98.1439 83.0779C98.7106 83.0888 99.2643 82.9054 99.7123 82.558C100.16 82.2107 100.476 81.7205 100.606 81.1689C100.777 80.4576 100.839 79.7248 100.792 78.9949V78.9949Z" fill="#FEFEFE"/>
<path d="M141.18 89.849C138.307 89.8464 135.499 88.9915 133.111 87.3926C130.724 85.7936 128.865 83.5224 127.77 80.8664C126.674 78.2104 126.39 75.2891 126.955 72.472C127.52 69.655 128.909 67.0689 130.944 65.041C132.979 63.0132 135.571 61.6347 138.39 61.0801C141.209 60.5255 144.129 60.8197 146.781 61.9254C149.433 63.0311 151.697 64.8987 153.287 67.2918C154.877 69.6848 155.722 72.4958 155.713 75.369C155.695 79.2131 154.157 82.8939 151.434 85.6071C148.71 88.3203 145.024 89.8453 141.18 89.849V89.849ZM141.707 78.749C141.76 78.2338 141.735 77.7134 141.63 77.206C141.591 76.8921 141.478 76.592 141.3 76.3304C141.122 76.0688 140.885 75.8531 140.607 75.7012C140.33 75.5492 140.02 75.4652 139.704 75.4561C139.387 75.4471 139.073 75.5132 138.788 75.649C138.351 75.7881 137.962 76.0484 137.667 76.3996C137.371 76.7507 137.182 77.1784 137.12 77.633C136.934 78.7161 136.973 79.8258 137.235 80.893C137.558 82.144 138.177 82.667 139.269 82.651C139.81 82.6771 140.342 82.5023 140.763 82.1602C141.183 81.818 141.463 81.3326 141.547 80.797C141.7 80.1258 141.755 79.4359 141.711 78.749H141.707Z" fill="#FEFEFE"/>
<path d="M38.824 227.719C39.973 226.493 41.1378 225.283 42.2668 224.038C43.7418 222.412 44.9769 220.598 46.2859 218.838C46.6329 218.845 46.9859 218.857 47.3289 218.857C95.0249 218.857 142.721 218.85 190.417 218.837C191.271 218.837 191.438 219.071 191.438 219.882C191.416 243.102 191.416 266.322 191.438 289.541C191.438 290.333 191.226 290.486 190.471 290.485C140.256 290.466 90.0425 290.46 39.8298 290.466C38.6898 290.466 38.8298 290.602 38.8298 289.419C38.8258 268.853 38.824 248.286 38.824 227.719Z" fill="#FEFEFE"/>
<path d="M78.115 215.514L95.9548 179.155C96.9935 181.193 98.6964 182.816 100.782 183.755C101.628 184.155 102.448 184.607 103.282 185.035C115.433 191.286 127.553 197.594 139.644 203.96C140.579 204.454 140.592 204.46 140.116 205.426C138.577 208.544 137.016 211.649 135.496 214.776C135.412 215.02 135.247 215.228 135.029 215.365C134.81 215.503 134.552 215.562 134.296 215.533C120.8 215.511 107.304 215.505 93.8079 215.516H78.1189L78.115 215.514Z" fill="#A058FF"/>
<path d="M148.249 192.001L143.496 201.99C138.108 199.22 132.72 196.449 127.333 193.678C118.839 189.297 110.347 184.911 101.856 180.522C100.563 179.941 99.5303 178.901 98.959 177.603C98.3877 176.305 98.318 174.841 98.7632 173.495C99.0541 172.738 99.5061 172.053 100.088 171.487C100.67 170.922 101.367 170.49 102.133 170.221C102.898 169.951 103.713 169.852 104.52 169.928C105.328 170.005 106.109 170.256 106.81 170.665C115.309 175.038 123.812 179.404 132.316 183.765C137.398 186.374 142.481 188.983 147.564 191.591C147.801 191.711 148.022 191.859 148.249 192.001Z" fill="#FEFEFE"/>
<path d="M125.646 176.533C131.3 172.433 136.665 167.943 142.466 164.043C143.691 163.284 144.768 162.309 145.644 161.164C146.215 160.417 146.922 159.784 147.729 159.3C148.591 158.689 149.645 158.41 150.696 158.514C151.747 158.618 152.726 159.097 153.453 159.864C154.892 161.394 155.847 163.316 156.198 165.387C157.834 172.472 160.953 179.131 165.349 184.923C165.574 185.155 165.711 185.458 165.738 185.78C165.765 186.102 165.68 186.424 165.497 186.69C164.427 188.812 162.537 189.76 160.422 190.437C160.168 190.518 160.009 190.371 159.839 190.262C158.033 189.11 156.333 187.8 154.759 186.347C154.584 186.186 154.395 186.064 154.524 185.747C155.673 182.941 155.124 180.179 154.266 177.434C153.881 175.87 153.151 174.413 152.129 173.169C151.913 172.934 151.983 172.764 152.092 172.533C152.188 172.366 152.219 172.17 152.18 171.982C152.14 171.794 152.033 171.627 151.878 171.513C149.446 169.763 146.955 168.15 143.746 168.438C143.03 168.493 142.335 168.7 141.706 169.046C141.077 169.392 140.529 169.868 140.099 170.443C139.669 171.018 139.367 171.677 139.213 172.378C139.059 173.079 139.057 173.805 139.206 174.507C139.846 177.013 142.779 178.399 145.573 177.512C145.825 177.432 146.074 177.339 146.336 177.248C146.521 177.614 146.26 177.882 146.174 178.167C145.288 181.086 145.018 183.984 146.394 186.846C146.409 186.922 146.409 187.001 146.394 187.078C145.817 186.995 145.271 186.764 144.81 186.407C138.528 183.194 132.251 179.971 125.981 176.737C125.867 176.679 125.759 176.602 125.646 176.533Z" fill="#19C9EA"/>
<path d="M75.4599 300.911C75.4389 298.771 75.5729 296.632 75.8603 294.511C75.9463 293.977 76.1473 293.78 76.7353 293.782C82.814 293.809 88.8925 293.809 94.9711 293.782C95.7221 293.782 95.7262 294.061 95.5922 294.62C95.1316 296.541 94.2219 298.325 92.9384 299.827C91.6549 301.329 90.0338 302.505 88.2079 303.259C84.8891 304.702 81.3176 305.473 77.6992 305.529C77.5922 305.529 77.4839 305.529 77.3779 305.529C75.4639 305.608 75.4638 305.608 75.4628 303.724L75.4599 300.911Z" fill="#FEFEFE"/>
<path d="M131.062 293.797C133.953 293.797 136.842 293.808 139.733 293.786C140.247 293.786 140.491 293.831 140.446 294.461C140.211 298.01 140.303 301.574 140.722 305.106C140.75 305.356 140.822 305.584 140.414 305.567C135.943 305.376 131.571 304.767 127.64 302.424C126.167 301.594 124.885 300.463 123.878 299.104C122.872 297.745 122.163 296.189 121.798 294.538C121.659 293.938 121.739 293.772 122.393 293.78C125.283 293.817 128.172 293.797 131.062 293.797Z" fill="#FEFEFE"/>
<path d="M146.394 187.074C146.536 187.057 146.559 187.161 146.586 187.262C146.487 187.236 146.358 187.239 146.394 187.074Z" fill="#19C8E9"/>
<path d="M57.6631 189.97C56.6617 190.013 55.6654 189.807 54.7632 189.37C54.4478 189.246 54.1677 189.047 53.9472 188.79C53.7268 188.533 53.5725 188.225 53.4985 187.895C53.4245 187.564 53.4327 187.22 53.5224 186.894C53.6121 186.567 53.7807 186.267 54.0132 186.021C54.6205 185.308 55.3628 184.721 56.1977 184.296C57.0327 183.871 57.9437 183.615 58.8779 183.544C59.9876 183.353 61.1276 183.449 62.1899 183.822C64.2219 184.572 64.6249 186.374 63.0449 187.883C61.5673 189.215 59.6522 189.958 57.6631 189.97Z" fill="#2B1149"/>
<path d="M50.3377 178.642C50.3431 178.964 50.2844 179.283 50.1648 179.582C50.0452 179.881 49.8669 180.153 49.6409 180.382C49.4148 180.611 49.1455 180.792 48.8484 180.916C48.5513 181.039 48.2327 181.102 47.9109 181.101C47.2569 181.1 46.6298 180.839 46.1682 180.375C45.7066 179.912 45.4483 179.285 45.4495 178.63C45.4507 177.976 45.7113 177.35 46.1746 176.888C46.6379 176.426 47.2657 176.168 47.9197 176.169C48.2417 176.17 48.5605 176.234 48.8572 176.36C49.1539 176.485 49.4226 176.668 49.6477 176.898C49.8728 177.128 50.0497 177.401 50.1682 177.701C50.2867 178 50.3443 178.32 50.3377 178.642V178.642Z" fill="#2B1149"/>
<path d="M63.8029 172.585C64.2845 172.578 64.7571 172.714 65.1613 172.976C65.5655 173.238 65.8828 173.613 66.0734 174.056C66.2641 174.498 66.3198 174.987 66.2326 175.46C66.1454 175.934 65.9198 176.371 65.5842 176.717C65.2486 177.062 64.8178 177.3 64.3469 177.401C63.8759 177.502 63.3857 177.46 62.9382 177.283C62.4906 177.105 62.106 176.798 61.8327 176.402C61.5594 176.005 61.41 175.536 61.403 175.055C61.392 174.733 61.4459 174.413 61.5617 174.113C61.6775 173.813 61.8527 173.539 62.0769 173.309C62.301 173.078 62.5693 172.895 62.8659 172.771C63.1625 172.646 63.4813 172.583 63.8029 172.585V172.585Z" fill="#2B1149"/>
<path d="M123.801 108.966C124.683 108.966 125.567 108.994 126.448 108.956C127.058 108.93 127.311 109.122 127.32 109.77C127.385 110.969 127.067 112.159 126.412 113.165C125.756 114.172 124.797 114.944 123.674 115.37C120.902 116.511 117.816 116.631 114.964 115.709C113.875 115.39 112.908 114.751 112.187 113.875C111.466 112.999 111.025 111.927 110.921 110.798C110.773 109.827 111.213 109.298 112.174 109.275C116.049 109.179 119.924 109.089 123.8 109.005L123.801 108.966Z" fill="#2B1149"/>
<path d="M117.958 101.011C117.54 101.022 117.133 100.873 116.82 100.594C116.508 100.316 116.313 99.9281 116.276 99.511C116.247 99.3047 116.259 99.0946 116.311 98.8929C116.363 98.6912 116.454 98.5018 116.58 98.3355C116.705 98.1692 116.863 98.0293 117.042 97.9238C117.222 97.8184 117.421 97.7494 117.627 97.721C119.767 97.384 121.909 97.06 124.058 96.794C124.705 96.714 124.726 96.573 124.435 96.045C122.517 92.559 120.63 89.056 118.724 85.562C118.537 85.2823 118.437 84.9534 118.437 84.6169C118.437 84.2805 118.537 83.9516 118.724 83.6719C118.89 83.4101 119.129 83.2026 119.412 83.0748C119.694 82.9471 120.008 82.9047 120.314 82.9529C120.583 82.9751 120.841 83.0664 121.064 83.218C121.287 83.3696 121.467 83.5763 121.586 83.818C124.014 88.274 126.45 92.7249 128.854 97.1939C128.989 97.4211 129.065 97.6774 129.078 97.9409C129.092 98.2044 129.041 98.4672 128.93 98.7065C128.819 98.9459 128.652 99.1548 128.442 99.3151C128.233 99.4754 127.987 99.5825 127.727 99.627C124.527 100.11 121.321 100.54 118.118 100.99L117.958 101.011Z" fill="#2B1149"/>
<path d="M169.857 194.707C171.636 193.354 172.972 191.502 173.695 189.386C173.715 189.284 173.758 189.187 173.82 189.103C173.881 189.019 173.96 188.949 174.052 188.898C174.143 188.848 174.244 188.818 174.348 188.81C174.452 188.802 174.556 188.817 174.654 188.854C175.673 189.07 176.711 189.191 177.754 189.216C178.093 189.226 178.282 189.306 178.36 189.685C178.574 190.741 178.475 191.838 178.073 192.838C177.672 193.839 176.987 194.7 176.102 195.316C175.966 195.423 175.81 195.502 175.643 195.548C175.477 195.595 175.302 195.608 175.131 195.587C174.495 195.501 173.852 195.458 173.221 195.35C172.18 195.17 171.139 194.954 169.857 194.707Z" fill="#19C9EA"/>
<path d="M162.425 191.779C162.844 191.565 163.152 191.415 163.454 191.256C165.217 190.37 166.587 188.861 167.299 187.021C167.45 186.636 167.57 186.532 167.975 186.734C169.17 187.329 170.42 187.809 171.707 188.167C172.107 188.278 172.129 188.417 171.987 188.783C171.259 190.844 169.841 192.591 167.974 193.727C167.847 193.818 167.7 193.876 167.545 193.894C167.39 193.913 167.233 193.893 167.089 193.835C165.488 193.258 163.93 192.571 162.425 191.779V191.779Z" fill="#19C9EA"/>
<path d="M150.014 172.377C148.751 172.804 147.625 173.561 146.751 174.569C146.328 175.089 145.773 175.485 145.144 175.718C144.515 175.95 143.835 176.01 143.175 175.891C142.612 175.834 142.082 175.6 141.661 175.222C141.239 174.845 140.948 174.344 140.83 173.791C140.775 173.204 140.886 172.613 141.149 172.085C141.413 171.557 141.818 171.113 142.319 170.803C142.901 170.472 143.547 170.267 144.214 170.203C144.881 170.14 145.554 170.218 146.188 170.433C147.561 170.869 148.853 171.526 150.014 172.377V172.377Z" fill="#19C9EA"/>
<path d="M153.059 184.649C151.896 183.484 150.829 182.228 149.869 180.891C149.503 180.397 149.215 179.838 148.807 179.386C148.45 179.043 148.24 178.574 148.221 178.079C148.203 177.584 148.377 177.101 148.707 176.732C149.174 176.048 149.622 175.356 150.147 174.711C150.567 174.196 150.912 174.272 151.186 174.78C152.718 177.624 153.778 180.58 153.286 183.895C153.226 184.151 153.15 184.403 153.059 184.649V184.649Z" fill="#19C9EA"/>
<path d="M178.58 195.728C179.256 194.901 179.748 193.94 180.024 192.908C180.3 191.876 180.353 190.798 180.18 189.744C180.12 189.368 180.239 189.208 180.624 189.183C181.611 189.119 182.595 189.032 183.581 188.952C183.734 188.939 183.956 188.871 183.929 189.117C183.819 190.138 184.575 190.895 184.722 191.856C184.904 193.049 184.336 194.044 184.122 195.127C184.073 195.373 183.755 195.32 183.564 195.347C181.916 195.605 180.249 195.733 178.58 195.728Z" fill="#19C9EA"/>
<path d="M147.373 180.445C148.699 182.42 150.195 184.276 151.842 185.993C152.128 186.284 152.031 186.471 151.778 186.711C151.533 187 151.218 187.222 150.863 187.356C150.508 187.49 150.125 187.531 149.75 187.476C149.375 187.421 149.02 187.271 148.719 187.041C148.417 186.811 148.18 186.508 148.028 186.161C147.029 184.417 147.091 182.544 147.373 180.445Z" fill="#19C9EA"/>
<path d="M100.792 78.9949C100.839 79.7247 100.777 80.4576 100.607 81.1689C100.476 81.7205 100.16 82.2107 99.7125 82.558C99.2646 82.9053 98.7113 83.0888 98.1446 83.0779C97.643 83.0868 97.1546 82.9158 96.7682 82.5959C96.3817 82.276 96.1227 81.8283 96.0377 81.3339C95.5562 80.0823 95.4078 78.727 95.6075 77.4009C95.7268 76.7972 96.0345 76.2469 96.4864 75.8293C96.9384 75.4117 97.5114 75.1482 98.1227 75.0769C98.7431 75.0971 99.3362 75.3371 99.796 75.7542C100.256 76.1713 100.552 76.7383 100.632 77.3539C100.735 77.8949 100.789 78.4442 100.792 78.9949Z" fill="#2B1149"/>
<path d="M141.71 78.7499C141.756 79.4364 141.702 80.1259 141.55 80.7969C141.466 81.3323 141.187 81.8176 140.766 82.1597C140.346 82.5019 139.814 82.6768 139.272 82.6509C138.18 82.6669 137.563 82.1449 137.24 80.8929C136.977 79.8258 136.937 78.7161 137.123 77.6329C137.185 77.1784 137.374 76.7508 137.669 76.3996C137.965 76.0485 138.353 75.7882 138.791 75.6489C139.076 75.5133 139.39 75.4474 139.706 75.4565C140.022 75.4657 140.332 75.5497 140.609 75.7017C140.886 75.8536 141.124 76.0692 141.302 76.3307C141.48 76.5922 141.593 76.8921 141.632 77.2059C141.738 77.7135 141.764 78.2343 141.71 78.7499V78.7499Z" fill="#2B1149"/>
<path d="M200.35 185.921C198.374 182.163 196.406 178.401 194.403 174.658C194.155 174.197 194.162 173.923 194.547 173.581C195.367 172.796 196.113 171.939 196.777 171.019C198.175 169.249 199.17 167.195 199.693 165.001C200.255 162.664 200.394 160.244 200.103 157.858C199.785 155.272 199.087 152.748 198.031 150.366C196.667 147.592 194.912 145.028 192.82 142.753C190.931 140.503 188.978 138.313 186.981 136.167C185.481 134.552 183.9 132.996 182.242 131.524C180.013 129.548 177.871 127.482 174.876 126.643C175.106 126.328 175.449 126.373 175.713 126.243C179.114 124.729 182.132 122.471 184.542 119.634C186.594 117.103 188.138 114.2 189.092 111.085C189.885 108.297 190.388 105.434 190.592 102.542C190.836 98.9562 190.722 95.3549 190.248 91.792C190.001 89.46 189.598 87.142 189.189 84.826C188.711 82.0583 188.074 79.3205 187.281 76.626C185.716 71.4183 183.522 66.4208 180.747 61.744C178.4 57.8118 175.703 54.0997 172.687 50.653C171.226 48.96 169.587 47.425 168.017 45.822C167.036 44.822 165.844 44.022 164.917 42.986C163.517 41.395 162.208 39.7257 160.997 37.986C158.495 34.499 156.393 30.7422 154.729 26.786C152.926 22.4099 150.339 18.4 147.094 14.954C145.528 13.285 143.857 11.705 142.149 10.18C141.161 9.24001 140.11 8.36896 139.002 7.573C135.768 5.46899 132.258 3.8202 128.574 2.673C124.647 1.41457 120.571 0.680228 116.452 0.489014H111.752C111.097 0.569014 110.432 0.599 109.78 0.638C107.632 0.779445 105.494 1.05499 103.38 1.46301C99.302 2.21904 95.3386 3.4986 91.5882 5.26999C87.3378 7.29135 83.4111 9.93247 79.9363 13.107C76.6889 16.0302 73.7286 19.258 71.097 22.746C68.197 26.615 65.5474 30.662 62.8084 34.646C61.2609 37.0553 59.5421 39.3502 57.6654 41.513C55.3653 43.908 53.3132 46.5293 51.5404 49.337C48.8599 53.7002 47.292 58.655 46.9744 63.766C46.7159 67.038 46.8603 70.3294 47.4051 73.566C48.0174 76.898 49.2216 80.0934 50.9603 83.001C52.2603 85.19 53.9733 87.092 55.4603 89.148C56.691 90.6736 57.6755 92.3822 58.3782 94.212C58.5292 94.671 58.4152 94.791 58.0042 94.806C57.2652 94.835 56.5233 94.951 55.7923 94.967C53.6321 95.038 51.4797 95.2626 49.3514 95.639C45.4085 96.2609 41.7314 98.0154 38.7674 100.689C34.596 104.434 31.2839 109.037 29.0584 114.182C26.8503 119.226 25.5663 124.625 25.2674 130.123C25.0194 134.023 25.3441 137.939 26.2313 141.745C27.6052 148.18 30.894 154.049 35.6654 158.58C37.342 160.207 39.2371 161.592 41.2962 162.696C42.7148 161.608 44.2126 160.627 45.7772 159.762C50.1068 157.557 54.9768 156.637 59.8123 157.11C63.2683 154.825 67.1027 153.173 71.137 152.231C76.1781 151.048 81.4038 150.878 86.5111 151.731C87.6316 151.987 88.7125 152.393 89.7235 152.94C94.709 155.338 99.9686 157.118 105.386 158.24C111.151 159.319 117.039 159.584 122.877 159.028C129.692 158.364 136.404 156.892 142.871 154.642C143.016 154.585 143.171 154.56 143.326 154.567C143.481 154.575 143.633 154.616 143.771 154.688C148.501 156.999 153.531 157.488 158.701 157.106C161.501 156.906 164.29 156.687 167.101 156.655C171.551 156.604 175.439 158.139 179.18 160.371C182.651 162.479 185.513 165.457 187.48 169.01C190.848 174.864 193.933 180.874 197.016 186.882L200.643 186.582C200.55 186.358 200.463 186.134 200.35 185.921ZM97.3153 60.862C100.31 60.8539 103.249 61.6829 105.798 63.2556C108.347 64.8283 110.406 67.0821 111.742 69.7626C113.078 72.4432 113.639 75.4439 113.361 78.4262C113.083 81.4085 111.977 84.2538 110.168 86.641C110.11 86.715 110.053 86.789 109.995 86.861C109.937 86.933 109.9 86.982 109.852 87.041C108.147 89.1605 105.933 90.8132 103.416 91.8448C100.899 92.8764 98.1618 93.2532 95.4598 92.9399C92.7577 92.6267 90.1788 91.6337 87.9647 90.0536C85.7505 88.4736 83.973 86.358 82.7982 83.9047C81.6233 81.4514 81.0898 78.7402 81.2469 76.0246C81.404 73.309 82.2467 70.6776 83.6966 68.3761C85.1465 66.0746 87.1558 64.1781 89.5374 62.8639C91.919 61.5497 94.5951 60.8606 97.3153 60.861V60.862ZM126.751 75.248C126.751 73.5708 127.031 71.9053 127.578 70.32C128.699 67.2682 130.812 64.6809 133.578 62.9727C136.345 61.2644 139.604 60.5341 142.835 60.8986C146.065 61.2632 149.08 62.7015 151.396 64.9832C153.712 67.2649 155.195 70.258 155.608 73.4829C156.021 76.7078 155.339 79.9779 153.673 82.7693C152.006 85.5608 149.451 87.7121 146.416 88.8785C143.381 90.0449 140.043 90.159 136.935 89.2025C133.828 88.2459 131.132 86.2742 129.278 83.603C127.628 81.129 126.749 78.2217 126.75 75.248H126.751ZM138.776 152.429C131.981 154.56 124.924 155.738 117.805 155.929C110.598 156.086 103.431 154.833 96.7054 152.24C95.7994 151.889 95.5431 151.58 95.8231 150.652C95.9965 149.828 96.0832 148.987 96.0814 148.145C96.2644 146.073 96.4682 143.999 96.6282 141.924C96.8092 139.562 97.0421 137.202 97.2581 134.842C97.4791 132.427 97.789 130.02 97.887 127.593C97.9609 127.288 98.0157 126.979 98.0511 126.668C97.9641 125.775 98.3514 125.978 98.8514 126.26C104.213 129.345 110.332 130.864 116.513 130.643C120.665 130.488 124.748 129.534 128.538 127.834C128.804 127.716 129.071 127.602 129.426 127.447C129.545 131.664 130.276 135.841 131.597 139.847C132.99 144.313 135.539 148.33 138.986 151.493C139.556 152.002 139.506 152.209 138.775 152.429H138.776ZM139.146 115.346C134.565 121.472 127.802 125.601 120.26 126.877C112.717 128.154 104.973 126.48 98.6302 122.203C92.7042 118.385 88.5491 113.02 85.2801 106.892C81.9184 100.38 79.4526 93.4437 77.95 86.271C76.4214 79.3483 75.4483 72.3146 75.0394 65.237C74.9904 64.446 74.9182 63.657 74.9002 62.862C74.8749 62.6551 74.9284 62.4462 75.0501 62.277C75.1719 62.1078 75.3532 61.9907 75.5574 61.949C78.1574 61.019 80.7573 60.108 83.3323 59.11C86.499 57.882 89.6484 56.609 92.7811 55.291C96.5317 53.7037 100.212 51.9623 103.821 50.067C108.152 47.8468 112.29 45.2691 116.192 42.361C118.197 40.8343 120.061 39.1308 121.761 37.271C122.58 36.315 123.348 35.3163 124.061 34.279C124.203 34.087 124.288 33.866 124.569 33.794C125.461 37.115 127.578 39.678 129.704 42.249C132.312 45.2572 135.084 48.1183 138.009 50.819C140.266 53.0328 142.646 55.1165 145.139 57.06C141.044 56.3192 136.82 56.9846 133.151 58.9479C129.482 60.9113 126.585 64.0573 124.93 67.875C124.276 69.3119 123.823 70.8323 123.584 72.393C123.509 72.878 123.326 72.993 122.865 72.985C120.91 72.96 118.954 72.954 117 72.985C116.822 73.0005 116.643 72.9603 116.488 72.87C115.482 67.988 112.639 63.6791 108.546 60.8337C104.453 57.9884 99.4241 56.8242 94.4974 57.5817C89.5707 58.3392 85.1235 60.9605 82.0745 64.9039C79.0256 68.8473 77.608 73.8113 78.1151 78.7701C78.6221 83.7288 81.0147 88.3033 84.7987 91.548C88.5826 94.7927 93.4685 96.4597 98.4466 96.2045C103.425 95.9492 108.115 93.7912 111.547 90.1765C114.979 86.5618 116.891 81.7666 116.888 76.782C116.888 76.737 116.888 76.693 116.888 76.648H123.378C123.397 76.7236 123.409 76.8005 123.416 76.878C123.713 80.1708 124.903 83.3203 126.857 85.987C126.957 86.126 127.057 86.265 127.157 86.401C127.215 86.475 127.273 86.55 127.332 86.625C129.991 90.0348 133.763 92.402 137.989 93.313C142.216 94.224 146.628 93.6209 150.455 91.609C150.136 93.2455 149.691 94.8549 149.124 96.423C146.803 103.211 143.438 109.595 139.15 115.346H139.146Z" fill="#2B1149"/>
</svg>
