<svg width="238" height="75" viewBox="0 0 238 75" fill="none" xmlns="http://www.w3.org/2000/svg">
<path d="M36.6158 74.867C27.8061 74.8672 19.2819 71.743 12.5588 66.05C5.93181 60.4457 1.50489 52.6746 0.0638263 44.116C-0.0494794 43.3967 -0.004296 42.6613 0.196242 41.9612C0.39678 41.2611 0.747828 40.6133 1.22482 40.063C1.62213 39.5684 2.12225 39.166 2.69052 38.8839C3.25879 38.6018 3.88161 38.4466 4.51582 38.429C6.80282 38.429 8.60982 40.164 9.12082 42.849C10.5835 50.54 15.0335 57.3384 21.4968 61.756C21.5268 61.774 21.5578 61.795 21.5868 61.816C21.8449 62.0058 22.1379 62.1428 22.4489 62.2193C22.76 62.2958 23.0831 62.3102 23.3997 62.2619C23.7164 62.2135 24.0204 62.1032 24.2944 61.9373C24.5685 61.7714 24.8071 61.5532 24.9968 61.295C25.1974 61.0213 25.3407 60.7099 25.4182 60.3795C25.4957 60.0491 25.5058 59.7064 25.4478 59.372C25.4003 59.0781 25.2931 58.797 25.1329 58.5461C24.9726 58.2951 24.7626 58.0797 24.5158 57.913C20.3098 55.101 17.6158 53.184 15.2248 49.381C14.6209 48.5425 14.3538 47.5079 14.4762 46.4818C14.5986 45.4557 15.1016 44.513 15.8858 43.84C16.2949 43.5072 16.7656 43.2582 17.271 43.1074C17.7764 42.9565 18.3065 42.9068 18.8311 42.9609C19.3557 43.0151 19.8646 43.1721 20.3285 43.4229C20.7924 43.6738 21.2023 44.0137 21.5348 44.423C21.6028 44.504 29.0838 53.387 37.2348 54.185C41.7788 54.626 45.4068 52.57 46.4738 48.941C46.7403 48.0396 46.8263 47.0944 46.727 46.1597C46.6276 45.225 46.3447 44.319 45.8947 43.4937C45.4446 42.6685 44.8362 41.9401 44.1041 41.3504C43.3721 40.7607 42.531 40.3212 41.6288 40.057C40.3648 39.691 38.4878 39.157 36.5898 38.613C34.5388 38.029 32.4598 37.435 31.0898 37.038C29.9114 36.6936 28.8126 36.1201 27.8562 35.3503C26.8998 34.5806 26.1047 33.6296 25.5164 32.5521C24.9281 31.4745 24.5582 30.2915 24.4279 29.0707C24.2975 27.85 24.4093 26.6155 24.7568 25.438C26.1118 20.827 30.7568 18.096 36.3038 18.638C45.3598 19.523 53.1558 28.792 53.4828 29.187C53.6343 29.3746 53.8212 29.5306 54.033 29.6459C54.2447 29.7613 54.4771 29.8338 54.7169 29.8593C54.9566 29.8849 55.1991 29.8629 55.4304 29.7948C55.6616 29.7266 55.8772 29.6135 56.0648 29.462C56.4248 29.1183 56.6436 28.6526 56.6786 28.1561C56.7135 27.6596 56.5621 27.1679 56.2538 26.777C54.1048 23.351 51.5648 21.552 47.5978 18.901C47.1051 18.5705 46.6852 18.1428 46.3638 17.6441C46.0424 17.1454 45.8263 16.5863 45.7288 16.001C45.6207 15.3762 45.6396 14.736 45.7844 14.1187C45.9293 13.5014 46.1971 12.9196 46.5718 12.408C47.2936 11.429 48.3715 10.7732 49.5728 10.5823C50.7741 10.3915 52.0022 10.6809 52.9918 11.388C56.4655 13.7159 59.4376 16.716 61.7327 20.2113C64.0278 23.7066 65.5994 27.6263 66.3548 31.739C66.5978 33.017 67.3718 34.383 68.8128 34.383C69.1293 34.3626 69.4378 34.2752 69.7179 34.1266C69.9981 33.978 70.2434 33.7716 70.4378 33.521C70.7067 33.2112 70.9058 32.8471 71.0217 32.4536C71.1377 32.06 71.1677 31.6462 71.1098 31.24C69.7567 23.1937 65.5975 15.8867 59.3698 10.615C53.0425 5.25613 45.0195 2.31512 36.7278 2.31504C32.1365 2.30232 27.5884 3.20147 23.3473 4.96032C19.1062 6.71917 15.2566 9.30271 12.0218 12.561C11.9204 12.6625 11.8001 12.743 11.6676 12.7979C11.5351 12.8528 11.3931 12.8811 11.2497 12.8812C11.1063 12.8812 10.9642 12.853 10.8317 12.7982C10.6992 12.7433 10.5788 12.6629 10.4773 12.5615C10.3759 12.4602 10.2954 12.3398 10.2405 12.2073C10.1855 12.0748 10.1572 11.9328 10.1572 11.7894C10.1571 11.646 10.1853 11.504 10.2402 11.3714C10.295 11.2389 10.3754 11.1185 10.4768 11.017C13.9138 7.55474 18.0041 4.80942 22.5104 2.94036C27.0167 1.0713 31.8493 0.115713 36.7278 0.129044C45.5372 0.128846 54.0611 3.25304 60.7838 8.94604C67.4097 14.552 71.8352 22.3241 73.2748 30.883C73.3872 31.602 73.3414 32.3368 73.1408 33.0363C72.9401 33.7357 72.5893 34.383 72.1128 34.933C71.7157 35.428 71.2157 35.8307 70.6474 36.113C70.0791 36.3953 69.4562 36.5506 68.8218 36.568C66.5348 36.568 64.7278 34.833 64.2218 32.147C62.7574 24.4565 58.306 17.6593 51.8418 13.243C51.8104 13.2248 51.78 13.2047 51.7508 13.183C51.2292 12.8009 50.5774 12.6412 49.9382 12.7389C49.299 12.8365 48.7245 13.1836 48.3408 13.704C48.1407 13.9778 47.9976 14.2891 47.9201 14.6192C47.8426 14.9494 47.8323 15.2918 47.8898 15.626C47.9376 15.92 48.0449 16.2011 48.2052 16.4522C48.3655 16.7032 48.5753 16.9189 48.8218 17.086C53.0278 19.899 55.7288 21.815 58.1138 25.618C58.7174 26.4568 58.9842 27.4914 58.8616 28.5174C58.7391 29.5434 58.236 30.4861 57.4518 31.159C56.6253 31.8305 55.5659 32.1463 54.5066 32.0369C53.4474 31.9276 52.4748 31.4022 51.8028 30.576C51.7358 30.495 44.2548 21.611 36.1028 20.814C31.5578 20.371 27.9318 22.428 26.8648 26.058C26.5985 26.9595 26.5126 27.9046 26.612 28.8393C26.7114 29.774 26.9943 30.6799 27.4443 31.5051C27.8944 32.3304 28.5028 33.0587 29.2347 33.6485C29.9667 34.2382 30.8078 34.6778 31.7098 34.942C33.0748 35.342 35.1488 35.93 37.1968 36.515C39.0968 37.057 40.9768 37.593 42.2448 37.96C43.4234 38.3042 44.5224 38.8776 45.479 39.6473C46.4355 40.417 47.2308 41.3679 47.8192 42.4455C48.4076 43.5231 48.7776 44.7063 48.9079 45.9271C49.0383 47.1479 48.9265 48.3825 48.5788 49.56C47.2238 54.172 42.5788 56.91 37.0318 56.36C27.9758 55.474 20.1798 46.206 19.8528 45.811C19.7013 45.6233 19.5143 45.4672 19.3025 45.3518C19.0906 45.2364 18.8581 45.1638 18.6181 45.1384C18.3782 45.1129 18.1356 45.1351 17.9043 45.2035C17.6729 45.2719 17.4573 45.3852 17.2698 45.537C16.9098 45.8808 16.691 46.3465 16.656 46.843C16.6211 47.3395 16.7726 47.8312 17.0808 48.222C19.2308 51.648 21.7698 53.447 25.7358 56.098C26.229 56.4283 26.6494 56.8559 26.9711 57.3546C27.2929 57.8533 27.5092 58.4126 27.6068 58.998C27.7151 59.6231 27.6962 60.2635 27.5512 60.8811C27.4062 61.4986 27.138 62.0806 26.7628 62.592C26.0421 63.5721 24.9642 64.2288 23.7627 64.4197C22.5612 64.6106 21.3329 64.3204 20.3438 63.612C16.8679 61.2851 13.8936 58.2851 11.5966 54.7893C9.2995 51.2936 7.72627 47.373 6.96982 43.259C6.72682 41.981 5.95282 40.615 4.51182 40.615C4.19548 40.6353 3.88706 40.7227 3.60707 40.8713C3.32707 41.0199 3.0819 41.2264 2.88782 41.477C2.61862 41.7868 2.41921 42.1507 2.30308 42.5443C2.18696 42.9379 2.15687 43.3518 2.21483 43.758C3.57186 51.8065 7.73657 59.1138 13.9698 64.383C20.2975 69.7419 28.3208 72.6829 36.6128 72.683C41.2031 72.695 45.7502 71.7955 49.9902 70.0367C54.2302 68.2778 58.0788 65.6947 61.3128 62.437C61.4143 62.3348 61.535 62.2536 61.6679 62.198C61.8008 62.1424 61.9434 62.1135 62.0874 62.113C62.2315 62.1125 62.3743 62.1403 62.5076 62.195C62.6409 62.2496 62.7621 62.33 62.8643 62.4315C62.9666 62.5331 63.0478 62.6537 63.1034 62.7866C63.159 62.9195 63.1879 63.0621 63.1884 63.2062C63.1889 63.3502 63.161 63.493 63.1064 63.6263C63.0517 63.7596 62.9713 63.8808 62.8698 63.983C59.4323 67.4451 55.3414 70.19 50.8345 72.0584C46.3277 73.9268 41.4946 74.8815 36.6158 74.867Z" fill="#ECAA27"/>
<path d="M101.078 33.1351C99.4741 33.1555 97.8759 32.9437 96.3328 32.5061C94.985 32.1172 93.7146 31.4981 92.5778 30.6761C91.4757 29.8667 90.4884 28.9117 89.6428 27.8371L93.5688 23.3771C94.5417 24.8203 95.8577 25.9993 97.3988 26.8081C98.6475 27.3849 100.006 27.6842 101.382 27.6851C102.015 27.6932 102.645 27.6031 103.25 27.4181C103.746 27.2804 104.195 27.0104 104.55 26.6371C104.858 26.2845 105.021 25.8283 105.007 25.3601C105.012 24.9967 104.912 24.6396 104.72 24.3311C104.517 24.0137 104.251 23.7414 103.939 23.5311C103.568 23.2805 103.173 23.0696 102.758 22.9021C102.286 22.7048 101.802 22.5378 101.309 22.4021C100.801 22.2631 100.28 22.1421 99.7468 22.0401C98.4269 21.7595 97.1375 21.3509 95.8968 20.8201C94.8909 20.3947 93.9683 19.7944 93.1718 19.0471C92.4645 18.3738 91.9118 17.5549 91.5518 16.6471C91.1846 15.6798 91.0037 14.6517 91.0188 13.6171C91.0076 12.4654 91.2898 11.3297 91.8388 10.3171C92.3882 9.30983 93.1408 8.42755 94.0488 7.72613C95.0149 6.98165 96.105 6.41391 97.2688 6.04913C98.4999 5.65521 99.7852 5.45713 101.078 5.46213C102.602 5.43326 104.123 5.61977 105.595 6.01613C106.763 6.33996 107.862 6.87624 108.836 7.59813C109.74 8.28683 110.52 9.12487 111.142 10.0761L107.142 13.9251C106.645 13.299 106.061 12.7471 105.408 12.2861C104.799 11.8608 104.131 11.5266 103.426 11.2941C102.731 11.0661 102.003 10.9503 101.272 10.9511C100.606 10.9366 99.9419 11.0336 99.3078 11.2381C98.8208 11.3906 98.3813 11.6662 98.0318 12.0381C97.7279 12.3779 97.5642 12.8204 97.5738 13.2761C97.5636 13.6783 97.6989 14.0707 97.9548 14.3811C98.245 14.7153 98.5941 14.9932 98.9848 15.2011C99.4558 15.4592 99.9542 15.6635 100.471 15.8101C101.046 15.9798 101.632 16.1134 102.224 16.2101C103.519 16.46 104.789 16.83 106.016 17.3151C107.07 17.7291 108.059 18.294 108.951 18.9921C109.752 19.6232 110.403 20.4241 110.857 21.3371C111.319 22.3195 111.547 23.3957 111.524 24.4811C111.578 26.1535 111.104 27.8005 110.171 29.1891C109.238 30.4963 107.956 31.5136 106.471 32.1241C104.761 32.8261 102.926 33.1702 101.078 33.1351Z" fill="white"/>
<path d="M122.191 32.753V11.789H114.263V6.07202H136.789V11.789H128.67V32.753H122.191Z" fill="white"/>
<path d="M141.364 32.7529V6.07194H153.37C154.981 6.05009 156.573 6.42984 158.001 7.17694C159.342 7.87305 160.468 8.92035 161.26 10.2069C162.056 11.5216 162.465 13.0342 162.441 14.5709C162.465 16.156 162.057 17.7178 161.26 19.0879C160.484 20.41 159.365 21.4967 158.02 22.2319C156.594 23.0082 154.992 23.4023 153.369 23.3759H147.538V32.7529H141.364ZM147.538 18.4209H152.798C153.405 18.4346 154.004 18.2832 154.532 17.9829C155.026 17.692 155.424 17.2613 155.675 16.7449C155.95 16.1747 156.087 15.5479 156.075 14.9149C156.088 14.2814 155.93 13.6561 155.618 13.1049C155.309 12.5824 154.851 12.1643 154.303 11.9049C153.651 11.6096 152.941 11.4667 152.226 11.4869H147.538V18.4209ZM156.152 32.7529L149.368 20.7079L156 19.7549L163.547 32.7549L156.152 32.7529Z" fill="white"/>
<path d="M168.122 32.753V6.07202H186.722V11.599H174.411V27.227H187.103V32.753H168.122ZM171.171 21.814V16.554H185.007V21.814H171.171Z" fill="white"/>
<path d="M192.706 32.753V6.07202H211.306V11.599H198.995V27.227H211.687V32.753H192.706ZM195.756 21.814V16.554H209.591V21.814H195.756Z" fill="white"/>
<path d="M223.084 32.753V11.789H215.156V6.07202H237.682V11.789H229.564V32.753H223.084Z" fill="white"/>
<path d="M100.838 70.6171C99.0857 70.6371 97.3478 70.3003 95.7299 69.6271C94.1985 68.9791 92.8226 68.0123 91.6939 66.7911C90.5303 65.5261 89.6299 64.0423 89.0449 62.4261C88.4056 60.6548 88.0893 58.7831 88.1109 56.9001C88.0949 55.0786 88.4381 53.2718 89.1209 51.5831C89.7722 49.977 90.7223 48.509 91.9209 47.2571C93.1129 46.0024 94.5503 45.0064 96.1437 44.331C97.737 43.6556 99.4524 43.3152 101.183 43.3311C103.735 43.3376 106.227 44.1148 108.33 45.5611C109.28 46.2078 110.112 47.0136 110.788 47.9431L108.044 50.8021C107.364 50.1127 106.617 49.4933 105.814 48.9531C105.105 48.4777 104.336 48.0993 103.527 47.8281C102.77 47.5773 101.979 47.4487 101.182 47.4471C100.004 47.437 98.8362 47.6686 97.7512 48.1277C96.6662 48.5867 95.687 49.2635 94.8739 50.1161C94.0562 50.9813 93.4149 51.9976 92.9859 53.1081C92.519 54.3172 92.2862 55.604 92.2999 56.9001C92.2819 58.245 92.5082 59.582 92.9679 60.8461C93.3791 61.9759 94.0214 63.0076 94.8539 63.8751C95.6756 64.7196 96.6704 65.3763 97.7699 65.8001C98.9684 66.2571 100.242 66.4834 101.525 66.4671C103.205 66.4638 104.852 66.0026 106.29 65.1331C106.996 64.7041 107.649 64.1921 108.234 63.6081L110.292 66.9611C109.615 67.7201 108.808 68.3526 107.91 68.8291C106.853 69.4089 105.726 69.8506 104.556 70.1431C103.342 70.4574 102.092 70.6167 100.838 70.6171Z" fill="white"/>
<path d="M115.893 70.2359V43.5549H127.252C128.732 43.5434 130.187 43.9321 131.464 44.6799C132.732 45.415 133.789 46.4657 134.532 47.7299C135.302 49.0402 135.697 50.5365 135.676 52.0559C135.681 53.4833 135.285 54.8834 134.532 56.0959C133.78 57.3317 132.732 58.3601 131.482 59.0879C130.201 59.8411 128.738 60.2301 127.252 60.2129H120.01V70.2359H115.893ZM120.009 56.2469H127.632C128.332 56.2571 129.02 56.0651 129.614 55.6939C130.203 55.3209 130.677 54.7934 130.987 54.1689C131.321 53.5011 131.491 52.7628 131.482 52.0159C131.506 51.2015 131.294 50.3976 130.871 49.701C130.448 49.0044 129.833 48.4449 129.1 48.0899C128.313 47.6995 127.443 47.5034 126.565 47.5179H120.01L120.009 56.2469ZM131.744 70.2359L124.964 58.1919L129.195 57.2389L136.744 70.2749L131.744 70.2359Z" fill="white"/>
<path d="M142.383 70.2359V43.5549H159.192V47.5189H146.499V66.2719H159.191V70.2359H142.383ZM144.25 58.5359V54.5699H157.096V58.5339L144.25 58.5359Z" fill="white"/>
<path d="M165.786 70.2361V43.5551H176.23C177.998 43.5296 179.753 43.8535 181.395 44.5081C182.897 45.1193 184.245 46.0569 185.34 47.2531C186.453 48.4808 187.308 49.9192 187.855 51.4831C188.458 53.2231 188.755 55.0546 188.732 56.8961C188.754 58.7437 188.457 60.5813 187.855 62.3281C187.313 63.8917 186.463 65.3305 185.355 66.5591C184.26 67.7511 182.911 68.6823 181.409 69.2841C179.76 69.9382 177.999 70.262 176.226 70.2371L165.786 70.2361ZM169.902 66.6921L169.788 66.2721H176.039C177.27 66.2929 178.493 66.0728 179.639 65.6241C180.657 65.2178 181.569 64.5856 182.307 63.7751C183.063 62.9194 183.628 61.9124 183.965 60.8211C184.361 59.5511 184.554 58.2264 184.537 56.8961C184.555 55.5716 184.362 54.2527 183.965 52.9891C183.62 51.8974 183.049 50.8908 182.288 50.0351C181.549 49.2215 180.637 48.5835 179.62 48.1681C178.48 47.718 177.262 47.4977 176.037 47.5201H169.671L169.9 47.1771L169.902 66.6921Z" fill="white"/>
</svg>
