<svg width="296" height="33" viewBox="0 0 296 33" fill="none" xmlns="http://www.w3.org/2000/svg">
<path d="M13.096 32.694C11.259 32.7174 9.42836 32.4746 7.66102 31.973C6.11699 31.5271 4.66207 30.8165 3.36102 29.873C2.09826 28.9463 0.96725 27.8523 -0.000976562 26.621L4.49902 21.514C5.61322 23.1667 7.12075 24.5165 8.88602 25.442C10.316 26.1016 11.8722 26.4428 13.447 26.442C14.1715 26.451 14.8931 26.3478 15.586 26.136C16.1525 25.9774 16.6654 25.6681 17.07 25.241C17.4232 24.8375 17.6105 24.3151 17.594 23.779C17.5999 23.3629 17.4864 22.9538 17.267 22.6C17.0343 22.2366 16.7297 21.9245 16.372 21.683C15.9473 21.3965 15.4939 21.1552 15.019 20.963C14.4785 20.7394 13.9244 20.55 13.36 20.396C12.7767 20.236 12.18 20.0977 11.57 19.981C10.0584 19.6584 8.58182 19.1896 7.16102 18.581C6.00898 18.094 4.95233 17.4067 4.04002 16.551C3.22993 15.7794 2.59701 14.8412 2.18502 13.801C1.76385 12.6934 1.55653 11.5159 1.57402 10.331C1.56127 9.01317 1.88406 7.71373 2.51202 6.55503C3.14182 5.4039 4.00325 4.39572 5.04202 3.59403C6.14863 2.74092 7.39758 2.09055 8.73102 1.67304C10.1415 1.21968 11.6145 0.991218 13.096 0.996043C14.8415 0.963121 16.583 1.17621 18.269 1.62904C19.6063 2.00041 20.8639 2.61461 21.979 3.44102C23.0144 4.22945 23.9076 5.18891 24.62 6.27803L20.037 10.694C19.4678 9.97607 18.7991 9.34302 18.051 8.81404C17.3541 8.32714 16.5896 7.94475 15.782 7.67903C14.9858 7.41777 14.153 7.2851 13.315 7.28602C12.5526 7.26911 11.7928 7.37998 11.067 7.61402C10.5093 7.78907 10.0058 8.10451 9.60502 8.53004C9.25682 8.91953 9.06953 9.42673 9.08102 9.94905C9.06901 10.4098 9.22385 10.8594 9.51702 11.215C9.8492 11.5973 10.2488 11.9153 10.696 12.153C11.2349 12.4489 11.8051 12.6837 12.396 12.853C13.055 13.0467 13.7253 13.1996 14.403 13.311C15.8872 13.5973 17.3415 14.0211 18.747 14.577C19.9546 15.051 21.0868 15.6981 22.108 16.498C23.0251 17.2204 23.7706 18.1371 24.291 19.182C24.82 20.307 25.0815 21.5392 25.055 22.782C25.1163 24.6974 24.5741 26.5836 23.505 28.174C22.438 29.6704 20.9705 30.8354 19.271 31.535C17.3135 32.3391 15.2119 32.7335 13.096 32.694V32.694Z" fill="white"/>
<path d="M37.279 32.255V8.24603H28.199V1.69904H53.999V8.24603H44.699V32.255H37.279Z" fill="white"/>
<path d="M59.2361 32.2551V1.69908H72.9861C74.8304 1.67486 76.6518 2.10993 78.2861 2.96507C79.8215 3.76219 81.1115 4.9616 82.0181 6.43507C82.9303 7.94134 83.3992 9.67433 83.3711 11.4351C83.3989 13.2504 82.9311 15.0389 82.0181 16.6081C81.1298 18.1216 79.8476 19.3658 78.3081 20.2081C76.6754 21.0965 74.8407 21.5478 72.9821 21.5181H66.3031V32.2561L59.2361 32.2551ZM66.3071 15.8421H72.3311C73.0262 15.8587 73.7127 15.6859 74.3171 15.3421C74.884 15.0084 75.3397 14.5148 75.6271 13.9231C75.9424 13.2687 76.0993 12.5493 76.0851 11.8231C76.1008 11.0974 75.9197 10.3811 75.5611 9.75007C75.2103 9.15142 74.6877 8.67201 74.0611 8.37407C73.3146 8.03494 72.5006 7.87076 71.6811 7.89405H66.3121L66.3071 15.8421ZM76.1731 32.2551L68.4031 18.4611L76.0031 17.3701L84.6461 32.2551H76.1731Z" fill="white"/>
<path d="M89.879 32.255V1.69904H111.179V8.02802H97.079V25.928H111.615V32.257L89.879 32.255ZM93.371 19.727V13.703H109.217V19.727H93.371Z" fill="white"/>
<path d="M118.034 32.255V1.69904H139.334V8.02802H125.234V25.928H139.77V32.257L118.034 32.255ZM121.527 19.727V13.703H137.372V19.727H121.527Z" fill="white"/>
<path d="M152.825 32.255V8.24603H143.745V1.69904H169.545V8.24603H160.245V32.255H152.825Z" fill="white"/>
<path d="M194.851 32.921C192.844 32.9439 190.854 32.5577 189.001 31.786C187.245 31.0426 185.668 29.934 184.374 28.534C183.042 27.0846 182.011 25.3851 181.34 23.534C180.609 21.5052 180.246 19.3616 180.271 17.205C180.252 15.119 180.645 13.0498 181.428 11.116C182.174 9.27624 183.263 7.59479 184.636 6.16102C185.985 4.74884 187.603 3.62073 189.394 2.84303C191.241 2.04856 193.233 1.6474 195.244 1.66505C198.167 1.6729 201.019 2.56267 203.428 4.21803C204.517 4.95915 205.469 5.88233 206.244 6.94703L203.101 10.22C202.323 9.4311 201.467 8.72222 200.547 8.10404C199.736 7.55913 198.855 7.12588 197.928 6.81602C197.062 6.5285 196.156 6.381 195.244 6.37904C193.895 6.36806 192.558 6.63354 191.315 7.15913C190.073 7.68472 188.951 8.45928 188.019 9.43504C187.083 10.4261 186.349 11.5901 185.859 12.862C185.324 14.2467 185.057 15.7206 185.073 17.205C185.052 18.7448 185.311 20.2757 185.837 21.723C186.309 23.017 187.044 24.1987 187.997 25.193C188.939 26.1587 190.078 26.9092 191.337 27.393C192.709 27.9164 194.168 28.1756 195.637 28.157C197.561 28.1536 199.447 27.6253 201.093 26.629C201.902 26.1383 202.65 25.5521 203.319 24.883L205.676 28.724C204.902 29.594 203.978 30.3184 202.948 30.863C201.738 31.5275 200.447 32.0336 199.107 32.369C197.717 32.7322 196.287 32.9177 194.851 32.921V32.921Z" fill="white"/>
<path d="M212.095 32.484V1.92805H225.103C226.798 1.91417 228.465 2.35923 229.927 3.21604C231.38 4.05791 232.59 5.26078 233.441 6.70805C234.322 8.20862 234.775 9.92206 234.75 11.662C234.757 13.2967 234.303 14.9003 233.441 16.289C232.58 17.704 231.379 18.8819 229.948 19.716C228.48 20.5783 226.805 21.0236 225.103 21.004H216.809V32.484H212.095ZM216.809 16.464H225.54C226.341 16.4758 227.129 16.256 227.809 15.831C228.483 15.404 229.027 14.8001 229.381 14.085C229.764 13.3202 229.959 12.4745 229.948 11.619C229.976 10.6857 229.733 9.7642 229.249 8.96571C228.765 8.16722 228.06 7.52585 227.22 7.11903C226.319 6.67354 225.325 6.44935 224.32 6.46504H216.812L216.809 16.464ZM230.251 32.484L222.481 18.69L227.326 17.599L235.969 32.528L230.251 32.484Z" fill="white"/>
<path d="M242.433 32.484V1.92804H261.683V6.46802H247.151V27.944H261.687V32.484H242.433ZM244.572 19.084V14.544H259.282V19.084H244.572Z" fill="white"/>
<path d="M269.235 32.484V1.92803H281.195C283.219 1.89849 285.23 2.26923 287.11 3.019C288.831 3.71853 290.374 4.79215 291.628 6.16201C292.902 7.56839 293.882 9.2158 294.509 11.007C295.198 13.0003 295.537 15.0981 295.509 17.207C295.535 19.3227 295.197 21.4272 294.509 23.428C293.891 25.2187 292.919 26.8664 291.65 28.273C290.396 29.6379 288.852 30.7044 287.132 31.394C285.244 32.1425 283.226 32.5132 281.195 32.485L269.235 32.484ZM273.949 28.425L273.818 27.944H280.977C282.387 27.9684 283.789 27.7163 285.102 27.202C286.268 26.7371 287.313 26.0132 288.158 25.085C289.024 24.1046 289.672 22.9515 290.058 21.702C290.512 20.2459 290.733 18.7272 290.713 17.202C290.734 15.6853 290.513 14.175 290.058 12.728C289.663 11.4775 289.009 10.3246 288.137 9.34502C287.291 8.41293 286.247 7.68175 285.082 7.20501C283.777 6.69076 282.384 6.43895 280.982 6.46401H273.692L273.954 6.071L273.949 28.425Z" fill="white"/>
</svg>
