<svg xmlns="http://www.w3.org/2000/svg" width="237.682" height="74.735" viewBox="0 0 237.682 74.735">
  <g id="Group_205" data-name="Group 205" transform="translate(-140 -28.624)">
    <g id="Group_204" data-name="Group 204" transform="translate(140 28.624)">
      <path id="Path_458" data-name="Path 458" d="M211.346,97.984a37.226,37.226,0,0,1-24.057-8.817,36.708,36.708,0,0,1-12.495-21.934,5,5,0,0,1,1.161-4.053,4.376,4.376,0,0,1,3.291-1.634c2.287,0,4.094,1.735,4.605,4.42a29.6,29.6,0,0,0,12.376,18.907c.03.018.061.039.09.06a2.439,2.439,0,0,0,3.41-.521,2.524,2.524,0,0,0,.451-1.923,2.18,2.18,0,0,0-.932-1.459c-4.206-2.812-6.9-4.729-9.291-8.532a4.125,4.125,0,0,1,.661-5.541,4.014,4.014,0,0,1,5.649.583c.068.081,7.549,8.964,15.7,9.762,4.544.441,8.172-1.615,9.239-5.244a7.146,7.146,0,0,0-4.845-8.884c-1.264-.366-3.141-.9-5.039-1.444-2.051-.584-4.13-1.178-5.5-1.575a9.333,9.333,0,0,1-6.333-11.6c1.355-4.611,6-7.342,11.547-6.8,9.056.885,16.852,10.154,17.179,10.549a1.836,1.836,0,0,0,2.582.275,2,2,0,0,0,.189-2.685c-2.149-3.426-4.689-5.225-8.656-7.876a4.354,4.354,0,0,1-1.869-2.9,4.718,4.718,0,0,1,.843-3.593,4.631,4.631,0,0,1,6.42-1.02,31.306,31.306,0,0,1,13.363,20.351c.243,1.278,1.017,2.644,2.458,2.644a2.239,2.239,0,0,0,1.625-.862,2.864,2.864,0,0,0,.672-2.281A34.523,34.523,0,0,0,234.1,33.732a35.034,35.034,0,0,0-22.642-8.3,34.678,34.678,0,0,0-24.706,10.246,1.092,1.092,0,1,1-1.545-1.544,36.847,36.847,0,0,1,26.251-10.888,37.223,37.223,0,0,1,24.056,8.817A36.712,36.712,0,0,1,248.005,54a5.005,5.005,0,0,1-1.162,4.05,4.373,4.373,0,0,1-3.291,1.635c-2.287,0-4.094-1.735-4.6-4.421A29.6,29.6,0,0,0,226.572,36.36a.976.976,0,0,1-.091-.06,2.443,2.443,0,0,0-3.41.521,2.53,2.53,0,0,0-.451,1.922,2.188,2.188,0,0,0,.932,1.46c4.206,2.813,6.907,4.729,9.292,8.532a4.126,4.126,0,0,1-.662,5.541,4.017,4.017,0,0,1-5.649-.583c-.067-.081-7.548-8.965-15.7-9.762-4.545-.443-8.171,1.614-9.238,5.244a7.147,7.147,0,0,0,4.845,8.884c1.365.4,3.439.988,5.487,1.573,1.9.542,3.78,1.078,5.048,1.445a9.332,9.332,0,0,1,6.334,11.6c-1.355,4.612-6,7.35-11.547,6.8-9.056-.886-16.852-10.154-17.179-10.549A1.835,1.835,0,0,0,192,68.654a2,2,0,0,0-.189,2.685c2.15,3.426,4.689,5.225,8.655,7.876a4.351,4.351,0,0,1,1.871,2.9,4.715,4.715,0,0,1-.844,3.594,4.625,4.625,0,0,1-6.419,1.02A31.306,31.306,0,0,1,181.7,66.376c-.243-1.278-1.017-2.644-2.458-2.644a2.235,2.235,0,0,0-1.624.862,2.861,2.861,0,0,0-.673,2.281A34.523,34.523,0,0,0,188.7,87.5a35.037,35.037,0,0,0,22.643,8.3,34.677,34.677,0,0,0,24.7-10.246A1.093,1.093,0,1,1,237.6,87.1,36.844,36.844,0,0,1,211.346,97.984Z" transform="translate(-174.73 -23.249)" fill="#ecaa27"/>
      <path id="Path_459" data-name="Path 459" d="M265,55.609a16.618,16.618,0,0,1-4.745-.629,12.164,12.164,0,0,1-3.755-1.83,15.134,15.134,0,0,1-2.935-2.839l3.926-4.46a10.509,10.509,0,0,0,3.83,3.431,9.514,9.514,0,0,0,3.983.877,6.123,6.123,0,0,0,1.868-.267,2.842,2.842,0,0,0,1.3-.781,1.853,1.853,0,0,0,.457-1.277,1.9,1.9,0,0,0-.287-1.029,2.747,2.747,0,0,0-.781-.8,6.352,6.352,0,0,0-1.181-.629,12.035,12.035,0,0,0-1.449-.5c-.508-.139-1.029-.26-1.562-.362a20.777,20.777,0,0,1-3.85-1.22,9.249,9.249,0,0,1-2.725-1.773,6.747,6.747,0,0,1-1.62-2.4,8.2,8.2,0,0,1-.533-3.03,6.785,6.785,0,0,1,.82-3.3,8.29,8.29,0,0,1,2.21-2.591,10.343,10.343,0,0,1,3.22-1.677A12.342,12.342,0,0,1,265,27.936a16.194,16.194,0,0,1,4.517.554,9.871,9.871,0,0,1,3.241,1.582,9.982,9.982,0,0,1,2.306,2.478l-4,3.849a8.391,8.391,0,0,0-1.734-1.639,7.632,7.632,0,0,0-1.982-.992,6.888,6.888,0,0,0-2.154-.343,5.974,5.974,0,0,0-1.964.287,2.967,2.967,0,0,0-1.276.8,1.8,1.8,0,0,0-.458,1.238,1.67,1.67,0,0,0,.381,1.105,3.61,3.61,0,0,0,1.03.82,7.16,7.16,0,0,0,1.486.609,14.416,14.416,0,0,0,1.753.4,21.264,21.264,0,0,1,3.792,1.105,11.7,11.7,0,0,1,2.935,1.677,6.892,6.892,0,0,1,1.906,2.345,7.028,7.028,0,0,1,.667,3.144,7.98,7.98,0,0,1-1.353,4.708,8.528,8.528,0,0,1-3.7,2.935A13.523,13.523,0,0,1,265,55.609Z" transform="translate(-163.922 -22.606)" fill="#fff"/>
      <path id="Path_460" data-name="Path 460" d="M283.144,55.154V34.19h-7.928V28.473h22.526V34.19h-8.119V55.154Z" transform="translate(-160.953 -22.533)" fill="#fff"/>
      <path id="Path_461" data-name="Path 461" d="M299.049,55.154V28.473h12.006a9.706,9.706,0,0,1,4.631,1.105,8.338,8.338,0,0,1,3.259,3.03,8.172,8.172,0,0,1,1.181,4.364,8.71,8.71,0,0,1-1.181,4.517,8.463,8.463,0,0,1-3.24,3.144,9.407,9.407,0,0,1-4.651,1.144h-5.831v9.377Zm6.174-14.332h5.26a3.353,3.353,0,0,0,1.734-.438,2.911,2.911,0,0,0,1.143-1.238,4.036,4.036,0,0,0,.4-1.83,3.516,3.516,0,0,0-.457-1.81,3.032,3.032,0,0,0-1.315-1.2,4.709,4.709,0,0,0-2.077-.418h-4.688Zm8.614,14.332-6.784-12.045,6.632-.953,7.547,13Z" transform="translate(-157.685 -22.533)" fill="#fff"/>
      <path id="Path_462" data-name="Path 462" d="M322.58,55.154V28.473h18.6V34H328.869V49.628h12.692v5.526Zm3.049-10.939v-5.26h13.836v5.26Z" transform="translate(-154.458 -22.533)" fill="#fff"/>
      <path id="Path_463" data-name="Path 463" d="M344.2,55.154V28.473h18.6V34H350.489V49.628h12.692v5.526Zm3.05-10.939v-5.26h13.835v5.26Z" transform="translate(-151.494 -22.533)" fill="#fff"/>
      <path id="Path_464" data-name="Path 464" d="M371.871,55.154V34.19h-7.928V28.473h22.526V34.19h-8.118V55.154Z" transform="translate(-148.787 -22.533)" fill="#fff"/>
      <path id="Path_465" data-name="Path 465" d="M264.944,88.526a12.912,12.912,0,0,1-5.108-.99A11.71,11.71,0,0,1,255.8,84.7a12.966,12.966,0,0,1-2.649-4.365,15.745,15.745,0,0,1-.934-5.526,13.858,13.858,0,0,1,1.01-5.317,13.7,13.7,0,0,1,2.8-4.326,12.616,12.616,0,0,1,9.262-3.926,12.671,12.671,0,0,1,7.147,2.23,9.991,9.991,0,0,1,2.458,2.382l-2.744,2.859a14.468,14.468,0,0,0-2.23-1.849,9.558,9.558,0,0,0-2.287-1.125,7.5,7.5,0,0,0-2.345-.381,8.614,8.614,0,0,0-6.308,2.669,9.164,9.164,0,0,0-1.888,2.992,10.224,10.224,0,0,0-.686,3.792,11.109,11.109,0,0,0,.668,3.946,8.645,8.645,0,0,0,1.886,3.029,8.166,8.166,0,0,0,2.916,1.925,10.177,10.177,0,0,0,3.755.667,9.241,9.241,0,0,0,4.765-1.334,10.362,10.362,0,0,0,1.944-1.525l2.058,3.353a8.575,8.575,0,0,1-2.382,1.868,14.075,14.075,0,0,1-3.354,1.314A14.859,14.859,0,0,1,264.944,88.526Z" transform="translate(-164.106 -18.041)" fill="#fff"/>
      <path id="Path_466" data-name="Path 466" d="M276.649,88.117V61.436h11.359a8.208,8.208,0,0,1,4.212,1.125,8.5,8.5,0,0,1,3.068,3.05,8.309,8.309,0,0,1,1.144,4.326,7.6,7.6,0,0,1-1.144,4.04,8.685,8.685,0,0,1-3.05,2.992,8.162,8.162,0,0,1-4.23,1.125h-7.242V88.117Zm4.116-13.989h7.623a3.639,3.639,0,0,0,1.982-.553,3.805,3.805,0,0,0,1.373-1.525,4.675,4.675,0,0,0,.495-2.153,4.224,4.224,0,0,0-2.382-3.926,5.5,5.5,0,0,0-2.535-.572h-6.555ZM292.5,88.117,285.72,76.073l4.231-.953L297.5,88.156Z" transform="translate(-160.756 -18.013)" fill="#fff"/>
      <path id="Path_467" data-name="Path 467" d="M299.945,88.117V61.436h16.809V65.4H304.061V84.153h12.692v3.964Zm1.867-11.7V72.451h12.846v3.964Z" transform="translate(-157.562 -18.013)" fill="#fff"/>
      <path id="Path_468" data-name="Path 468" d="M320.526,88.117V61.436H330.97a13.426,13.426,0,0,1,5.165.953,10.937,10.937,0,0,1,3.945,2.745,12.393,12.393,0,0,1,2.515,4.23,15.915,15.915,0,0,1,.877,5.413,16.08,16.08,0,0,1-.877,5.432,12.348,12.348,0,0,1-2.5,4.231,10.823,10.823,0,0,1-3.946,2.725,13.54,13.54,0,0,1-5.183.953Zm4.116-3.544-.114-.42h6.251a9.438,9.438,0,0,0,3.6-.648,7.234,7.234,0,0,0,2.668-1.849,8.037,8.037,0,0,0,1.658-2.954,12.622,12.622,0,0,0,.572-3.925,12.453,12.453,0,0,0-.572-3.907,8.133,8.133,0,0,0-1.677-2.954,7.364,7.364,0,0,0-2.668-1.867,9.293,9.293,0,0,0-3.583-.648h-6.366l.229-.343Z" transform="translate(-154.74 -18.013)" fill="#fff"/>
    </g>
  </g>
</svg>
