<svg width="238" height="75" viewBox="0 0 70 75" fill="none" xmlns="http://www.w3.org/2000/svg">
<path d="M36.6158 74.867C27.8061 74.8672 19.2819 71.743 12.5588 66.05C5.93181 60.4457 1.50489 52.6746 0.0638263 44.116C-0.0494794 43.3967 -0.004296 42.6613 0.196242 41.9612C0.39678 41.2611 0.747828 40.6133 1.22482 40.063C1.62213 39.5684 2.12225 39.166 2.69052 38.8839C3.25879 38.6018 3.88161 38.4466 4.51582 38.429C6.80282 38.429 8.60982 40.164 9.12082 42.849C10.5835 50.54 15.0335 57.3384 21.4968 61.756C21.5268 61.774 21.5578 61.795 21.5868 61.816C21.8449 62.0058 22.1379 62.1428 22.4489 62.2193C22.76 62.2958 23.0831 62.3102 23.3997 62.2619C23.7164 62.2135 24.0204 62.1032 24.2944 61.9373C24.5685 61.7714 24.8071 61.5532 24.9968 61.295C25.1974 61.0213 25.3407 60.7099 25.4182 60.3795C25.4957 60.0491 25.5058 59.7064 25.4478 59.372C25.4003 59.0781 25.2931 58.797 25.1329 58.5461C24.9726 58.2951 24.7626 58.0797 24.5158 57.913C20.3098 55.101 17.6158 53.184 15.2248 49.381C14.6209 48.5425 14.3538 47.5079 14.4762 46.4818C14.5986 45.4557 15.1016 44.513 15.8858 43.84C16.2949 43.5072 16.7656 43.2582 17.271 43.1074C17.7764 42.9565 18.3065 42.9068 18.8311 42.9609C19.3557 43.0151 19.8646 43.1721 20.3285 43.4229C20.7924 43.6738 21.2023 44.0137 21.5348 44.423C21.6028 44.504 29.0838 53.387 37.2348 54.185C41.7788 54.626 45.4068 52.57 46.4738 48.941C46.7403 48.0396 46.8263 47.0944 46.727 46.1597C46.6276 45.225 46.3447 44.319 45.8947 43.4937C45.4446 42.6685 44.8362 41.9401 44.1041 41.3504C43.3721 40.7607 42.531 40.3212 41.6288 40.057C40.3648 39.691 38.4878 39.157 36.5898 38.613C34.5388 38.029 32.4598 37.435 31.0898 37.038C29.9114 36.6936 28.8126 36.1201 27.8562 35.3503C26.8998 34.5806 26.1047 33.6296 25.5164 32.5521C24.9281 31.4745 24.5582 30.2915 24.4279 29.0707C24.2975 27.85 24.4093 26.6155 24.7568 25.438C26.1118 20.827 30.7568 18.096 36.3038 18.638C45.3598 19.523 53.1558 28.792 53.4828 29.187C53.6343 29.3746 53.8212 29.5306 54.033 29.6459C54.2447 29.7613 54.4771 29.8338 54.7169 29.8593C54.9566 29.8849 55.1991 29.8629 55.4304 29.7948C55.6616 29.7266 55.8772 29.6135 56.0648 29.462C56.4248 29.1183 56.6436 28.6526 56.6786 28.1561C56.7135 27.6596 56.5621 27.1679 56.2538 26.777C54.1048 23.351 51.5648 21.552 47.5978 18.901C47.1051 18.5705 46.6852 18.1428 46.3638 17.6441C46.0424 17.1454 45.8263 16.5863 45.7288 16.001C45.6207 15.3762 45.6396 14.736 45.7844 14.1187C45.9293 13.5014 46.1971 12.9196 46.5718 12.408C47.2936 11.429 48.3715 10.7732 49.5728 10.5823C50.7741 10.3915 52.0022 10.6809 52.9918 11.388C56.4655 13.7159 59.4376 16.716 61.7327 20.2113C64.0278 23.7066 65.5994 27.6263 66.3548 31.739C66.5978 33.017 67.3718 34.383 68.8128 34.383C69.1293 34.3626 69.4378 34.2752 69.7179 34.1266C69.9981 33.978 70.2434 33.7716 70.4378 33.521C70.7067 33.2112 70.9058 32.8471 71.0217 32.4536C71.1377 32.06 71.1677 31.6462 71.1098 31.24C69.7567 23.1937 65.5975 15.8867 59.3698 10.615C53.0425 5.25613 45.0195 2.31512 36.7278 2.31504C32.1365 2.30232 27.5884 3.20147 23.3473 4.96032C19.1062 6.71917 15.2566 9.30271 12.0218 12.561C11.9204 12.6625 11.8001 12.743 11.6676 12.7979C11.5351 12.8528 11.3931 12.8811 11.2497 12.8812C11.1063 12.8812 10.9642 12.853 10.8317 12.7982C10.6992 12.7433 10.5788 12.6629 10.4773 12.5615C10.3759 12.4602 10.2954 12.3398 10.2405 12.2073C10.1855 12.0748 10.1572 11.9328 10.1572 11.7894C10.1571 11.646 10.1853 11.504 10.2402 11.3714C10.295 11.2389 10.3754 11.1185 10.4768 11.017C13.9138 7.55474 18.0041 4.80942 22.5104 2.94036C27.0167 1.0713 31.8493 0.115713 36.7278 0.129044C45.5372 0.128846 54.0611 3.25304 60.7838 8.94604C67.4097 14.552 71.8352 22.3241 73.2748 30.883C73.3872 31.602 73.3414 32.3368 73.1408 33.0363C72.9401 33.7357 72.5893 34.383 72.1128 34.933C71.7157 35.428 71.2157 35.8307 70.6474 36.113C70.0791 36.3953 69.4562 36.5506 68.8218 36.568C66.5348 36.568 64.7278 34.833 64.2218 32.147C62.7574 24.4565 58.306 17.6593 51.8418 13.243C51.8104 13.2248 51.78 13.2047 51.7508 13.183C51.2292 12.8009 50.5774 12.6412 49.9382 12.7389C49.299 12.8365 48.7245 13.1836 48.3408 13.704C48.1407 13.9778 47.9976 14.2891 47.9201 14.6192C47.8426 14.9494 47.8323 15.2918 47.8898 15.626C47.9376 15.92 48.0449 16.2011 48.2052 16.4522C48.3655 16.7032 48.5753 16.9189 48.8218 17.086C53.0278 19.899 55.7288 21.815 58.1138 25.618C58.7174 26.4568 58.9842 27.4914 58.8616 28.5174C58.7391 29.5434 58.236 30.4861 57.4518 31.159C56.6253 31.8305 55.5659 32.1463 54.5066 32.0369C53.4474 31.9276 52.4748 31.4022 51.8028 30.576C51.7358 30.495 44.2548 21.611 36.1028 20.814C31.5578 20.371 27.9318 22.428 26.8648 26.058C26.5985 26.9595 26.5126 27.9046 26.612 28.8393C26.7114 29.774 26.9943 30.6799 27.4443 31.5051C27.8944 32.3304 28.5028 33.0587 29.2347 33.6485C29.9667 34.2382 30.8078 34.6778 31.7098 34.942C33.0748 35.342 35.1488 35.93 37.1968 36.515C39.0968 37.057 40.9768 37.593 42.2448 37.96C43.4234 38.3042 44.5224 38.8776 45.479 39.6473C46.4355 40.417 47.2308 41.3679 47.8192 42.4455C48.4076 43.5231 48.7776 44.7063 48.9079 45.9271C49.0383 47.1479 48.9265 48.3825 48.5788 49.56C47.2238 54.172 42.5788 56.91 37.0318 56.36C27.9758 55.474 20.1798 46.206 19.8528 45.811C19.7013 45.6233 19.5143 45.4672 19.3025 45.3518C19.0906 45.2364 18.8581 45.1638 18.6181 45.1384C18.3782 45.1129 18.1356 45.1351 17.9043 45.2035C17.6729 45.2719 17.4573 45.3852 17.2698 45.537C16.9098 45.8808 16.691 46.3465 16.656 46.843C16.6211 47.3395 16.7726 47.8312 17.0808 48.222C19.2308 51.648 21.7698 53.447 25.7358 56.098C26.229 56.4283 26.6494 56.8559 26.9711 57.3546C27.2929 57.8533 27.5092 58.4126 27.6068 58.998C27.7151 59.6231 27.6962 60.2635 27.5512 60.8811C27.4062 61.4986 27.138 62.0806 26.7628 62.592C26.0421 63.5721 24.9642 64.2288 23.7627 64.4197C22.5612 64.6106 21.3329 64.3204 20.3438 63.612C16.8679 61.2851 13.8936 58.2851 11.5966 54.7893C9.2995 51.2936 7.72627 47.373 6.96982 43.259C6.72682 41.981 5.95282 40.615 4.51182 40.615C4.19548 40.6353 3.88706 40.7227 3.60707 40.8713C3.32707 41.0199 3.0819 41.2264 2.88782 41.477C2.61862 41.7868 2.41921 42.1507 2.30308 42.5443C2.18696 42.9379 2.15687 43.3518 2.21483 43.758C3.57186 51.8065 7.73657 59.1138 13.9698 64.383C20.2975 69.7419 28.3208 72.6829 36.6128 72.683C41.2031 72.695 45.7502 71.7955 49.9902 70.0367C54.2302 68.2778 58.0788 65.6947 61.3128 62.437C61.4143 62.3348 61.535 62.2536 61.6679 62.198C61.8008 62.1424 61.9434 62.1135 62.0874 62.113C62.2315 62.1125 62.3743 62.1403 62.5076 62.195C62.6409 62.2496 62.7621 62.33 62.8643 62.4315C62.9666 62.5331 63.0478 62.6537 63.1034 62.7866C63.159 62.9195 63.1879 63.0621 63.1884 63.2062C63.1889 63.3502 63.161 63.493 63.1064 63.6263C63.0517 63.7596 62.9713 63.8808 62.8698 63.983C59.4323 67.4451 55.3414 70.19 50.8345 72.0584C46.3277 73.9268 41.4946 74.8815 36.6158 74.867Z" fill="#ECAA27"/>
</svg>