<svg width="2961" height="3578" viewBox="0 0 2961 3578" fill="none" xmlns="http://www.w3.org/2000/svg">
<path opacity="0.228" d="M1720.95 3541.19C1652.64 3243.92 1559.53 3023.75 1451.72 2768.82C1438.56 2737.69 1425.11 2705.8 1411.37 2673.15C1492.21 2652.01 1566.53 2629.82 1629.1 2610C1639.74 2630.41 1649.09 2645.82 1657.17 2656.22C1677.7 2682.68 1701.28 2706.87 1726.55 2729.16C1790.73 2785.72 1865.84 2829.97 1929.75 2867.6C1936.55 2871.61 1944.67 2872.75 1952.31 2870.77C1959.96 2868.79 1966.5 2863.86 1970.51 2857.05C1974.52 2850.25 1975.66 2842.13 1973.68 2834.49C1971.7 2826.84 1966.76 2820.29 1959.96 2816.29C1870.86 2763.82 1769.89 2704.35 1704.22 2619.72C1699.76 2613.96 1693.94 2605.04 1686.45 2591.45C1726.01 2578.4 1758.47 2567.19 1781.68 2559.17C1788.34 2556.87 1794.16 2554.86 1799.09 2553.17C1859.72 2532.42 1924.38 2510.87 1986.91 2490.03C2075.78 2460.4 2167.36 2429.86 2253.67 2399.59C2251.59 2416.57 2249.51 2433.26 2247.44 2449.67L2245.27 2466.86L2262.12 2470.86C2268.88 2472.47 2275.63 2474.13 2282.36 2475.85L2303.53 2481.24L2306.27 2459.56C2331.1 2263.09 2357.32 2020.73 2379.18 1807.87C2578.23 1776.64 2807.76 1749.69 2891.36 1745.65C2897.24 1745.36 2902.9 1743.34 2907.63 1739.83C2912.37 1736.33 2915.95 1731.5 2917.94 1725.96C2919.93 1720.41 2920.23 1714.41 2918.8 1708.69C2917.37 1702.98 2914.28 1697.82 2909.92 1693.86C2909.81 1693.76 2909.7 1693.66 2909.59 1693.56C2903.79 1688.43 2896.21 1685.77 2888.47 1686.16C2815.33 1689.7 2633.52 1710.64 2465.56 1734.89C2441.83 1738.31 2414.54 1742.36 2385.41 1746.86C2405.43 1549.83 2420.96 1386.33 2427.01 1321.92C2644.63 1429.97 2843.28 1528.16 2908.71 1557.69C2915.9 1560.91 2924.07 1561.14 2931.44 1558.34C2938.8 1555.54 2944.76 1549.94 2948 1542.76C2951.24 1535.58 2951.5 1527.41 2948.73 1520.03C2945.96 1512.66 2940.38 1506.69 2933.21 1503.42C2854.07 1467.7 2576.4 1329.7 2307.87 1196.24C2254.14 1169.54 2201.09 1143.17 2150.32 1117.97L2255.15 888.277C2262.68 887.912 2270.12 886.442 2277.22 883.916C2286.72 880.579 2295.46 875.392 2302.94 868.654C2310.42 861.915 2316.49 853.761 2320.8 844.661C2321.72 842.727 2322.53 840.772 2323.27 838.805C2371.97 836.36 2421.34 832.093 2469.32 827.939C2492.15 825.958 2515.75 823.912 2538.73 822.116C2614.73 816.177 2701.99 789.729 2778.13 749.553C2814.56 730.325 2848.68 706.471 2881.67 683.408C2902.67 668.729 2924.37 653.554 2946.12 639.999C2952.78 635.801 2957.5 629.138 2959.26 621.468C2961.02 613.797 2959.67 605.743 2955.51 599.064C2951.35 592.386 2944.71 587.627 2937.05 585.827C2929.39 584.028 2921.32 585.334 2914.62 589.461C2892.13 603.476 2870.12 618.88 2848.84 633.78C2817.13 655.98 2784.32 678.948 2750.33 696.885C2681.11 733.415 2602.29 757.418 2534.1 762.744C2510.97 764.551 2487.29 766.608 2464.4 768.592C2417.2 772.684 2368.63 776.892 2321.03 779.292C2315.97 768.436 2308.44 758.916 2299.04 751.5C2289.63 744.083 2278.62 738.975 2266.89 736.587C2255.15 734.199 2243.02 734.597 2231.46 737.75C2219.91 740.902 2209.26 746.721 2200.36 754.738L1939.13 635.755C2019.36 458.855 2087.34 310.264 2123.93 232.585C2125.59 229.047 2126.55 225.216 2126.73 221.31C2126.92 217.404 2126.33 213.5 2125.01 209.82C2123.68 206.141 2121.65 202.758 2119.02 199.865C2116.39 196.972 2113.21 194.625 2109.67 192.959C2106.14 191.293 2102.31 190.34 2098.4 190.155C2094.49 189.97 2090.59 190.555 2086.91 191.879C2083.23 193.202 2079.85 195.238 2076.95 197.869C2074.06 200.499 2071.71 203.674 2070.05 207.212C1952.02 457.833 1507.67 1445.31 1378.35 1743.93C1358.98 1742.1 1339.47 1745.61 1321.96 1754.08C1304.44 1762.55 1289.58 1775.66 1278.99 1791.99L1158.83 1768.1C1181 1712.87 1205.55 1641.58 1226.98 1569.71L1229.53 1561.16H1229.55L1230.23 1558.82L1234.24 1545.36H1234.11C1255.17 1472.25 1282.77 1364.69 1295.92 1263.66C1305.06 1193.42 1305.84 1135.99 1298.37 1092.13C1527.73 626.064 1790.4 48.2902 1793.04 42.4712C1794.68 38.9078 1795.6 35.0551 1795.75 31.1346C1795.9 27.214 1795.27 23.303 1793.9 19.6262C1792.53 15.9493 1790.45 12.5792 1787.78 9.70965C1785.1 6.84005 1781.88 4.52753 1778.31 2.90496C1774.74 1.28239 1770.88 0.381776 1766.96 0.254907C1763.04 0.128037 1759.13 0.777397 1755.46 2.16567C1751.79 3.55395 1748.44 5.65376 1745.58 8.34441C1742.72 11.0351 1740.43 14.2635 1738.83 17.8442C1736.28 23.4352 1493.15 558.244 1270.73 1013.24C1231.89 938.87 1167.23 882.662 1098.64 827.386C1095.59 824.933 1092.1 823.105 1088.34 822.004C1084.59 820.903 1080.66 820.552 1076.77 820.971C1072.88 821.39 1069.12 822.571 1065.69 824.446C1062.26 826.32 1059.23 828.853 1056.77 831.898C1054.32 834.943 1052.49 838.441 1051.39 842.193C1050.29 845.945 1049.94 849.877 1050.36 853.765C1050.78 857.652 1051.96 861.419 1053.83 864.851C1055.71 868.282 1058.24 871.31 1061.29 873.763H1061.28C1138.38 935.871 1204.49 993.963 1233.2 1075.92C1246.31 1113.34 1247.54 1173.92 1236.86 1255.99C1223.84 1356.09 1195.98 1463.44 1174.91 1535.87L1171.89 1546.23L1168.49 1557.56C1147.45 1627.66 1123.45 1696.91 1102.06 1749.66C1095.02 1738.21 1087.91 1726.85 1080.85 1715.57C1076.92 1709.29 1073.01 1703.03 1069.11 1696.78L1062.31 1685.87L1057.04 1677.25C1040.21 1649.76 1021 1617.2 1006.04 1584.17C955.448 1472.46 927.137 1394.34 893.824 1274.57C892.787 1270.79 891.014 1267.25 888.607 1264.16C886.2 1261.07 883.206 1258.48 879.797 1256.55C876.388 1254.62 872.632 1253.37 868.742 1252.9C864.853 1252.42 860.908 1252.71 857.133 1253.76C853.358 1254.81 849.827 1256.6 846.743 1259.02C843.66 1261.43 841.083 1264.44 839.162 1267.85C837.241 1271.27 836.013 1275.03 835.549 1278.92C835.084 1282.81 835.393 1286.75 836.456 1290.53C870.251 1412.06 900.431 1495.33 951.792 1608.74C968.256 1645.11 990.085 1681.77 1009.27 1712.83L1013.17 1719.15L1013.16 1719.16L1014.26 1720.91L1022.07 1733.56L1022.14 1733.49L1028.88 1744.26C1035.35 1754.59 1041.88 1765 1048.33 1775.46L1034.68 1791.64L820.181 2046L142.024 1874.39L141.585 1874.28C133.886 1872.53 125.805 1873.9 119.118 1878.1C112.431 1882.3 107.686 1888.98 105.925 1896.68C104.184 1904.33 105.532 1912.36 109.675 1919.03C113.819 1925.69 120.424 1930.45 128.056 1932.27L806.961 2103.91C839.076 2200.73 911.736 2263.34 982.148 2323.99C996.272 2336.16 1010.89 2348.74 1024.85 2361.34C1090.54 2420.61 1137.35 2477.48 1152.29 2562.38C1158.04 2595.06 1158.64 2630.87 1154.09 2670.03C964.981 2703.89 812.072 2708.73 698.357 2684.29C559.42 2654.42 470.027 2597.13 383.576 2541.74C352.19 2521.62 78.9424 2370.36 44.6354 2351.19C38.2204 2347.61 30.7068 2346.52 23.5397 2348.14C16.3727 2349.76 10.0585 2353.98 5.81178 2359.98C1.56503 2365.97 -0.314319 2373.33 0.535168 2380.63C1.38466 2387.93 4.903 2394.65 10.4135 2399.51C11.9735 2400.89 254.492 2532.59 256.376 2533.64L15.5834 2403.17C49.0554 2421.88 322.01 2572.89 353.109 2592.74C418.74 2634.66 485.999 2677.59 574.155 2710.2C511.134 2845.39 450.299 2974.01 386.16 3109.63L358.366 3168.4C356.672 3171.94 355.694 3175.78 355.487 3179.69C355.281 3183.61 355.85 3187.53 357.163 3191.22C358.475 3194.92 360.506 3198.32 363.137 3201.23C365.767 3204.14 368.947 3206.5 372.493 3208.18C376.039 3209.85 379.882 3210.81 383.799 3211C387.717 3211.19 391.634 3210.6 395.323 3209.27C399.013 3207.94 402.403 3205.89 405.299 3203.24C408.195 3200.6 410.54 3197.41 412.198 3193.85L439.404 3136.32C504.821 2998.02 566.804 2866.97 631.168 2728.85C648.568 2733.82 666.748 2738.4 685.842 2742.51C801.865 2767.45 955.264 2763.83 1143.25 2731.86C1127.6 2799.98 1098.68 2877 1056.17 2964C1025.74 3026.25 1035.24 3103.02 1086.07 3205.58C1106.49 3246.8 1131.1 3287.8 1154.9 3327.44C1171.74 3355.49 1187.65 3381.98 1201.27 3407.18C1217.32 3436.86 1235.96 3474.66 1237.68 3503.68C1237.91 3507.58 1238.91 3511.4 1240.62 3514.92C1242.33 3518.43 1244.71 3521.58 1247.64 3524.18C1250.56 3526.77 1253.97 3528.77 1257.66 3530.05C1261.36 3531.33 1265.27 3531.87 1269.17 3531.63C1273.08 3531.4 1276.9 3530.4 1280.41 3528.7C1283.93 3526.99 1287.08 3524.6 1289.67 3521.68C1292.27 3518.76 1294.26 3515.35 1295.54 3511.65C1296.82 3507.96 1297.36 3504.05 1297.13 3500.14C1295.5 3472.73 1285.17 3440.86 1264.61 3399.84C1248.52 3367.74 1228.07 3333.68 1206.42 3297.62C1194.21 3277.27 1181.58 3256.23 1169.58 3235.24C1147.6 3196.76 1120.63 3146.48 1107.18 3098.8C1094.71 3054.63 1095.53 3019.09 1109.68 2990.14C1159.12 2888.96 1191.25 2799.49 1206.42 2720.29C1239.5 2713.83 1273.54 2706.56 1308.56 2698.5C1323.52 2695.04 1338.34 2691.52 1353.01 2687.92C1367.96 2723.62 1382.65 2758.44 1397.06 2792.41C1503.65 3044.4 1595.7 3262.02 1662.92 3554.53C1664.29 3560.58 1667.54 3566.05 1672.2 3570.15C1673.43 3571.24 1674.74 3572.22 1676.13 3573.09C1681.12 3576.22 1686.93 3577.8 1692.81 3577.62C1698.7 3577.45 1704.4 3575.53 1709.2 3572.12C1714 3568.7 1717.68 3563.94 1719.77 3558.44C1721.86 3552.93 1722.27 3546.93 1720.96 3541.19L1720.95 3541.19ZM2261.6 2333.96C2260.34 2334.22 2259.1 2334.56 2257.88 2334.98C2165.08 2367.87 2064.86 2401.28 1967.93 2433.58C1905.32 2454.45 1840.58 2476.03 1779.8 2496.83C1774.43 2498.67 1767.99 2500.9 1760.55 2503.47C1736.31 2511.86 1701.91 2523.77 1659.81 2537.63C1644.15 2503.44 1624.46 2456.78 1599.72 2393.03L1596.18 2383.89L1591.78 2372.4C1576.26 2331.89 1560.58 2289.48 1545.41 2247.47L1778.48 2155.57L1983.35 2074.79C1998.21 2104.19 2007.48 2122.66 2009.78 2127.39C2029.25 2167.54 2051.57 2206.72 2073.16 2244.6C2091.95 2277.58 2111.38 2311.68 2128.62 2345.93C2132.17 2352.98 2138.38 2358.33 2145.87 2360.81C2153.37 2363.29 2161.55 2362.69 2168.6 2359.14C2175.66 2355.59 2181.01 2349.38 2183.49 2341.88C2185.97 2334.38 2185.36 2326.21 2181.81 2319.15C2164.15 2284.05 2144.48 2249.55 2125.47 2216.19C2104.22 2178.91 2082.25 2140.36 2063.37 2101.4C2058.34 2091.05 2025.63 2026.43 2024.25 2023.69C2020.92 2017.05 2015.23 2011.89 2008.28 2009.25C2001.34 2006.61 1993.65 2006.68 1986.76 2009.44L1750.67 2102.52L1525.34 2191.37C1515.05 2162.32 1505.15 2133.99 1495.88 2107.18C1551.95 2084.77 1651.04 2043.76 1755.1 2000.7C1784.75 1988.43 1814.61 1976.07 1843.65 1964.07L1852.23 1960.53L1864.49 1955.47C1937.97 1925.13 2027.64 1888.27 2069.09 1872.33C2112.03 1855.81 2206.82 1836.37 2318.26 1817.73C2301.02 1985.07 2281.22 2169.18 2261.6 2333.96ZM2258.97 796.268C2262.02 797.722 2264.57 800.048 2266.3 802.951C2268.03 805.855 2268.86 809.206 2268.68 812.581C2268.51 815.956 2267.33 819.203 2265.31 821.911C2263.29 824.62 2260.51 826.668 2257.33 827.798C2254.14 828.927 2250.69 829.087 2247.42 828.256C2244.14 827.426 2241.19 825.642 2238.92 823.132C2236.66 820.622 2235.19 817.497 2234.71 814.153C2234.22 810.808 2234.74 807.395 2236.19 804.344C2238.14 800.256 2241.64 797.109 2245.91 795.595C2250.18 794.081 2254.88 794.323 2258.97 796.267L2258.97 796.268ZM1914.55 689.996L2175.05 808.645C2174.61 819.616 2176.54 830.552 2180.7 840.713C2184.86 850.875 2191.15 860.025 2199.15 867.545L2096.93 1091.49C1967.95 1027.52 1858.86 973.714 1799.26 945.304C1838.62 857.928 1877.61 771.557 1914.55 689.996ZM1774.81 999.619C1864.98 1042.62 2068.12 1143.58 2281.88 1249.82C2311.16 1264.37 2340.55 1278.98 2369.78 1293.5C2366.32 1330.7 2348.46 1521.42 2324.51 1756.58C2216.8 1774.28 2100.47 1796.46 2047.7 1816.76C2005.51 1832.99 1914.45 1870.43 1839.83 1901.23L1836.32 1902.68L1832.22 1904.38L1821.08 1908.98V1908.99L1819.23 1909.75C1790.57 1921.59 1761.16 1933.76 1731.93 1945.85C1629.84 1988.1 1532.54 2028.36 1476.52 2050.79C1458.51 1997.94 1444.31 1955.22 1436.35 1931.09C1448.49 1920.95 1458.2 1908.21 1464.78 1893.83C1471.36 1879.44 1474.64 1863.77 1474.38 1847.95C1474.12 1832.14 1470.33 1816.58 1463.28 1802.42C1456.24 1788.25 1446.11 1775.85 1433.65 1766.1C1497.31 1619.16 1636.02 1308.12 1774.81 999.619H1774.81ZM1348.08 1891.83C1339.75 1887.86 1332.78 1881.51 1328.06 1873.58C1323.33 1865.65 1321.07 1856.5 1321.55 1847.28C1322.03 1838.06 1325.23 1829.19 1330.75 1821.79C1336.27 1814.39 1343.86 1808.8 1352.56 1805.71C1361.26 1802.63 1370.68 1802.19 1379.63 1804.46C1388.58 1806.73 1396.65 1811.6 1402.83 1818.46C1409.01 1825.32 1413.01 1833.85 1414.34 1842.99C1415.67 1852.12 1414.26 1861.45 1410.29 1869.78C1407.69 1875.34 1404.01 1880.33 1399.46 1884.46C1394.91 1888.59 1389.59 1891.77 1383.8 1893.83C1378.01 1895.88 1371.88 1896.76 1365.74 1896.42C1359.61 1896.07 1353.61 1894.52 1348.08 1891.83H1348.08ZM1295.47 2640.87C1268 2647.23 1241.16 2653.06 1214.97 2658.36C1218.08 2620.38 1216.73 2584.95 1210.94 2552.06C1191.99 2444.42 1129.48 2375.54 1064.75 2317.13C1050.02 2303.84 1034.75 2290.79 1019.98 2278.18C953.946 2221.75 891.403 2168.28 863.914 2086.52L1054.79 1860.16V1860.17L1080.49 1829.68C1095.89 1857.17 1109.74 1884.96 1120.25 1912.91C1158.24 2013.88 1186.35 2122.04 1211.89 2224.17L1214.6 2235.04L1221.16 2261.39C1251.94 2385.09 1283.71 2512.63 1330.38 2632.59C1318.83 2635.39 1307.2 2638.15 1295.48 2640.87H1295.47ZM1388.56 2617.97C1342.35 2501.17 1311.1 2377.02 1281.1 2256.37H1281.11L1272.56 2222.04C1242.94 2103.14 1215.23 1996.25 1175.99 1891.94C1167.4 1869.48 1157.46 1847.57 1146.23 1826.32L1262.02 1849.33C1261.91 1869.46 1267.54 1889.21 1278.24 1906.26C1288.95 1923.3 1304.29 1936.95 1322.47 1945.6C1340.85 1954.37 1361.37 1957.64 1381.57 1955.01C1405.18 2026.18 1471.93 2224.8 1536.35 2392.83L1537.11 2394.81L1537.08 2394.82L1540.33 2403.2L1542.96 2410.08L1542.99 2410.06L1544.38 2413.64C1566.56 2470.76 1586.08 2518.06 1603.13 2555.92C1541 2575.57 1467.73 2597.36 1388.56 2617.96L1388.56 2617.97Z" fill="rgb(85, 85, 85)"/>
</svg>
